robomatn.ufo
<glyph name="dollar" format="2">
  <advance width="1151"/>
  <unicode hex="0024"/>
  <outline>
    <contour>
      <point x="856" y="375" type="qcurve" smooth="yes"/>
      <point x="856" y="464"/>
      <point x="730" y="594"/>
      <point x="574" y="645" type="qcurve" smooth="yes"/>
      <point x="384" y="704"/>
      <point x="166" y="902"/>
      <point x="166" y="1080" type="qcurve" smooth="yes"/>
      <point x="166" y="1246"/>
      <point x="359" y="1453"/>
      <point x="524" y="1473" type="qcurve"/>
      <point x="524" y="1692" type="line"/>
      <point x="674" y="1692" type="line"/>
      <point x="674" y="1472" type="line"/>
      <point x="842" y="1450"/>
      <point x="1029" y="1213"/>
      <point x="1029" y="1008" type="qcurve"/>
      <point x="845" y="1008" type="line"/>
      <point x="845" y="1142"/>
      <point x="717" y="1315"/>
      <point x="597" y="1315" type="qcurve" smooth="yes"/>
      <point x="471" y="1315"/>
      <point x="352" y="1187"/>
      <point x="352" y="1083" type="qcurve" smooth="yes"/>
      <point x="352" y="986"/>
      <point x="474" y="865"/>
      <point x="639" y="809" type="qcurve" smooth="yes"/>
      <point x="832" y="747"/>
      <point x="1042" y="555"/>
      <point x="1042" y="377" type="qcurve" smooth="yes"/>
      <point x="1042" y="203"/>
      <point x="833" y="2"/>
      <point x="656" y="-17" type="qcurve"/>
      <point x="656" y="-208" type="line"/>
      <point x="507" y="-208" type="line"/>
      <point x="507" y="-18" type="line"/>
      <point x="405" y="-7"/>
      <point x="223" y="88"/>
      <point x="110" y="277"/>
      <point x="110" y="429" type="qcurve"/>
      <point x="296" y="429" type="line"/>
      <point x="296" y="316"/>
      <point x="381" y="191"/>
      <point x="510" y="141"/>
      <point x="575" y="141" type="qcurve" smooth="yes"/>
      <point x="709" y="141"/>
      <point x="856" y="268"/>
    </contour>
  </outline>
</glyph>
<glyph name="three" format="2">
  <advance width="1151"/>
  <unicode hex="0033"/>
  <outline>
    <contour>
      <point x="391" y="667" type="line"/>
      <point x="391" y="819" type="line"/>
      <point x="523" y="819" type="line" smooth="yes"/>
      <point x="668" y="819"/>
      <point x="810" y="961"/>
      <point x="810" y="1068" type="qcurve" smooth="yes"/>
      <point x="810" y="1324"/>
      <point x="556" y="1324" type="qcurve" smooth="yes"/>
      <point x="438" y="1324"/>
      <point x="292" y="1189"/>
      <point x="292" y="1075" type="qcurve"/>
      <point x="107" y="1075" type="line"/>
      <point x="107" y="1186"/>
      <point x="219" y="1368"/>
      <point x="422" y="1476"/>
      <point x="556" y="1476" type="qcurve" smooth="yes"/>
      <point x="753" y="1476"/>
      <point x="996" y="1267"/>
      <point x="996" y="1064" type="qcurve" smooth="yes"/>
      <point x="996" y="983"/>
      <point x="887" y="799"/>
      <point x="767" y="748" type="qcurve"/>
      <point x="864" y="717"/>
      <point x="973" y="606"/>
      <point x="1018" y="472"/>
      <point x="1018" y="406" type="qcurve" smooth="yes"/>
      <point x="1018" y="270"/>
      <point x="897" y="80"/>
      <point x="689" y="-20"/>
      <point x="557" y="-20" type="qcurve" smooth="yes"/>
      <point x="431" y="-20"/>
      <point x="221" y="75"/>
      <point x="95" y="256"/>
      <point x="95" y="385" type="qcurve"/>
      <point x="280" y="385" type="line"/>
      <point x="280" y="270"/>
      <point x="429" y="132"/>
      <point x="557" y="132" type="qcurve" smooth="yes"/>
      <point x="685" y="132"/>
      <point x="832" y="266"/>
      <point x="832" y="402" type="qcurve" smooth="yes"/>
      <point x="832" y="538"/>
      <point x="664" y="667"/>
      <point x="523" y="667" type="qcurve" smooth="yes"/>
    </contour>
  </outline>
</glyph>
<glyph name="A" format="2">
  <advance width="1336"/>
  <unicode hex="0041"/>
  <anchor x="686" y="0" name="Anchor-1"/>
  <anchor x="672" y="1601" name="Anchor-0"/>
  <outline>
    <contour>
      <point x="1112" y="0" type="line"/>
      <point x="973" y="381" type="line"/>
      <point x="364" y="381" type="line"/>
      <point x="226" y="0" type="line"/>
      <point x="29" y="0" type="line"/>
      <point x="584" y="1456" type="line"/>
      <point x="753" y="1456" type="line"/>
      <point x="1310" y="0" type="line"/>
    </contour>
    <contour>
      <point x="422" y="539" type="line"/>
      <point x="916" y="539" type="line"/>
      <point x="669" y="1218" type="line"/>
    </contour>
  </outline>
</glyph>
<glyph name="D" format="2">
  <advance width="1344"/>
  <unicode hex="0044"/>
  <anchor x="613" y="10" name="Anchor-1"/>
  <anchor x="609" y="1612" name="Anchor-0"/>
  <outline>
    <contour>
      <point x="563" y="0" type="qcurve" smooth="yes"/>
      <point x="169" y="0" type="line"/>
      <point x="169" y="1456" type="line"/>
      <point x="581" y="1456" type="line" smooth="yes"/>
      <point x="772" y="1456"/>
      <point x="1061" y="1289"/>
      <point x="1223" y="982"/>
      <point x="1223" y="771" type="qcurve" smooth="yes"/>
      <point x="1223" y="684" type="line" smooth="yes"/>
      <point x="1223" y="473"/>
      <point x="1061" y="167"/>
      <point x="765" y="0"/>
    </contour>
    <contour>
      <point x="581" y="1298" type="qcurve" smooth="yes"/>
      <point x="362" y="1298" type="line"/>
      <point x="362" y="157" type="line"/>
      <point x="563" y="157" type="line" smooth="yes"/>
      <point x="796" y="157"/>
      <point x="1032" y="445"/>
      <point x="1032" y="684" type="qcurve" smooth="yes"/>
      <point x="1032" y="773" type="line" smooth="yes"/>
      <point x="1032" y="1024"/>
      <point x="796" y="1298"/>
    </contour>
  </outline>
</glyph>
<glyph name="E" format="2">
  <advance width="1164"/>
  <unicode hex="0045"/>
  <anchor x="619" y="10" name="Anchor-1"/>
  <anchor x="619" y="1612" name="Anchor-0"/>
  <outline>
    <contour>
      <point x="1094" y="157" type="line"/>
      <point x="1094" y="0" type="line"/>
      <point x="169" y="0" type="line"/>
      <point x="169" y="1456" type="line"/>
      <point x="1084" y="1456" type="line"/>
      <point x="1084" y="1298" type="line"/>
      <point x="362" y="1298" type="line"/>
      <point x="362" y="830" type="line"/>
      <point x="992" y="830" type="line"/>
      <point x="992" y="673" type="line"/>
      <point x="362" y="673" type="line"/>
      <point x="362" y="157" type="line"/>
    </contour>
  </outline>
</glyph>
<glyph name="U" format="2">
  <advance width="1328"/>
  <unicode hex="0055"/>
  <anchor x="666" y="0" name="Anchor-1"/>
  <anchor x="667" y="1601" name="Anchor-0"/>
  <outline>
    <contour>
      <point x="1002" y="1456" type="line"/>
      <point x="1194" y="1456" type="line"/>
      <point x="1194" y="471" type="line" smooth="yes"/>
      <point x="1194" y="307"/>
      <point x="1048" y="89"/>
      <point x="807" y="-20"/>
      <point x="666" y="-20" type="qcurve" smooth="yes"/>
      <point x="518" y="-20"/>
      <point x="279" y="89"/>
      <point x="140" y="307"/>
      <point x="140" y="471" type="qcurve" smooth="yes"/>
      <point x="140" y="1456" type="line"/>
      <point x="331" y="1456" type="line"/>
      <point x="331" y="471" type="line" smooth="yes"/>
      <point x="331" y="300"/>
      <point x="516" y="137"/>
      <point x="666" y="137" type="qcurve" smooth="yes"/>
      <point x="818" y="137"/>
      <point x="1002" y="300"/>
      <point x="1002" y="471" type="qcurve" smooth="yes"/>
    </contour>
  </outline>
</glyph>
<glyph name="W" format="2">
  <advance width="1817"/>
  <unicode hex="0057"/>
  <anchor x="922" y="10" name="Anchor-1"/>
  <anchor x="924" y="1601" name="Anchor-0"/>
  <outline>
    <contour>
      <point x="552" y="440" type="line"/>
      <point x="841" y="1456" type="line"/>
      <point x="1002" y="1456" type="line"/>
      <point x="1283" y="440" type="line"/>
      <point x="1324" y="263" type="line"/>
      <point x="1355" y="461" type="line"/>
      <point x="1580" y="1456" type="line"/>
      <point x="1773" y="1456" type="line"/>
      <point x="1421" y="0" type="line"/>
      <point x="1246" y="0" type="line"/>
      <point x="946" y="1061" type="line"/>
      <point x="923" y="1172" type="line"/>
      <point x="900" y="1061" type="line"/>
      <point x="589" y="0" type="line"/>
      <point x="414" y="0" type="line"/>
      <point x="61" y="1456" type="line"/>
      <point x="253" y="1456" type="line"/>
      <point x="483" y="460" type="line"/>
      <point x="512" y="267" type="line"/>
    </contour>
  </outline>
</glyph>
<glyph name="Z" format="2">
  <advance width="1227"/>
  <unicode hex="005A"/>
  <anchor x="613" y="10" name="Anchor-1"/>
  <anchor x="616" y="1601" name="Anchor-0"/>
  <outline>
    <contour>
      <point x="1146" y="157" type="line"/>
      <point x="1146" y="0" type="line"/>
      <point x="87" y="0" type="line"/>
      <point x="87" y="144" type="line"/>
      <point x="885" y="1298" type="line"/>
      <point x="100" y="1298" type="line"/>
      <point x="100" y="1456" type="line"/>
      <point x="1114" y="1456" type="line"/>
      <point x="1114" y="1316" type="line"/>
      <point x="314" y="157" type="line"/>
    </contour>
  </outline>
</glyph>
<glyph name="b" format="2">
  <advance width="1150"/>
  <unicode hex="0062"/>
  <anchor x="598" y="-10" name="Anchor-1"/>
  <anchor x="634" y="1611" name="Anchor-0"/>
  <outline>
    <contour>
      <point x="1057" y="550" type="qcurve" smooth="yes"/>
      <point x="1057" y="529" type="line" smooth="yes"/>
      <point x="1057" y="371"/>
      <point x="958" y="123"/>
      <point x="770" y="-20"/>
      <point x="636" y="-20" type="qcurve" smooth="yes"/>
      <point x="530" y="-20"/>
      <point x="373" y="55"/>
      <point x="320" y="125" type="qcurve"/>
      <point x="310" y="0" type="line"/>
      <point x="140" y="0" type="line"/>
      <point x="140" y="1536" type="line"/>
      <point x="326" y="1536" type="line"/>
      <point x="326" y="965" type="line"/>
      <point x="379" y="1031"/>
      <point x="532" y="1102"/>
      <point x="634" y="1102" type="qcurve" smooth="yes"/>
      <point x="770" y="1102"/>
      <point x="959" y="964"/>
      <point x="1057" y="715"/>
    </contour>
    <contour>
      <point x="871" y="529" type="qcurve" smooth="yes"/>
      <point x="871" y="550" type="line" smooth="yes"/>
      <point x="871" y="658"/>
      <point x="817" y="838"/>
      <point x="693" y="946"/>
      <point x="588" y="946" type="qcurve" smooth="yes"/>
      <point x="487" y="946"/>
      <point x="361" y="849"/>
      <point x="326" y="778" type="qcurve"/>
      <point x="326" y="307" type="line"/>
      <point x="362" y="235"/>
      <point x="490" y="137"/>
      <point x="590" y="137" type="qcurve" smooth="yes"/>
      <point x="690" y="137"/>
      <point x="814" y="243"/>
      <point x="871" y="422"/>
    </contour>
  </outline>
</glyph>
<glyph name="h" format="2">
  <advance width="1128"/>
  <unicode hex="0068"/>
  <anchor x="588" y="10" name="Anchor-1"/>
  <anchor x="501" y="1611" name="Anchor-0"/>
  <outline>
    <contour>
      <point x="326" y="1536" type="line"/>
      <point x="326" y="953" type="line"/>
      <point x="384" y="1023"/>
      <point x="546" y="1102"/>
      <point x="645" y="1102" type="qcurve" smooth="yes"/>
      <point x="805" y="1102"/>
      <point x="992" y="922"/>
      <point x="992" y="709" type="qcurve" smooth="yes"/>
      <point x="992" y="0" type="line"/>
      <point x="806" y="0" type="line"/>
      <point x="806" y="711" type="line" smooth="yes"/>
      <point x="806" y="838"/>
      <point x="695" y="946"/>
      <point x="590" y="946" type="qcurve" smooth="yes"/>
      <point x="501" y="946"/>
      <point x="365" y="850"/>
      <point x="326" y="773" type="qcurve"/>
      <point x="326" y="0" type="line"/>
      <point x="141" y="0" type="line"/>
      <point x="141" y="1536" type="line"/>
    </contour>
  </outline>
</glyph>
<glyph name="k" format="2">
  <advance width="1038"/>
  <unicode hex="006B"/>
  <anchor x="529" y="71" name="Anchor-1"/>
  <anchor x="549" y="1611" name="Anchor-0"/>
  <outline>
    <contour>
      <point x="819" y="0" type="line"/>
      <point x="444" y="502" type="line"/>
      <point x="327" y="381" type="line"/>
      <point x="327" y="0" type="line"/>
      <point x="141" y="0" type="line"/>
      <point x="141" y="1536" type="line"/>
      <point x="327" y="1536" type="line"/>
      <point x="327" y="608" type="line"/>
      <point x="426" y="726" type="line"/>
      <point x="762" y="1082" type="line"/>
      <point x="988" y="1082" type="line"/>
      <point x="566" y="631" type="line"/>
      <point x="1037" y="0" type="line"/>
    </contour>
  </outline>
</glyph>
<glyph name="n" format="2">
  <advance width="1131"/>
  <unicode hex="006E"/>
  <anchor x="563" y="10" name="Anchor-1"/>
  <anchor x="573" y="1290" name="Anchor-0"/>
  <outline>
    <contour>
      <point x="590" y="946" type="qcurve" smooth="yes"/>
      <point x="501" y="946"/>
      <point x="365" y="850"/>
      <point x="326" y="773" type="qcurve"/>
      <point x="326" y="0" type="line"/>
      <point x="141" y="0" type="line"/>
      <point x="141" y="1082" type="line"/>
      <point x="316" y="1082" type="line"/>
      <point x="322" y="947" type="line"/>
      <point x="380" y="1020"/>
      <point x="544" y="1102"/>
      <point x="645" y="1102" type="qcurve" smooth="yes"/>
      <point x="805" y="1102"/>
      <point x="992" y="922"/>
      <point x="992" y="709" type="qcurve" smooth="yes"/>
      <point x="992" y="0" type="line"/>
      <point x="806" y="0" type="line"/>
      <point x="806" y="711" type="line" smooth="yes"/>
      <point x="806" y="838"/>
      <point x="695" y="946"/>
    </contour>
  </outline>
</glyph>
<glyph name="o" format="2">
  <advance width="1168"/>
  <unicode hex="006F"/>
  <anchor x="584" y="-1" name="Anchor-1"/>
  <anchor x="575" y="1290" name="Anchor-0"/>
  <outline>
    <contour>
      <point x="92" y="529" type="qcurve" smooth="yes"/>
      <point x="92" y="552" type="line" smooth="yes"/>
      <point x="92" y="709"/>
      <point x="212" y="957"/>
      <point x="432" y="1102"/>
      <point x="583" y="1102" type="qcurve" smooth="yes"/>
      <point x="736" y="1102"/>
      <point x="957" y="957"/>
      <point x="1077" y="709"/>
      <point x="1077" y="552" type="qcurve" smooth="yes"/>
      <point x="1077" y="529" type="line" smooth="yes"/>
      <point x="1077" y="373"/>
      <point x="957" y="124"/>
      <point x="737" y="-20"/>
      <point x="585" y="-20" type="qcurve" smooth="yes"/>
      <point x="433" y="-20"/>
      <point x="212" y="124"/>
      <point x="92" y="373"/>
    </contour>
    <contour>
      <point x="277" y="552" type="qcurve" smooth="yes"/>
      <point x="277" y="529" type="line" smooth="yes"/>
      <point x="277" y="422"/>
      <point x="345" y="241"/>
      <point x="482" y="132"/>
      <point x="585" y="132" type="qcurve" smooth="yes"/>
      <point x="687" y="132"/>
      <point x="823" y="241"/>
      <point x="891" y="422"/>
      <point x="891" y="529" type="qcurve" smooth="yes"/>
      <point x="891" y="552" type="line" smooth="yes"/>
      <point x="891" y="658"/>
      <point x="822" y="839"/>
      <point x="686" y="950"/>
      <point x="583" y="950" type="qcurve" smooth="yes"/>
      <point x="481" y="950"/>
      <point x="345" y="839"/>
      <point x="277" y="658"/>
    </contour>
  </outline>
</glyph>
<glyph name="s" format="2">
  <advance width="1057"/>
  <unicode hex="0073"/>
  <anchor x="562" y="-10" name="Anchor-1"/>
  <anchor x="562" y="1290" name="Anchor-0"/>
  <outline>
    <contour>
      <point x="771" y="287" type="qcurve" smooth="yes"/>
      <point x="771" y="327"/>
      <point x="736" y="396"/>
      <point x="629" y="453"/>
      <point x="522" y="474" type="qcurve" smooth="yes"/>
      <point x="341" y="512"/>
      <point x="132" y="653"/>
      <point x="132" y="786" type="qcurve" smooth="yes"/>
      <point x="132" y="872"/>
      <point x="231" y="1015"/>
      <point x="412" y="1102"/>
      <point x="533" y="1102" type="qcurve" smooth="yes"/>
      <point x="663" y="1102"/>
      <point x="847" y="1010"/>
      <point x="945" y="857"/>
      <point x="945" y="764" type="qcurve"/>
      <point x="760" y="764" type="line"/>
      <point x="760" y="831"/>
      <point x="643" y="950"/>
      <point x="533" y="950" type="qcurve" smooth="yes"/>
      <point x="418" y="950"/>
      <point x="318" y="850"/>
      <point x="318" y="791" type="qcurve" smooth="yes"/>
      <point x="318" y="751"/>
      <point x="358" y="693"/>
      <point x="465" y="647"/>
      <point x="567" y="624" type="qcurve" smooth="yes"/>
      <point x="767" y="578"/>
      <point x="956" y="432"/>
      <point x="956" y="301" type="qcurve" smooth="yes"/>
      <point x="956" y="159"/>
      <point x="727" y="-20"/>
      <point x="538" y="-20" type="qcurve" smooth="yes"/>
      <point x="395" y="-20"/>
      <point x="197" y="82"/>
      <point x="95" y="244"/>
      <point x="95" y="334" type="qcurve"/>
      <point x="281" y="334" type="line"/>
      <point x="285" y="258"/>
      <point x="365" y="169"/>
      <point x="481" y="132"/>
      <point x="538" y="132" type="qcurve" smooth="yes"/>
      <point x="651" y="132"/>
      <point x="771" y="220"/>
    </contour>
  </outline>
</glyph>
<glyph name="u" format="2">
  <advance width="1129"/>
  <unicode hex="0075"/>
  <anchor x="563" y="0" name="Anchor-1"/>
  <anchor x="567" y="1290" name="Anchor-0"/>
  <outline>
    <contour>
      <point x="812" y="0" type="line"/>
      <point x="808" y="107" type="line"/>
      <point x="758" y="47"/>
      <point x="602" y="-20"/>
      <point x="492" y="-20" type="qcurve" smooth="yes"/>
      <point x="333" y="-20"/>
      <point x="137" y="168"/>
      <point x="137" y="384" type="qcurve" smooth="yes"/>
      <point x="137" y="1082" type="line"/>
      <point x="322" y="1082" type="line"/>
      <point x="322" y="382" type="line" smooth="yes"/>
      <point x="322" y="285"/>
      <point x="379" y="178"/>
      <point x="471" y="137"/>
      <point x="521" y="137" type="qcurve" smooth="yes"/>
      <point x="634" y="137"/>
      <point x="770" y="223"/>
      <point x="803" y="294" type="qcurve"/>
      <point x="803" y="1082" type="line"/>
      <point x="989" y="1082" type="line"/>
      <point x="989" y="0" type="line"/>
    </contour>
  </outline>
</glyph>
<glyph name="v" format="2">
  <advance width="992"/>
  <unicode hex="0076"/>
  <anchor x="504" y="10" name="Anchor-1"/>
  <anchor x="505" y="1280" name="Anchor-0"/>
  <outline>
    <contour>
      <point x="223" y="1082" type="line"/>
      <point x="498" y="253" type="line"/>
      <point x="766" y="1082" type="line"/>
      <point x="955" y="1082" type="line"/>
      <point x="566" y="0" type="line"/>
      <point x="425" y="0" type="line"/>
      <point x="33" y="1082" type="line"/>
    </contour>
  </outline>
</glyph>
<glyph name="asciitilde" format="2">
  <advance width="1393"/>
  <unicode hex="007E"/>
  <outline>
    <contour>
      <point x="1111" y="777" type="qcurve"/>
      <point x="1263" y="778" type="line"/>
      <point x="1263" y="675"/>
      <point x="1180" y="505"/>
      <point x="1034" y="403"/>
      <point x="939" y="403" type="qcurve" smooth="yes"/>
      <point x="852" y="403"/>
      <point x="719" y="473"/>
      <point x="641" y="541" type="qcurve" smooth="yes"/>
      <point x="590" y="588"/>
      <point x="504" y="640"/>
      <point x="454" y="640" type="qcurve" smooth="yes"/>
      <point x="378" y="640"/>
      <point x="292" y="532"/>
      <point x="292" y="438" type="qcurve"/>
      <point x="131" y="436" type="line"/>
      <point x="131" y="541"/>
      <point x="213" y="707"/>
      <point x="359" y="803"/>
      <point x="454" y="803" type="qcurve" smooth="yes"/>
      <point x="542" y="803"/>
      <point x="679" y="729"/>
      <point x="752" y="664" type="qcurve" smooth="yes"/>
      <point x="807" y="614"/>
      <point x="890" y="565"/>
      <point x="939" y="565" type="qcurve" smooth="yes"/>
      <point x="1016" y="565"/>
      <point x="1111" y="683"/>
    </contour>
  </outline>
</glyph>
<glyph name="dieresis" format="2">
  <advance width="857"/>
  <unicode hex="00A8"/>
  <outline>
    <contour>
      <point x="101" y="1371" type="qcurve" smooth="yes"/>
      <point x="101" y="1416"/>
      <point x="157" y="1478"/>
      <point x="210" y="1478" type="qcurve" smooth="yes"/>
      <point x="264" y="1478"/>
      <point x="320" y="1416"/>
      <point x="320" y="1371" type="qcurve" smooth="yes"/>
      <point x="320" y="1328"/>
      <point x="264" y="1267"/>
      <point x="210" y="1267" type="qcurve" smooth="yes"/>
      <point x="157" y="1267"/>
      <point x="101" y="1328"/>
    </contour>
    <contour>
      <point x="532" y="1369" type="qcurve" smooth="yes"/>
      <point x="532" y="1414"/>
      <point x="587" y="1476"/>
      <point x="641" y="1476" type="qcurve" smooth="yes"/>
      <point x="694" y="1476"/>
      <point x="751" y="1414"/>
      <point x="751" y="1369" type="qcurve" smooth="yes"/>
      <point x="751" y="1326"/>
      <point x="694" y="1265"/>
      <point x="641" y="1265" type="qcurve" smooth="yes"/>
      <point x="587" y="1265"/>
      <point x="532" y="1326"/>
    </contour>
  </outline>
</glyph>
<glyph name="copyright" format="2">
  <advance width="1609"/>
  <unicode hex="00A9"/>
  <outline>
    <contour>
      <point x="92" y="729" type="qcurve" smooth="yes"/>
      <point x="92" y="888"/>
      <point x="202" y="1160"/>
      <point x="398" y="1363"/>
      <point x="655" y="1476"/>
      <point x="802" y="1476" type="qcurve" smooth="yes"/>
      <point x="949" y="1476"/>
      <point x="1206" y="1363"/>
      <point x="1401" y="1160"/>
      <point x="1511" y="888"/>
      <point x="1511" y="729" type="qcurve" smooth="yes"/>
      <point x="1511" y="570"/>
      <point x="1401" y="298"/>
      <point x="1206" y="93"/>
      <point x="949" y="-21"/>
      <point x="802" y="-21" type="qcurve" smooth="yes"/>
      <point x="655" y="-21"/>
      <point x="398" y="93"/>
      <point x="202" y="298"/>
      <point x="92" y="570"/>
    </contour>
    <contour>
      <point x="207" y="729" type="qcurve" smooth="yes"/>
      <point x="207" y="596"/>
      <point x="299" y="366"/>
      <point x="463" y="194"/>
      <point x="679" y="98"/>
      <point x="802" y="98" type="qcurve" smooth="yes"/>
      <point x="925" y="98"/>
      <point x="1140" y="194"/>
      <point x="1303" y="366"/>
      <point x="1395" y="596"/>
      <point x="1395" y="729" type="qcurve" smooth="yes"/>
      <point x="1395" y="863"/>
      <point x="1303" y="1091"/>
      <point x="1140" y="1262"/>
      <point x="925" y="1357"/>
      <point x="802" y="1357" type="qcurve" smooth="yes"/>
      <point x="679" y="1357"/>
      <point x="463" y="1262"/>
      <point x="299" y="1091"/>
      <point x="207" y="863"/>
    </contour>
    <contour>
      <point x="974" y="598" type="qcurve"/>
      <point x="1120" y="598" type="line"/>
      <point x="1120" y="441"/>
      <point x="941" y="284"/>
      <point x="788" y="284" type="qcurve" smooth="yes"/>
      <point x="629" y="284"/>
      <point x="442" y="499"/>
      <point x="442" y="671" type="qcurve" smooth="yes"/>
      <point x="442" y="786" type="line" smooth="yes"/>
      <point x="442" y="958"/>
      <point x="629" y="1173"/>
      <point x="788" y="1173" type="qcurve" smooth="yes"/>
      <point x="941" y="1173"/>
      <point x="1121" y="1017"/>
      <point x="1121" y="860" type="qcurve"/>
      <point x="975" y="860" type="line"/>
      <point x="975" y="959"/>
      <point x="880" y="1045"/>
      <point x="788" y="1045" type="qcurve" smooth="yes"/>
      <point x="689" y="1045"/>
      <point x="586" y="900"/>
      <point x="586" y="787" type="qcurve" smooth="yes"/>
      <point x="586" y="671" type="line" smooth="yes"/>
      <point x="586" y="557"/>
      <point x="689" y="412"/>
      <point x="788" y="412" type="qcurve" smooth="yes"/>
      <point x="880" y="412"/>
      <point x="974" y="498"/>
    </contour>
  </outline>
</glyph>
<glyph name="ordfeminine" format="2">
  <advance width="916"/>
  <unicode hex="00AA"/>
  <outline>
    <contour>
      <point x="619" y="706" type="line"/>
      <point x="608" y="741"/>
      <point x="602" y="778" type="qcurve"/>
      <point x="570" y="744"/>
      <point x="468" y="692"/>
      <point x="396" y="692" type="qcurve" smooth="yes"/>
      <point x="276" y="692"/>
      <point x="147" y="815"/>
      <point x="147" y="918" type="qcurve" smooth="yes"/>
      <point x="147" y="1028"/>
      <point x="316" y="1149"/>
      <point x="486" y="1149" type="qcurve" smooth="yes"/>
      <point x="595" y="1149" type="line"/>
      <point x="595" y="1202" type="line" smooth="yes"/>
      <point x="595" y="1336"/>
      <point x="471" y="1336" type="qcurve" smooth="yes"/>
      <point x="402" y="1336"/>
      <point x="323" y="1283"/>
      <point x="323" y="1231" type="qcurve"/>
      <point x="162" y="1244" type="line"/>
      <point x="162" y="1345"/>
      <point x="331" y="1477"/>
      <point x="471" y="1477" type="qcurve" smooth="yes"/>
      <point x="600" y="1477"/>
      <point x="758" y="1338"/>
      <point x="758" y="1201" type="qcurve" smooth="yes"/>
      <point x="758" y="887" type="line" smooth="yes"/>
      <point x="758" y="838"/>
      <point x="770" y="750"/>
      <point x="784" y="706" type="qcurve"/>
    </contour>
    <contour>
      <point x="435" y="829" type="qcurve" smooth="yes"/>
      <point x="479" y="829"/>
      <point x="568" y="870"/>
      <point x="595" y="897" type="qcurve"/>
      <point x="595" y="1038" type="line"/>
      <point x="487" y="1038" type="line" smooth="yes"/>
      <point x="396" y="1038"/>
      <point x="310" y="969"/>
      <point x="310" y="922" type="qcurve" smooth="yes"/>
      <point x="310" y="829"/>
    </contour>
  </outline>
</glyph>
<glyph name="cedilla" format="2">
  <advance width="508"/>
  <unicode hex="00B8"/>
  <outline>
    <contour>
      <point x="152" y="0" type="line"/>
      <point x="285" y="0" type="line"/>
      <point x="273" y="-53" type="line"/>
      <point x="331" y="-63"/>
      <point x="426" y="-139"/>
      <point x="426" y="-226" type="qcurve" smooth="yes"/>
      <point x="426" y="-320"/>
      <point x="272" y="-435"/>
      <point x="123" y="-435" type="qcurve"/>
      <point x="116" y="-328" type="line"/>
      <point x="185" y="-328"/>
      <point x="282" y="-282"/>
      <point x="282" y="-229" type="qcurve" smooth="yes"/>
      <point x="282" y="-179"/>
      <point x="205" y="-142"/>
      <point x="121" y="-135" type="qcurve"/>
    </contour>
  </outline>
</glyph>
<glyph name="ordmasculine" format="2">
  <advance width="932"/>
  <unicode hex="00BA"/>
  <outline>
    <contour>
      <point x="123" y="1043" type="qcurve" smooth="yes"/>
      <point x="123" y="1124" type="line" smooth="yes"/>
      <point x="123" y="1279"/>
      <point x="308" y="1477"/>
      <point x="465" y="1477" type="qcurve" smooth="yes"/>
      <point x="624" y="1477"/>
      <point x="807" y="1279"/>
      <point x="807" y="1124" type="qcurve" smooth="yes"/>
      <point x="807" y="1043" type="line" smooth="yes"/>
      <point x="807" y="889"/>
      <point x="625" y="691"/>
      <point x="467" y="691" type="qcurve" smooth="yes"/>
      <point x="308" y="691"/>
      <point x="123" y="889"/>
    </contour>
    <contour>
      <point x="286" y="1124" type="qcurve" smooth="yes"/>
      <point x="286" y="1043" type="line" smooth="yes"/>
      <point x="286" y="952"/>
      <point x="375" y="830"/>
      <point x="467" y="830" type="qcurve" smooth="yes"/>
      <point x="556" y="830"/>
      <point x="645" y="952"/>
      <point x="645" y="1043" type="qcurve" smooth="yes"/>
      <point x="645" y="1124" type="line" smooth="yes"/>
      <point x="645" y="1213"/>
      <point x="556" y="1336"/>
      <point x="465" y="1336" type="qcurve" smooth="yes"/>
      <point x="374" y="1336"/>
      <point x="286" y="1213"/>
    </contour>
  </outline>
</glyph>
<glyph name="AE" format="2">
  <advance width="1914"/>
  <unicode hex="00C6"/>
  <anchor x="939" y="1612" name="Anchor-0"/>
  <outline>
    <contour>
      <point x="1880" y="152" type="line"/>
      <point x="1880" y="0" type="line"/>
      <point x="996" y="0" type="line"/>
      <point x="981" y="353" type="line"/>
      <point x="417" y="353" type="line"/>
      <point x="212" y="0" type="line"/>
      <point x="-15" y="0" type="line"/>
      <point x="866" y="1456" type="line"/>
      <point x="1818" y="1456" type="line"/>
      <point x="1818" y="1304" type="line"/>
      <point x="1127" y="1304" type="line"/>
      <point x="1147" y="834" type="line"/>
      <point x="1737" y="834" type="line"/>
      <point x="1737" y="682" type="line"/>
      <point x="1153" y="682" type="line"/>
      <point x="1176" y="152" type="line"/>
    </contour>
    <contour>
      <point x="518" y="528" type="line"/>
      <point x="974" y="528" type="line"/>
      <point x="943" y="1261" type="line"/>
    </contour>
  </outline>
</glyph>
<glyph name="Oslash" format="2">
  <advance width="1409"/>
  <unicode hex="00D8"/>
  <anchor x="715" y="1674" name="Anchor-0"/>
  <outline>
    <contour>
      <point x="1290" y="774" type="qcurve" smooth="yes"/>
      <point x="1290" y="682" type="line" smooth="yes"/>
      <point x="1290" y="464"/>
      <point x="1145" y="149"/>
      <point x="883" y="-20"/>
      <point x="706" y="-20" type="qcurve" smooth="yes"/>
      <point x="536" y="-20"/>
      <point x="404" y="63" type="qcurve"/>
      <point x="307" y="-93" type="line"/>
      <point x="164" y="-93" type="line"/>
      <point x="309" y="139" type="line"/>
      <point x="219" y="230"/>
      <point x="119" y="505"/>
      <point x="119" y="682" type="qcurve" smooth="yes"/>
      <point x="119" y="774" type="line" smooth="yes"/>
      <point x="119" y="992"/>
      <point x="268" y="1307"/>
      <point x="532" y="1476"/>
      <point x="704" y="1476" type="qcurve" smooth="yes"/>
      <point x="919" y="1476"/>
      <point x="1066" y="1352" type="qcurve"/>
      <point x="1169" y="1516" type="line"/>
      <point x="1309" y="1516" type="line"/>
      <point x="1151" y="1262" type="line"/>
      <point x="1218" y="1172"/>
      <point x="1290" y="926"/>
    </contour>
    <contour>
      <point x="310" y="682" type="line" smooth="yes"/>
      <point x="310" y="558"/>
      <point x="361" y="365"/>
      <point x="407" y="297" type="qcurve"/>
      <point x="972" y="1201" type="line"/>
      <point x="872" y="1312"/>
      <point x="704" y="1312" type="qcurve" smooth="yes"/>
      <point x="525" y="1312"/>
      <point x="310" y="1036"/>
      <point x="310" y="776" type="qcurve" smooth="yes"/>
    </contour>
    <contour>
      <point x="1099" y="682" type="qcurve" smooth="yes"/>
      <point x="1099" y="776" type="line" smooth="yes"/>
      <point x="1099" y="963"/>
      <point x="1043" y="1089" type="qcurve"/>
      <point x="494" y="207" type="line"/>
      <point x="584" y="143"/>
      <point x="706" y="143" type="qcurve" smooth="yes"/>
      <point x="894" y="143"/>
      <point x="1099" y="420"/>
    </contour>
  </outline>
</glyph>
<glyph name="ae" format="2">
  <advance width="1730"/>
  <unicode hex="00E6"/>
  <anchor x="859" y="1291" name="Anchor-0"/>
  <outline>
    <contour>
      <point x="1263" y="-21" type="qcurve" smooth="yes"/>
      <point x="1129" y="-21"/>
      <point x="929" y="75"/>
      <point x="865" y="160" type="qcurve"/>
      <point x="814" y="93"/>
      <point x="601" y="-21"/>
      <point x="434" y="-21" type="qcurve" smooth="yes"/>
      <point x="262" y="-21"/>
      <point x="79" y="156"/>
      <point x="79" y="304" type="qcurve" smooth="yes"/>
      <point x="79" y="462"/>
      <point x="307" y="636"/>
      <point x="527" y="636" type="qcurve" smooth="yes"/>
      <point x="749" y="636" type="line"/>
      <point x="749" y="720" type="line" smooth="yes"/>
      <point x="749" y="827"/>
      <point x="639" y="950"/>
      <point x="535" y="950" type="qcurve" smooth="yes"/>
      <point x="423" y="950"/>
      <point x="291" y="837"/>
      <point x="291" y="760" type="qcurve"/>
      <point x="107" y="778" type="line"/>
      <point x="107" y="872"/>
      <point x="215" y="1018"/>
      <point x="408" y="1102"/>
      <point x="535" y="1102" type="qcurve" smooth="yes"/>
      <point x="651" y="1102"/>
      <point x="827" y="1019"/>
      <point x="876" y="936" type="qcurve"/>
      <point x="938" y="1015"/>
      <point x="1115" y="1103"/>
      <point x="1219" y="1102" type="qcurve" smooth="yes"/>
      <point x="1434" y="1102"/>
      <point x="1661" y="840"/>
      <point x="1661" y="616" type="qcurve" smooth="yes"/>
      <point x="1661" y="498" type="line"/>
      <point x="933" y="498" type="line"/>
      <point x="937" y="396"/>
      <point x="1008" y="229"/>
      <point x="1151" y="131"/>
      <point x="1263" y="131" type="qcurve" smooth="yes"/>
      <point x="1382" y="131"/>
      <point x="1528" y="204"/>
      <point x="1578" y="238" type="qcurve"/>
      <point x="1643" y="102" type="line"/>
      <point x="1621" y="85"/>
      <point x="1524" y="26"/>
      <point x="1370" y="-21"/>
    </contour>
    <contour>
      <point x="1219" y="950" type="qcurve" smooth="yes"/>
      <point x="1098" y="950"/>
      <point x="954" y="773"/>
      <point x="938" y="640" type="qcurve"/>
      <point x="1475" y="640" type="line"/>
      <point x="1475" y="671" type="line" smooth="yes"/>
      <point x="1475" y="747"/>
      <point x="1425" y="873"/>
      <point x="1313" y="950"/>
    </contour>
    <contour>
      <point x="470" y="130" type="qcurve" smooth="yes"/>
      <point x="546" y="130"/>
      <point x="703" y="209"/>
      <point x="749" y="258" type="qcurve"/>
      <point x="749" y="496" type="line"/>
      <point x="529" y="496" type="line" smooth="yes"/>
      <point x="398" y="496"/>
      <point x="264" y="378"/>
      <point x="264" y="300" type="qcurve" smooth="yes"/>
      <point x="264" y="229"/>
      <point x="365" y="130"/>
    </contour>
  </outline>
</glyph>
<glyph name="eth" format="2">
  <advance width="1201"/>
  <unicode hex="00F0"/>
  <outline>
    <contour>
      <point x="255" y="1421" type="qcurve"/>
      <point x="312" y="1581" type="line"/>
      <point x="551" y="1527"/>
      <point x="727" y="1388" type="qcurve"/>
      <point x="915" y="1516" type="line"/>
      <point x="988" y="1417" type="line"/>
      <point x="820" y="1303" type="line"/>
      <point x="938" y="1178"/>
      <point x="1070" y="840"/>
      <point x="1070" y="633" type="qcurve" smooth="yes"/>
      <point x="1070" y="535" type="line" smooth="yes"/>
      <point x="1070" y="371"/>
      <point x="949" y="120"/>
      <point x="738" y="-20"/>
      <point x="602" y="-20" type="qcurve" smooth="yes"/>
      <point x="462" y="-20"/>
      <point x="247" y="111"/>
      <point x="126" y="332"/>
      <point x="126" y="468" type="qcurve" smooth="yes"/>
      <point x="126" y="622"/>
      <point x="242" y="851"/>
      <point x="445" y="978"/>
      <point x="574" y="978" type="qcurve" smooth="yes"/>
      <point x="658" y="978"/>
      <point x="804" y="916"/>
      <point x="857" y="865" type="qcurve"/>
      <point x="832" y="969"/>
      <point x="735" y="1135"/>
      <point x="669" y="1200" type="qcurve"/>
      <point x="451" y="1051" type="line"/>
      <point x="378" y="1151" type="line"/>
      <point x="570" y="1281" type="line"/>
      <point x="500" y="1330"/>
      <point x="340" y="1399"/>
    </contour>
    <contour>
      <point x="312" y="468" type="qcurve" smooth="yes"/>
      <point x="312" y="386"/>
      <point x="380" y="231"/>
      <point x="512" y="132"/>
      <point x="606" y="132" type="qcurve" smooth="yes"/>
      <point x="692" y="132"/>
      <point x="817" y="238"/>
      <point x="884" y="420"/>
      <point x="884" y="535" type="qcurve" smooth="yes"/>
      <point x="884" y="635" type="line" smooth="yes"/>
      <point x="884" y="665"/>
      <point x="882" y="694" type="qcurve"/>
      <point x="854" y="745"/>
      <point x="722" y="826"/>
      <point x="618" y="826" type="qcurve" smooth="yes"/>
      <point x="472" y="826"/>
      <point x="312" y="633"/>
    </contour>
  </outline>
</glyph>
<glyph name="aogonek" format="2">
  <advance width="1114"/>
  <unicode hex="0105"/>
  <anchor x="502" y="0" name="Anchor-1"/>
  <anchor x="582" y="1290" name="Anchor-0"/>
  <outline>
    <contour>
      <point x="991" y="-390" type="line"/>
      <point x="966" y="-405"/>
      <point x="889" y="-434"/>
      <point x="830" y="-434" type="qcurve" smooth="yes"/>
      <point x="749" y="-434"/>
      <point x="638" y="-337"/>
      <point x="638" y="-243" type="qcurve" smooth="yes"/>
      <point x="638" y="-178"/>
      <point x="718" y="-48"/>
      <point x="806" y="8" type="qcurve"/>
      <point x="798" y="28"/>
      <point x="786" y="84"/>
      <point x="783" y="114" type="qcurve"/>
      <point x="731" y="59"/>
      <point x="575" y="-20"/>
      <point x="475" y="-20" type="qcurve" smooth="yes"/>
      <point x="365" y="-20"/>
      <point x="200" y="66"/>
      <point x="109" y="211"/>
      <point x="109" y="301" type="qcurve" smooth="yes"/>
      <point x="109" y="475"/>
      <point x="373" y="656"/>
      <point x="596" y="656" type="qcurve" smooth="yes"/>
      <point x="779" y="656" type="line"/>
      <point x="779" y="742" type="line" smooth="yes"/>
      <point x="779" y="838"/>
      <point x="664" y="953"/>
      <point x="551" y="953" type="qcurve" smooth="yes"/>
      <point x="446" y="953"/>
      <point x="317" y="850"/>
      <point x="317" y="782" type="qcurve"/>
      <point x="132" y="782" type="line"/>
      <point x="132" y="860"/>
      <point x="238" y="1007"/>
      <point x="431" y="1102"/>
      <point x="562" y="1102" type="qcurve" smooth="yes"/>
      <point x="738" y="1102"/>
      <point x="964" y="922"/>
      <point x="964" y="740" type="qcurve" smooth="yes"/>
      <point x="964" y="236" type="line" smooth="yes"/>
      <point x="964" y="182"/>
      <point x="983" y="60"/>
      <point x="1002" y="16" type="qcurve"/>
      <point x="1002" y="0" type="line"/>
      <point x="970" y="0" type="line"/>
      <point x="906" y="-48"/>
      <point x="799" y="-157"/>
      <point x="799" y="-222" type="qcurve" smooth="yes"/>
      <point x="799" y="-255"/>
      <point x="834" y="-295"/>
      <point x="877" y="-295" type="qcurve" smooth="yes"/>
      <point x="910" y="-295"/>
      <point x="962" y="-276"/>
      <point x="977" y="-268" type="qcurve"/>
    </contour>
    <contour>
      <point x="502" y="142" type="qcurve" smooth="yes"/>
      <point x="602" y="142"/>
      <point x="749" y="242"/>
      <point x="779" y="303" type="qcurve"/>
      <point x="779" y="526" type="line"/>
      <point x="626" y="526" type="line" smooth="yes"/>
      <point x="467" y="526"/>
      <point x="295" y="427"/>
      <point x="295" y="326" type="qcurve" smooth="yes"/>
      <point x="295" y="249"/>
      <point x="399" y="142"/>
    </contour>
  </outline>
</glyph>
<glyph name="Eogonek" format="2">
  <advance width="1164"/>
  <unicode hex="0118"/>
  <anchor x="619" y="10" name="Anchor-1"/>
  <anchor x="619" y="1612" name="Anchor-0"/>
  <outline>
    <contour>
      <point x="1094" y="157" type="line"/>
      <point x="1094" y="0" type="line"/>
      <point x="1022" y="0" type="line"/>
      <point x="958" y="-48"/>
      <point x="851" y="-157"/>
      <point x="851" y="-222" type="qcurve" smooth="yes"/>
      <point x="851" y="-255"/>
      <point x="886" y="-295"/>
      <point x="929" y="-295" type="qcurve" smooth="yes"/>
      <point x="962" y="-295"/>
      <point x="1014" y="-276"/>
      <point x="1029" y="-268" type="qcurve"/>
      <point x="1043" y="-390" type="line"/>
      <point x="1018" y="-405"/>
      <point x="941" y="-434"/>
      <point x="882" y="-434" type="qcurve" smooth="yes"/>
      <point x="801" y="-434"/>
      <point x="690" y="-337"/>
      <point x="690" y="-243" type="qcurve" smooth="yes"/>
      <point x="690" y="-180"/>
      <point x="764" y="-55"/>
      <point x="846" y="0" type="qcurve"/>
      <point x="169" y="0" type="line"/>
      <point x="169" y="1456" type="line"/>
      <point x="1084" y="1456" type="line"/>
      <point x="1084" y="1298" type="line"/>
      <point x="362" y="1298" type="line"/>
      <point x="362" y="830" type="line"/>
      <point x="992" y="830" type="line"/>
      <point x="992" y="673" type="line"/>
      <point x="362" y="673" type="line"/>
      <point x="362" y="157" type="line"/>
    </contour>
  </outline>
</glyph>
<glyph name="dotlessi" format="2">
  <advance width="507"/>
  <unicode hex="0131"/>
  <anchor x="249" y="10" name="Anchor-1"/>
  <anchor x="252" y="1288" name="Anchor-0"/>
  <outline>
    <contour>
      <point x="341" y="1082" type="line"/>
      <point x="341" y="0" type="line"/>
      <point x="156" y="0" type="line"/>
      <point x="156" y="1082" type="line"/>
    </contour>
  </outline>
</glyph>
<glyph name="kgreenlandic" format="2">
  <advance width="1140"/>
  <unicode hex="0138"/>
  <anchor x="590" y="10" name="Anchor-1"/>
  <anchor x="590" y="1290" name="Anchor-0"/>
  <outline>
    <contour>
      <point x="854" y="0" type="line"/>
      <point x="448" y="462" type="line"/>
      <point x="340" y="462" type="line"/>
      <point x="340" y="0" type="line"/>
      <point x="155" y="0" type="line"/>
      <point x="155" y="1082" type="line"/>
      <point x="340" y="1082" type="line"/>
      <point x="340" y="624" type="line"/>
      <point x="432" y="624" type="line"/>
      <point x="828" y="1082" type="line"/>
      <point x="1052" y="1082" type="line"/>
      <point x="600" y="558" type="line"/>
      <point x="1088" y="0" type="line"/>
    </contour>
  </outline>
</glyph>
<glyph name="oe" format="2">
  <advance width="1860"/>
  <unicode hex="0153"/>
  <anchor x="945" y="-1" name="Anchor-1"/>
  <anchor x="945" y="1290" name="Anchor-0"/>
  <outline>
    <contour>
      <point x="97" y="529" type="qcurve" smooth="yes"/>
      <point x="97" y="552" type="line" smooth="yes"/>
      <point x="97" y="709"/>
      <point x="213" y="957"/>
      <point x="429" y="1102"/>
      <point x="579" y="1102" type="qcurve" smooth="yes"/>
      <point x="715" y="1102"/>
      <point x="917" y="986"/>
      <point x="978" y="886" type="qcurve"/>
      <point x="1043" y="987"/>
      <point x="1240" y="1103"/>
      <point x="1351" y="1102" type="qcurve" smooth="yes"/>
      <point x="1500" y="1102"/>
      <point x="1696" y="979"/>
      <point x="1792" y="761"/>
      <point x="1792" y="620" type="qcurve" smooth="yes"/>
      <point x="1792" y="498" type="line"/>
      <point x="1075" y="498" type="line"/>
      <point x="1079" y="396"/>
      <point x="1149" y="229"/>
      <point x="1282" y="131"/>
      <point x="1379" y="131" type="qcurve" smooth="yes"/>
      <point x="1489" y="131"/>
      <point x="1638" y="194"/>
      <point x="1688" y="239" type="qcurve"/>
      <point x="1761" y="113" type="line"/>
      <point x="1712" y="65"/>
      <point x="1526" y="-21"/>
      <point x="1379" y="-21" type="qcurve" smooth="yes"/>
      <point x="1245" y="-21"/>
      <point x="1039" y="93"/>
      <point x="976" y="192" type="qcurve"/>
      <point x="915" y="94"/>
      <point x="715" y="-21"/>
      <point x="581" y="-21" type="qcurve" smooth="yes"/>
      <point x="430" y="-21"/>
      <point x="213" y="124"/>
      <point x="97" y="373"/>
    </contour>
    <contour>
      <point x="1351" y="950" type="qcurve" smooth="yes"/>
      <point x="1246" y="950"/>
      <point x="1101" y="779"/>
      <point x="1081" y="649" type="qcurve"/>
      <point x="1607" y="649" type="line"/>
      <point x="1607" y="675" type="line" smooth="yes"/>
      <point x="1607" y="748"/>
      <point x="1553" y="873"/>
      <point x="1440" y="950"/>
    </contour>
    <contour>
      <point x="283" y="552" type="qcurve" smooth="yes"/>
      <point x="283" y="529" type="line" smooth="yes"/>
      <point x="283" y="422"/>
      <point x="347" y="240"/>
      <point x="478" y="131"/>
      <point x="581" y="131" type="qcurve" smooth="yes"/>
      <point x="683" y="131"/>
      <point x="815" y="240"/>
      <point x="879" y="422"/>
      <point x="879" y="529" type="qcurve" smooth="yes"/>
      <point x="879" y="552" type="line" smooth="yes"/>
      <point x="879" y="658"/>
      <point x="815" y="839"/>
      <point x="682" y="950"/>
      <point x="579" y="950" type="qcurve" smooth="yes"/>
      <point x="478" y="950"/>
      <point x="346" y="839"/>
      <point x="283" y="658"/>
    </contour>
  </outline>
</glyph>
<glyph name="tbar" format="2">
  <advance width="670"/>
  <unicode hex="0167"/>
  <anchor x="453" y="0" name="Anchor-1"/>
  <anchor x="312" y="1481" name="Anchor-0"/>
  <outline>
    <contour>
      <point x="625" y="754" type="line"/>
      <point x="625" y="602" type="line"/>
      <point x="392" y="602" type="line"/>
      <point x="392" y="268" type="line" smooth="yes"/>
      <point x="392" y="185"/>
      <point x="465" y="139"/>
      <point x="511" y="139" type="qcurve" smooth="yes"/>
      <point x="534" y="139"/>
      <point x="585" y="148"/>
      <point x="598" y="151" type="qcurve"/>
      <point x="599" y="0" type="line"/>
      <point x="577" y="-7"/>
      <point x="506" y="-20"/>
      <point x="456" y="-20" type="qcurve" smooth="yes"/>
      <point x="388" y="-20"/>
      <point x="274" y="34"/>
      <point x="207" y="161"/>
      <point x="207" y="269" type="qcurve" smooth="yes"/>
      <point x="207" y="602" type="line"/>
      <point x="-12" y="602" type="line"/>
      <point x="-12" y="754" type="line"/>
      <point x="207" y="754" type="line"/>
      <point x="207" y="940" type="line"/>
      <point x="9" y="940" type="line"/>
      <point x="9" y="1082" type="line"/>
      <point x="207" y="1082" type="line"/>
      <point x="207" y="1345" type="line"/>
      <point x="392" y="1345" type="line"/>
      <point x="392" y="1082" type="line"/>
      <point x="594" y="1082" type="line"/>
      <point x="594" y="940" type="line"/>
      <point x="392" y="940" type="line"/>
      <point x="392" y="754" type="line"/>
    </contour>
  </outline>
</glyph>
<glyph name="uni0184" format="2">
  <advance width="1375"/>
  <unicode hex="0184"/>
  <outline>
    <contour>
      <point x="256" y="1456" type="qcurve"/>
      <point x="303" y="1456" type="line"/>
      <point x="302" y="967" type="line"/>
      <point x="256" y="967" type="line"/>
      <point x="256" y="967"/>
      <point x="208" y="1029"/>
      <point x="146" y="1111"/>
      <point x="98" y="1173"/>
      <point x="98" y="1173" type="qcurve"/>
      <point x="98" y="1173"/>
      <point x="98" y="1196"/>
      <point x="98" y="1226"/>
      <point x="98" y="1249"/>
      <point x="98" y="1249" type="qcurve"/>
      <point x="98" y="1249"/>
      <point x="146" y="1312"/>
      <point x="208" y="1393"/>
      <point x="256" y="1456"/>
    </contour>
    <contour>
      <point x="403" y="863" type="line"/>
      <point x="800" y="863" type="line" smooth="yes"/>
      <point x="960" y="863"/>
      <point x="1180" y="756"/>
      <point x="1294" y="564"/>
      <point x="1294" y="435" type="qcurve" smooth="yes"/>
      <point x="1294" y="339"/>
      <point x="1230" y="180"/>
      <point x="1104" y="63"/>
      <point x="920" y="0"/>
      <point x="800" y="0" type="qcurve" smooth="yes"/>
      <point x="256" y="0" type="line"/>
      <point x="256" y="1456" type="line"/>
      <point x="449" y="1456" type="line"/>
      <point x="449" y="157" type="line"/>
      <point x="800" y="157" type="line" smooth="yes"/>
      <point x="907" y="157"/>
      <point x="1040" y="236"/>
      <point x="1101" y="364"/>
      <point x="1101" y="437" type="qcurve" smooth="yes"/>
      <point x="1101" y="510"/>
      <point x="1040" y="632"/>
      <point x="907" y="705"/>
      <point x="800" y="705" type="qcurve" smooth="yes"/>
      <point x="403" y="705" type="line"/>
    </contour>
  </outline>
</glyph>
<glyph name="uni0185" format="2">
  <advance width="1262"/>
  <unicode hex="0185"/>
  <outline>
    <contour>
      <point x="255" y="1536" type="qcurve"/>
      <point x="301" y="1536" type="line"/>
      <point x="301" y="1047" type="line"/>
      <point x="255" y="1047" type="line"/>
      <point x="255" y="1047"/>
      <point x="207" y="1109"/>
      <point x="145" y="1191"/>
      <point x="97" y="1253"/>
      <point x="97" y="1253" type="qcurve"/>
      <point x="97" y="1329" type="line"/>
      <point x="97" y="1329"/>
      <point x="145" y="1392"/>
      <point x="207" y="1473"/>
      <point x="255" y="1536"/>
    </contour>
    <contour>
      <point x="255" y="1536" type="line"/>
      <point x="440" y="1536" type="line"/>
      <point x="440" y="210" type="line"/>
      <point x="425" y="0" type="line"/>
      <point x="255" y="0" type="line"/>
    </contour>
    <contour>
      <point x="1171" y="550" type="qcurve" smooth="yes"/>
      <point x="1171" y="529" type="line" smooth="yes"/>
      <point x="1171" y="411"/>
      <point x="1115" y="210"/>
      <point x="1008" y="62"/>
      <point x="852" y="-20"/>
      <point x="751" y="-20" type="qcurve" smooth="yes"/>
      <point x="648" y="-20"/>
      <point x="493" y="51"/>
      <point x="386" y="185"/>
      <point x="323" y="375"/>
      <point x="312" y="494" type="qcurve"/>
      <point x="312" y="586" type="line"/>
      <point x="324" y="706"/>
      <point x="387" y="896"/>
      <point x="493" y="1031"/>
      <point x="647" y="1102"/>
      <point x="749" y="1102" type="qcurve" smooth="yes"/>
      <point x="851" y="1102"/>
      <point x="1008" y="1023"/>
      <point x="1116" y="877"/>
      <point x="1171" y="674"/>
    </contour>
    <contour>
      <point x="986" y="529" type="qcurve" smooth="yes"/>
      <point x="986" y="550" type="line" smooth="yes"/>
      <point x="986" y="631"/>
      <point x="956" y="774"/>
      <point x="890" y="883"/>
      <point x="781" y="946"/>
      <point x="703" y="946" type="qcurve" smooth="yes"/>
      <point x="633" y="946"/>
      <point x="530" y="898"/>
      <point x="458" y="817"/>
      <point x="413" y="714"/>
      <point x="402" y="659" type="qcurve"/>
      <point x="402" y="418" type="line"/>
      <point x="414" y="365"/>
      <point x="460" y="265"/>
      <point x="533" y="184"/>
      <point x="636" y="137"/>
      <point x="705" y="137" type="qcurve" smooth="yes"/>
      <point x="780" y="137"/>
      <point x="886" y="198"/>
      <point x="954" y="306"/>
      <point x="986" y="448"/>
    </contour>
  </outline>
</glyph>
<glyph name="florin" format="2">
  <advance width="698"/>
  <unicode hex="0192"/>
  <outline>
    <contour>
      <point x="608" y="1082" type="line"/>
      <point x="608" y="940" type="line"/>
      <point x="405" y="940" type="line"/>
      <point x="405" y="-89" type="line" smooth="yes"/>
      <point x="405" y="-258"/>
      <point x="235" y="-437"/>
      <point x="83" y="-437" type="qcurve" smooth="yes"/>
      <point x="52" y="-437"/>
      <point x="0" y="-430"/>
      <point x="-29" y="-420" type="qcurve"/>
      <point x="-15" y="-272" type="line"/>
      <point x="0" y="-278"/>
      <point x="69" y="-285"/>
      <point x="83" y="-285" type="qcurve" smooth="yes"/>
      <point x="148" y="-285"/>
      <point x="220" y="-181"/>
      <point x="220" y="-89" type="qcurve" smooth="yes"/>
      <point x="220" y="940" type="line"/>
      <point x="49" y="940" type="line"/>
      <point x="49" y="1082" type="line"/>
      <point x="220" y="1082" type="line"/>
      <point x="220" y="1196" type="line" smooth="yes"/>
      <point x="220" y="1371"/>
      <point x="400" y="1557"/>
      <point x="558" y="1557" type="qcurve" smooth="yes"/>
      <point x="594" y="1557"/>
      <point x="665" y="1545"/>
      <point x="701" y="1536" type="qcurve"/>
      <point x="679" y="1390" type="line"/>
      <point x="637" y="1400"/>
      <point x="580" y="1400" type="qcurve" smooth="yes"/>
      <point x="492" y="1400"/>
      <point x="405" y="1294"/>
      <point x="405" y="1196" type="qcurve" smooth="yes"/>
      <point x="405" y="1082" type="line"/>
    </contour>
  </outline>
</glyph>
<glyph name="uni0196" format="2">
  <advance width="663"/>
  <unicode hex="0196"/>
  <outline>
    <contour>
      <point x="346" y="1536" type="line"/>
      <point x="346" y="341" type="line" smooth="yes"/>
      <point x="346" y="276"/>
      <point x="388" y="182"/>
      <point x="469" y="132"/>
      <point x="528" y="132" type="qcurve" smooth="yes"/>
      <point x="557" y="132"/>
      <point x="602" y="139"/>
      <point x="619" y="143" type="qcurve"/>
      <point x="643" y="1" type="line"/>
      <point x="606" y="-8"/>
      <point x="536" y="-20"/>
      <point x="499" y="-20" type="qcurve" smooth="yes"/>
      <point x="394" y="-20"/>
      <point x="243" y="63"/>
      <point x="161" y="224"/>
      <point x="161" y="341" type="qcurve" smooth="yes"/>
      <point x="161" y="1536" type="line"/>
    </contour>
  </outline>
</glyph>
<glyph name="uni0198" format="2">
  <advance width="1285"/>
  <unicode hex="0198"/>
  <outline>
    <contour>
      <point x="362" y="1456" type="line"/>
      <point x="362" y="0" type="line"/>
      <point x="169" y="0" type="line"/>
      <point x="169" y="1456" type="line"/>
    </contour>
    <contour>
      <point x="1055" y="0" type="line"/>
      <point x="516" y="710" type="line"/>
      <point x="631" y="863" type="line"/>
      <point x="1285" y="0" type="line"/>
    </contour>
    <contour>
      <point x="814" y="1280" type="line" smooth="yes"/>
      <point x="860" y="1338"/>
      <point x="942" y="1426"/>
      <point x="1033" y="1476"/>
      <point x="1093" y="1476" type="qcurve" smooth="yes"/>
      <point x="1152" y="1476"/>
      <point x="1253" y="1431"/>
      <point x="1293" y="1397" type="qcurve"/>
      <point x="1225" y="1265" type="line"/>
      <point x="1204" y="1280"/>
      <point x="1150" y="1301"/>
      <point x="1112" y="1301" type="qcurve" smooth="yes"/>
      <point x="1083" y="1301"/>
      <point x="1038" y="1275"/>
      <point x="996" y="1227"/>
      <point x="969" y="1194" type="qcurve" smooth="yes"/>
      <point x="636" y="777" type="line"/>
      <point x="296" y="388" type="line"/>
      <point x="264" y="595" type="line"/>
      <point x="520" y="912" type="line"/>
    </contour>
  </outline>
</glyph>
<glyph name="Ohorn" format="2">
  <advance width="1407"/>
  <unicode hex="01A0"/>
  <anchor x="692" y="0" name="Anchor-1"/>
  <anchor x="703" y="1595" name="Anchor-0"/>
  <outline>
    <contour>
      <point x="1273" y="774" type="qcurve" smooth="yes"/>
      <point x="1273" y="682" type="line" smooth="yes"/>
      <point x="1273" y="464"/>
      <point x="1129" y="149"/>
      <point x="867" y="-20"/>
      <point x="689" y="-20" type="qcurve" smooth="yes"/>
      <point x="517" y="-20"/>
      <point x="252" y="149"/>
      <point x="102" y="464"/>
      <point x="102" y="682" type="qcurve" smooth="yes"/>
      <point x="102" y="774" type="line" smooth="yes"/>
      <point x="102" y="992"/>
      <point x="251" y="1307"/>
      <point x="515" y="1476"/>
      <point x="687" y="1476" type="qcurve" smooth="yes"/>
      <point x="928" y="1476"/>
      <point x="1082" y="1322" type="qcurve"/>
      <point x="1186" y="1330"/>
      <point x="1270" y="1471"/>
      <point x="1270" y="1592" type="qcurve"/>
      <point x="1437" y="1592" type="line"/>
      <point x="1437" y="1431"/>
      <point x="1306" y="1229"/>
      <point x="1175" y="1199" type="qcurve"/>
      <point x="1223" y="1114"/>
      <point x="1273" y="901"/>
    </contour>
    <contour>
      <point x="1082" y="682" type="qcurve" smooth="yes"/>
      <point x="1082" y="776" type="line" smooth="yes"/>
      <point x="1082" y="1036"/>
      <point x="874" y="1312"/>
      <point x="687" y="1312" type="qcurve" smooth="yes"/>
      <point x="509" y="1312"/>
      <point x="293" y="1036"/>
      <point x="293" y="776" type="qcurve" smooth="yes"/>
      <point x="293" y="682" type="line" smooth="yes"/>
      <point x="293" y="420"/>
      <point x="511" y="143"/>
      <point x="689" y="143" type="qcurve" smooth="yes"/>
      <point x="877" y="143"/>
      <point x="1082" y="420"/>
    </contour>
  </outline>
</glyph>
<glyph name="uni01A2" format="2">
  <advance width="1738"/>
  <unicode hex="01A2"/>
  <outline>
    <contour>
      <point x="1237" y="739" type="line"/>
      <point x="1237" y="193" type="line"/>
      <point x="1210" y="154"/>
      <point x="1095" y="54"/>
      <point x="890" y="-20"/>
      <point x="726" y="-20" type="qcurve" smooth="yes"/>
      <point x="594" y="-20"/>
      <point x="373" y="70"/>
      <point x="210" y="246"/>
      <point x="120" y="504"/>
      <point x="120" y="672" type="qcurve" smooth="yes"/>
      <point x="120" y="772" type="line"/>
      <point x="310" y="774" type="line"/>
      <point x="310" y="672" type="line" smooth="yes"/>
      <point x="310" y="552"/>
      <point x="364" y="355"/>
      <point x="471" y="214"/>
      <point x="630" y="137"/>
      <point x="734" y="137" type="qcurve" smooth="yes"/>
      <point x="836" y="137"/>
      <point x="962" y="173"/>
      <point x="1034" y="223"/>
      <point x="1054" y="245" type="qcurve"/>
      <point x="1054" y="739" type="line"/>
    </contour>
    <contour>
      <point x="1237" y="1263" type="qcurve"/>
      <point x="1237" y="699" type="line"/>
      <point x="1054" y="699" type="line"/>
      <point x="1054" y="1211" type="line"/>
      <point x="1034" y="1233"/>
      <point x="961" y="1283"/>
      <point x="832" y="1319"/>
      <point x="726" y="1319" type="qcurve" smooth="yes"/>
      <point x="632" y="1319"/>
      <point x="479" y="1247"/>
      <point x="369" y="1110"/>
      <point x="310" y="911"/>
      <point x="310" y="784" type="qcurve" smooth="yes"/>
      <point x="310" y="691" type="line"/>
      <point x="120" y="693" type="line"/>
      <point x="120" y="784" type="line" smooth="yes"/>
      <point x="120" y="947"/>
      <point x="209" y="1204"/>
      <point x="372" y="1383"/>
      <point x="594" y="1476"/>
      <point x="726" y="1476" type="qcurve" smooth="yes"/>
      <point x="890" y="1476"/>
      <point x="1095" y="1402"/>
      <point x="1210" y="1303"/>
    </contour>
    <contour>
      <point x="1566" y="1456" type="line"/>
      <point x="1566" y="-416" type="line"/>
      <point x="1380" y="-416" type="line"/>
      <point x="1380" y="1270" type="line"/>
      <point x="1151" y="1180" type="line"/>
      <point x="1151" y="1341" type="line"/>
      <point x="1421" y="1456" type="line"/>
    </contour>
  </outline>
</glyph>
<glyph name="uni01A5" format="2">
  <advance width="1150"/>
  <unicode hex="01A5"/>
  <outline>
    <contour>
      <point x="326" y="929" type="line"/>
      <point x="140" y="929" type="line"/>
      <point x="140" y="1074" type="line" smooth="yes"/>
      <point x="140" y="1147"/>
      <point x="187" y="1259"/>
      <point x="269" y="1336"/>
      <point x="378" y="1376"/>
      <point x="440" y="1376" type="qcurve" smooth="yes"/>
      <point x="463" y="1376"/>
      <point x="519" y="1367"/>
      <point x="541" y="1360" type="qcurve"/>
      <point x="539" y="1233" type="line"/>
      <point x="526" y="1237"/>
      <point x="493" y="1241"/>
      <point x="480" y="1241" type="qcurve" smooth="yes"/>
      <point x="431" y="1241"/>
      <point x="362" y="1208"/>
      <point x="326" y="1135"/>
      <point x="326" y="1074" type="qcurve" smooth="yes"/>
    </contour>
    <contour>
      <point x="326" y="874" type="line"/>
      <point x="326" y="-416" type="line"/>
      <point x="140" y="-416" type="line"/>
      <point x="140" y="1082" type="line"/>
      <point x="310" y="1082" type="line"/>
    </contour>
    <contour>
      <point x="1055" y="550" type="qcurve" smooth="yes"/>
      <point x="1055" y="529" type="line" smooth="yes"/>
      <point x="1055" y="411"/>
      <point x="999" y="210"/>
      <point x="892" y="62"/>
      <point x="736" y="-20"/>
      <point x="635" y="-20" type="qcurve" smooth="yes"/>
      <point x="532" y="-20"/>
      <point x="374" y="48"/>
      <point x="264" y="178"/>
      <point x="199" y="360"/>
      <point x="187" y="474" type="qcurve"/>
      <point x="187" y="586" type="line"/>
      <point x="199" y="706"/>
      <point x="265" y="896"/>
      <point x="374" y="1031"/>
      <point x="530" y="1102"/>
      <point x="632" y="1102" type="qcurve" smooth="yes"/>
      <point x="734" y="1102"/>
      <point x="892" y="1023"/>
      <point x="1000" y="877"/>
      <point x="1055" y="674"/>
    </contour>
    <contour>
      <point x="869" y="529" type="qcurve" smooth="yes"/>
      <point x="869" y="550" type="line" smooth="yes"/>
      <point x="869" y="631"/>
      <point x="835" y="774"/>
      <point x="764" y="883"/>
      <point x="654" y="946"/>
      <point x="578" y="946" type="qcurve" smooth="yes"/>
      <point x="508" y="946"/>
      <point x="405" y="898"/>
      <point x="333" y="817"/>
      <point x="288" y="714"/>
      <point x="277" y="659" type="qcurve"/>
      <point x="277" y="400" type="line"/>
      <point x="297" y="330"/>
      <point x="369" y="207"/>
      <point x="489" y="132"/>
      <point x="580" y="132" type="qcurve" smooth="yes"/>
      <point x="655" y="132"/>
      <point x="764" y="195"/>
      <point x="835" y="305"/>
      <point x="869" y="448"/>
    </contour>
  </outline>
</glyph>
<glyph name="uni01A6" format="2">
  <advance width="1404"/>
  <unicode hex="01A6"/>
  <outline>
    <contour>
      <point x="169" y="1360" type="line"/>
      <point x="169" y="1558" type="line"/>
      <point x="362" y="1558" type="line"/>
      <point x="362" y="1360" type="line"/>
    </contour>
    <contour>
      <point x="169" y="1456" type="line"/>
      <point x="651" y="1456" type="line" smooth="yes"/>
      <point x="815" y="1456"/>
      <point x="1042" y="1356"/>
      <point x="1161" y="1161"/>
      <point x="1161" y="1019" type="qcurve" smooth="yes"/>
      <point x="1161" y="919"/>
      <point x="1080" y="754"/>
      <point x="929" y="639"/>
      <point x="824" y="611" type="qcurve"/>
      <point x="770" y="590" type="line"/>
      <point x="317" y="590" type="line"/>
      <point x="315" y="747" type="line"/>
      <point x="657" y="747" type="line" smooth="yes"/>
      <point x="761" y="747"/>
      <point x="899" y="820"/>
      <point x="969" y="944"/>
      <point x="969" y="1019" type="qcurve" smooth="yes"/>
      <point x="969" y="1103"/>
      <point x="903" y="1229"/>
      <point x="762" y="1298"/>
      <point x="651" y="1298" type="qcurve" smooth="yes"/>
      <point x="362" y="1298" type="line"/>
      <point x="362" y="0" type="line"/>
      <point x="169" y="0" type="line"/>
    </contour>
    <contour>
      <point x="1217" y="-359" type="line"/>
      <point x="666" y="660" type="line"/>
      <point x="867" y="661" type="line"/>
      <point x="1423" y="-347" type="line"/>
      <point x="1423" y="-359" type="line"/>
    </contour>
  </outline>
</glyph>
<glyph name="uni01AD" format="2">
  <advance width="680"/>
  <unicode hex="01AD"/>
  <outline>
    <contour>
      <point x="406" y="1115" type="line"/>
      <point x="221" y="1115" type="line"/>
      <point x="221" y="1260" type="line" smooth="yes"/>
      <point x="221" y="1333"/>
      <point x="268" y="1445"/>
      <point x="350" y="1522"/>
      <point x="459" y="1562"/>
      <point x="521" y="1562" type="qcurve" smooth="yes"/>
      <point x="544" y="1562"/>
      <point x="600" y="1554"/>
      <point x="621" y="1546" type="qcurve"/>
      <point x="620" y="1419" type="line"/>
      <point x="607" y="1423"/>
      <point x="574" y="1427"/>
      <point x="561" y="1427" type="qcurve" smooth="yes"/>
      <point x="512" y="1427"/>
      <point x="443" y="1394"/>
      <point x="406" y="1321"/>
      <point x="406" y="1260" type="qcurve" smooth="yes"/>
    </contour>
    <contour>
      <point x="608" y="1082" type="line"/>
      <point x="608" y="940" type="line"/>
      <point x="24" y="940" type="line"/>
      <point x="24" y="1082" type="line"/>
    </contour>
    <contour>
      <point x="221" y="1142" type="line"/>
      <point x="406" y="1142" type="line"/>
      <point x="406" y="296" type="line" smooth="yes"/>
      <point x="406" y="233"/>
      <point x="440" y="165"/>
      <point x="495" y="139"/>
      <point x="525" y="139" type="qcurve" smooth="yes"/>
      <point x="548" y="139"/>
      <point x="600" y="148"/>
      <point x="613" y="151" type="qcurve"/>
      <point x="613" y="0" type="line"/>
      <point x="591" y="-7"/>
      <point x="521" y="-20"/>
      <point x="471" y="-20" type="qcurve" smooth="yes"/>
      <point x="420" y="-20"/>
      <point x="329" y="15"/>
      <point x="260" y="90"/>
      <point x="221" y="211"/>
      <point x="221" y="297" type="qcurve" smooth="yes"/>
    </contour>
  </outline>
</glyph>
<glyph name="uni01B7" format="2">
  <advance width="1319"/>
  <unicode hex="01B7"/>
  <outline>
    <contour>
      <point x="81" y="64" type="qcurve"/>
      <point x="274" y="64" type="line"/>
      <point x="291" y="-40"/>
      <point x="362" y="-185"/>
      <point x="506" y="-261"/>
      <point x="631" y="-261" type="qcurve" smooth="yes"/>
      <point x="729" y="-261"/>
      <point x="872" y="-209"/>
      <point x="964" y="-105"/>
      <point x="1008" y="54"/>
      <point x="1008" y="161" type="qcurve" smooth="yes"/>
      <point x="1008" y="278"/>
      <point x="958" y="441"/>
      <point x="859" y="542"/>
      <point x="711" y="589"/>
      <point x="613" y="589" type="qcurve" smooth="yes"/>
      <point x="410" y="589" type="line"/>
      <point x="410" y="740" type="line"/>
      <point x="613" y="740" type="line" smooth="yes"/>
      <point x="748" y="740"/>
      <point x="965" y="673"/>
      <point x="1119" y="533"/>
      <point x="1201" y="314"/>
      <point x="1201" y="161" type="qcurve" smooth="yes"/>
      <point x="1201" y="9"/>
      <point x="1119" y="-211"/>
      <point x="968" y="-351"/>
      <point x="759" y="-418"/>
      <point x="631" y="-418" type="qcurve" smooth="yes"/>
      <point x="456" y="-418"/>
      <point x="224" y="-291"/>
      <point x="97" y="-72"/>
    </contour>
    <contour>
      <point x="1123" y="1319" type="line"/>
      <point x="475" y="589" type="line"/>
      <point x="390" y="589" type="line"/>
      <point x="390" y="732" type="line"/>
      <point x="1036" y="1456" type="line"/>
      <point x="1123" y="1456" type="line"/>
    </contour>
    <contour>
      <point x="1042" y="1456" type="line"/>
      <point x="1042" y="1298" type="line"/>
      <point x="114" y="1298" type="line"/>
      <point x="114" y="1456" type="line"/>
    </contour>
  </outline>
</glyph>
<glyph name="uni01BA" format="2">
  <advance width="1092"/>
  <unicode hex="01BA"/>
  <outline>
    <contour>
      <point x="125" y="1082" type="line"/>
      <point x="982" y="1082" type="line"/>
      <point x="983" y="966" type="line"/>
      <point x="475" y="506" type="line"/>
      <point x="329" y="506" type="line"/>
      <point x="329" y="624" type="line"/>
      <point x="718" y="930" type="line"/>
      <point x="125" y="930" type="line"/>
    </contour>
    <contour>
      <point x="262" y="-130" type="qcurve" smooth="yes"/>
      <point x="262" y="-174"/>
      <point x="315" y="-245"/>
      <point x="419" y="-285"/>
      <point x="494" y="-285" type="qcurve" smooth="yes"/>
      <point x="552" y="-285"/>
      <point x="668" y="-248"/>
      <point x="748" y="-159"/>
      <point x="752" y="-83" type="qcurve"/>
      <point x="937" y="-83" type="line"/>
      <point x="937" y="-150"/>
      <point x="880" y="-277"/>
      <point x="767" y="-378"/>
      <point x="602" y="-437"/>
      <point x="494" y="-437" type="qcurve" smooth="yes"/>
      <point x="400" y="-437"/>
      <point x="246" y="-390"/>
      <point x="136" y="-305"/>
      <point x="77" y="-187"/>
      <point x="77" y="-116" type="qcurve" smooth="yes"/>
      <point x="77" y="-51"/>
      <point x="128" y="50"/>
      <point x="230" y="127"/>
      <point x="380" y="184"/>
      <point x="479" y="205" type="qcurve" smooth="yes"/>
      <point x="571" y="225"/>
      <point x="674" y="268"/>
      <point x="715" y="329"/>
      <point x="715" y="375" type="qcurve" smooth="yes"/>
      <point x="715" y="414"/>
      <point x="672" y="473"/>
      <point x="577" y="506"/>
      <point x="500" y="506" type="qcurve" smooth="yes"/>
      <point x="432" y="506" type="line"/>
      <point x="431" y="657" type="line"/>
      <point x="500" y="657" type="line" smooth="yes"/>
      <point x="622" y="657"/>
      <point x="801" y="584"/>
      <point x="900" y="455"/>
      <point x="900" y="369" type="qcurve" smooth="yes"/>
      <point x="900" y="298"/>
      <point x="845" y="196"/>
      <point x="742" y="123"/>
      <point x="597" y="72"/>
      <point x="507" y="52" type="qcurve" smooth="yes"/>
      <point x="406" y="30"/>
      <point x="300" y="-23"/>
      <point x="262" y="-89"/>
    </contour>
  </outline>
</glyph>
<glyph name="uni01BC" format="2">
  <advance width="1151"/>
  <unicode hex="01BC"/>
  <outline>
    <contour>
      <point x="379" y="1456" type="line"/>
      <point x="379" y="1285" type="line"/>
      <point x="64" y="1285" type="line"/>
      <point x="64" y="1456" type="line"/>
    </contour>
    <contour>
      <point x="355" y="693" type="qcurve"/>
      <point x="207" y="731" type="line"/>
      <point x="280" y="1456" type="line"/>
      <point x="1027" y="1456" type="line"/>
      <point x="1027" y="1285" type="line"/>
      <point x="437" y="1285" type="line"/>
      <point x="393" y="889" type="line"/>
      <point x="433" y="912"/>
      <point x="556" y="952"/>
      <point x="636" y="952" type="qcurve" smooth="yes"/>
      <point x="737" y="952"/>
      <point x="897" y="883"/>
      <point x="1010" y="755"/>
      <point x="1070" y="575"/>
      <point x="1070" y="464" type="qcurve" smooth="yes"/>
      <point x="1070" y="359"/>
      <point x="1013" y="183"/>
      <point x="899" y="52"/>
      <point x="726" y="-20"/>
      <point x="609" y="-20" type="qcurve" smooth="yes"/>
      <point x="521" y="-20"/>
      <point x="364" y="29"/>
      <point x="241" y="130"/>
      <point x="164" y="281"/>
      <point x="154" y="383" type="qcurve"/>
      <point x="330" y="383" type="line"/>
      <point x="342" y="301"/>
      <point x="414" y="189"/>
      <point x="531" y="132"/>
      <point x="609" y="132" type="qcurve" smooth="yes"/>
      <point x="675" y="132"/>
      <point x="777" y="178"/>
      <point x="847" y="264"/>
      <point x="884" y="386"/>
      <point x="884" y="462" type="qcurve" smooth="yes"/>
      <point x="884" y="531"/>
      <point x="846" y="649"/>
      <point x="771" y="737"/>
      <point x="663" y="786"/>
      <point x="593" y="786" type="qcurve" smooth="yes"/>
      <point x="500" y="786"/>
      <point x="405" y="736"/>
    </contour>
  </outline>
</glyph>
<glyph name="uni01BE" format="2">
  <advance width="1047"/>
  <unicode hex="01BE"/>
  <outline>
    <contour>
      <point x="767" y="287" type="qcurve" smooth="yes"/>
      <point x="767" y="337"/>
      <point x="714" y="405"/>
      <point x="630" y="458"/>
      <point x="537" y="514"/>
      <point x="453" y="590"/>
      <point x="400" y="702"/>
      <point x="400" y="786" type="qcurve" smooth="yes"/>
      <point x="400" y="1345" type="line"/>
      <point x="586" y="1345" type="line"/>
      <point x="586" y="791" type="line" smooth="yes"/>
      <point x="586" y="726"/>
      <point x="639" y="644"/>
      <point x="722" y="587"/>
      <point x="816" y="537"/>
      <point x="899" y="473"/>
      <point x="952" y="377"/>
      <point x="952" y="301" type="qcurve" smooth="yes"/>
      <point x="952" y="230"/>
      <point x="893" y="112"/>
      <point x="782" y="27"/>
      <point x="629" y="-20"/>
      <point x="534" y="-20" type="qcurve" smooth="yes"/>
      <point x="391" y="-20"/>
      <point x="193" y="82"/>
      <point x="92" y="244"/>
      <point x="92" y="334" type="qcurve"/>
      <point x="277" y="334" type="line"/>
      <point x="282" y="258"/>
      <point x="361" y="169"/>
      <point x="477" y="132"/>
      <point x="534" y="132" type="qcurve" smooth="yes"/>
      <point x="610" y="132"/>
      <point x="713" y="172"/>
      <point x="767" y="242"/>
    </contour>
    <contour>
      <point x="788" y="1082" type="line"/>
      <point x="788" y="940" type="line"/>
      <point x="203" y="940" type="line"/>
      <point x="203" y="1082" type="line"/>
    </contour>
  </outline>
</glyph>
<glyph name="uni01F7" format="2">
  <advance width="1353"/>
  <unicode hex="01F7"/>
  <outline>
    <contour>
      <point x="362" y="1456" type="line"/>
      <point x="362" y="-418" type="line"/>
      <point x="169" y="-418" type="line"/>
      <point x="169" y="1456" type="line"/>
    </contour>
    <contour>
      <point x="260" y="-170" type="qcurve"/>
      <point x="260" y="-12" type="line"/>
      <point x="457" y="19"/>
      <point x="750" y="185"/>
      <point x="945" y="420"/>
      <point x="1041" y="687"/>
      <point x="1041" y="818" type="qcurve" smooth="yes"/>
      <point x="1041" y="873" type="line" smooth="yes"/>
      <point x="1041" y="989"/>
      <point x="992" y="1157"/>
      <point x="893" y="1266"/>
      <point x="745" y="1318"/>
      <point x="646" y="1318" type="qcurve" smooth="yes"/>
      <point x="533" y="1318"/>
      <point x="391" y="1237"/>
      <point x="315" y="1088"/>
      <point x="300" y="985" type="qcurve"/>
      <point x="295" y="1347" type="line"/>
      <point x="354" y="1409"/>
      <point x="530" y="1476"/>
      <point x="646" y="1476" type="qcurve" smooth="yes"/>
      <point x="781" y="1476"/>
      <point x="998" y="1401"/>
      <point x="1151" y="1251"/>
      <point x="1232" y="1024"/>
      <point x="1232" y="871" type="qcurve" smooth="yes"/>
      <point x="1232" y="818" type="line" smooth="yes"/>
      <point x="1232" y="666"/>
      <point x="1136" y="389"/>
      <point x="961" y="153"/>
      <point x="719" y="-30"/>
      <point x="425" y="-149"/>
    </contour>
  </outline>
</glyph>
<glyph name="uni0222" format="2">
  <advance width="1367"/>
  <unicode hex="0222"/>
  <outline>
    <contour>
      <point x="672" y="878" type="qcurve" smooth="yes"/>
      <point x="695" y="878" type="line" smooth="yes"/>
      <point x="812" y="878"/>
      <point x="1013" y="821"/>
      <point x="1163" y="709"/>
      <point x="1247" y="543"/>
      <point x="1247" y="433" type="qcurve" smooth="yes"/>
      <point x="1247" y="281"/>
      <point x="1101" y="79"/>
      <point x="852" y="-21"/>
      <point x="695" y="-21" type="qcurve" smooth="yes"/>
      <point x="672" y="-21" type="line" smooth="yes"/>
      <point x="554" y="-21"/>
      <point x="353" y="35"/>
      <point x="203" y="148"/>
      <point x="120" y="317"/>
      <point x="120" y="431" type="qcurve" smooth="yes"/>
      <point x="120" y="579"/>
      <point x="265" y="777"/>
      <point x="515" y="878"/>
    </contour>
    <contour>
      <point x="695" y="729" type="qcurve" smooth="yes"/>
      <point x="672" y="729" type="line" smooth="yes"/>
      <point x="564" y="729"/>
      <point x="402" y="665"/>
      <point x="311" y="534"/>
      <point x="311" y="431" type="qcurve" smooth="yes"/>
      <point x="311" y="355"/>
      <point x="363" y="246"/>
      <point x="458" y="176"/>
      <point x="591" y="143"/>
      <point x="672" y="143" type="qcurve" smooth="yes"/>
      <point x="695" y="143" type="line" smooth="yes"/>
      <point x="802" y="143"/>
      <point x="965" y="203"/>
      <point x="1057" y="331"/>
      <point x="1057" y="433" type="qcurve" smooth="yes"/>
      <point x="1057" y="535"/>
      <point x="965" y="666"/>
      <point x="802" y="729"/>
    </contour>
    <contour>
      <point x="663" y="892" type="qcurve" smooth="yes"/>
      <point x="705" y="892" type="line" smooth="yes"/>
      <point x="776" y="892"/>
      <point x="903" y="912"/>
      <point x="1001" y="962"/>
      <point x="1057" y="1050"/>
      <point x="1057" y="1117" type="qcurve" smooth="yes"/>
      <point x="1057" y="1213"/>
      <point x="955" y="1306"/>
      <point x="856" y="1327" type="qcurve"/>
      <point x="856" y="1476" type="line"/>
      <point x="965" y="1471"/>
      <point x="1142" y="1392"/>
      <point x="1247" y="1237"/>
      <point x="1247" y="1117" type="qcurve" smooth="yes"/>
      <point x="1247" y="1013"/>
      <point x="1160" y="870"/>
      <point x="1009" y="783"/>
      <point x="814" y="744"/>
      <point x="705" y="744" type="qcurve" smooth="yes"/>
      <point x="663" y="744" type="line" smooth="yes"/>
      <point x="554" y="744"/>
      <point x="358" y="783"/>
      <point x="207" y="870"/>
      <point x="120" y="1013"/>
      <point x="120" y="1117" type="qcurve" smooth="yes"/>
      <point x="120" y="1237"/>
      <point x="225" y="1392"/>
      <point x="402" y="1471"/>
      <point x="511" y="1476" type="qcurve"/>
      <point x="511" y="1327" type="line"/>
      <point x="412" y="1306"/>
      <point x="311" y="1213"/>
      <point x="311" y="1117" type="qcurve" smooth="yes"/>
      <point x="311" y="1050"/>
      <point x="367" y="962"/>
      <point x="465" y="912"/>
      <point x="592" y="892"/>
    </contour>
  </outline>
</glyph>
<glyph name="uni0240" format="2">
  <advance width="1018"/>
  <unicode hex="0240"/>
  <outline>
    <contour>
      <point x="160" y="152" type="line"/>
      <point x="403" y="152" type="line" smooth="yes"/>
      <point x="488" y="152"/>
      <point x="609" y="88"/>
      <point x="696" y="-13"/>
      <point x="762" y="-125"/>
      <point x="819" y="-226"/>
      <point x="880" y="-290"/>
      <point x="920" y="-290" type="qcurve" smooth="yes"/>
      <point x="963" y="-290"/>
      <point x="1030" y="-252"/>
      <point x="1058" y="-227" type="qcurve"/>
      <point x="1122" y="-337" type="line"/>
      <point x="1088" y="-371"/>
      <point x="979" y="-437"/>
      <point x="911" y="-437" type="qcurve" smooth="yes"/>
      <point x="838" y="-437"/>
      <point x="739" y="-374"/>
      <point x="667" y="-274"/>
      <point x="602" y="-163"/>
      <point x="526" y="-63"/>
      <point x="418" y="0"/>
      <point x="338" y="0" type="qcurve" smooth="yes"/>
      <point x="160" y="0" type="line"/>
    </contour>
    <contour>
      <point x="918" y="951" type="line"/>
      <point x="202" y="0" type="line"/>
      <point x="89" y="0" type="line"/>
      <point x="89" y="136" type="line"/>
      <point x="800" y="1082" type="line"/>
      <point x="918" y="1082" type="line"/>
    </contour>
    <contour>
      <point x="836" y="1082" type="line"/>
      <point x="836" y="929" type="line"/>
      <point x="97" y="929" type="line"/>
      <point x="97" y="1082" type="line"/>
    </contour>
  </outline>
</glyph>
<glyph name="uni0241" format="2">
  <advance width="1103"/>
  <unicode hex="0241"/>
  <outline>
    <contour>
      <point x="456" y="449" type="line"/>
      <point x="499" y="449" type="line" smooth="yes"/>
      <point x="585" y="449"/>
      <point x="700" y="512"/>
      <point x="767" y="620"/>
      <point x="795" y="755"/>
      <point x="795" y="826" type="qcurve" smooth="yes"/>
      <point x="795" y="936" type="line" smooth="yes"/>
      <point x="795" y="1007"/>
      <point x="766" y="1141"/>
      <point x="699" y="1248"/>
      <point x="585" y="1312"/>
      <point x="499" y="1312" type="qcurve" smooth="yes"/>
      <point x="425" y="1312"/>
      <point x="314" y="1253"/>
      <point x="249" y="1145"/>
      <point x="244" y="1071" type="qcurve"/>
      <point x="63" y="1071" type="line"/>
      <point x="68" y="1189"/>
      <point x="180" y="1372"/>
      <point x="373" y="1476"/>
      <point x="499" y="1476" type="qcurve" smooth="yes"/>
      <point x="621" y="1476"/>
      <point x="804" y="1390"/>
      <point x="925" y="1240"/>
      <point x="986" y="1045"/>
      <point x="986" y="936" type="qcurve" smooth="yes"/>
      <point x="986" y="826" type="line" smooth="yes"/>
      <point x="986" y="717"/>
      <point x="925" y="522"/>
      <point x="804" y="372"/>
      <point x="621" y="286"/>
      <point x="499" y="286" type="qcurve" smooth="yes"/>
      <point x="456" y="286" type="line"/>
    </contour>
    <contour>
      <point x="602" y="449" type="line"/>
      <point x="602" y="0" type="line"/>
      <point x="410" y="0" type="line"/>
      <point x="410" y="449" type="line"/>
    </contour>
  </outline>
</glyph>
<glyph name="uni0242" format="2">
  <advance width="975"/>
  <unicode hex="0242"/>
  <outline>
    <contour>
      <point x="61" y="700" type="line"/>
      <point x="61" y="824"/>
      <point x="167" y="1004"/>
      <point x="349" y="1102"/>
      <point x="461" y="1102" type="qcurve" smooth="yes"/>
      <point x="596" y="1102"/>
      <point x="784" y="1007"/>
      <point x="882" y="823"/>
      <point x="882" y="688" type="qcurve" smooth="yes"/>
      <point x="882" y="588"/>
      <point x="803" y="423"/>
      <point x="626" y="325"/>
      <point x="479" y="325" type="qcurve" smooth="yes"/>
      <point x="435" y="325" type="line"/>
      <point x="435" y="445" type="line"/>
      <point x="475" y="445" type="line" smooth="yes"/>
      <point x="558" y="445"/>
      <point x="655" y="509"/>
      <point x="697" y="621"/>
      <point x="697" y="692" type="qcurve" smooth="yes"/>
      <point x="697" y="762"/>
      <point x="653" y="879"/>
      <point x="550" y="950"/>
      <point x="461" y="950" type="qcurve" smooth="yes"/>
      <point x="396" y="950"/>
      <point x="299" y="885"/>
      <point x="246" y="772"/>
      <point x="246" y="700" type="qcurve"/>
    </contour>
    <contour>
      <point x="389" y="445" type="line"/>
      <point x="575" y="445" type="line"/>
      <point x="575" y="0" type="line"/>
      <point x="389" y="0" type="line"/>
    </contour>
  </outline>
</glyph>
<glyph name="uni0247" format="2">
  <advance width="1086"/>
  <unicode hex="0247"/>
  <outline>
    <contour>
      <point x="973" y="1456" type="line"/>
      <point x="215" y="-416" type="line"/>
      <point x="83" y="-416" type="line"/>
      <point x="842" y="1456" type="line"/>
    </contour>
    <contour>
      <point x="590" y="-20" type="qcurve" smooth="yes"/>
      <point x="477" y="-20"/>
      <point x="294" y="57"/>
      <point x="163" y="197"/>
      <point x="93" y="389"/>
      <point x="93" y="503" type="qcurve" smooth="yes"/>
      <point x="93" y="545" type="line" smooth="yes"/>
      <point x="93" y="677"/>
      <point x="171" y="884"/>
      <point x="305" y="1028"/>
      <point x="475" y="1102"/>
      <point x="566" y="1102" type="qcurve" smooth="yes"/>
      <point x="682" y="1102"/>
      <point x="851" y="1022"/>
      <point x="959" y="879"/>
      <point x="1011" y="686"/>
      <point x="1011" y="572" type="qcurve" smooth="yes"/>
      <point x="1011" y="489" type="line"/>
      <point x="203" y="489" type="line"/>
      <point x="203" y="640" type="line"/>
      <point x="826" y="640" type="line"/>
      <point x="826" y="654" type="line" smooth="yes"/>
      <point x="826" y="708"/>
      <point x="798" y="813"/>
      <point x="736" y="899"/>
      <point x="637" y="950"/>
      <point x="566" y="950" type="qcurve" smooth="yes"/>
      <point x="503" y="950"/>
      <point x="397" y="897"/>
      <point x="321" y="793"/>
      <point x="279" y="643"/>
      <point x="279" y="545" type="qcurve" smooth="yes"/>
      <point x="279" y="503" type="line" smooth="yes"/>
      <point x="279" y="426"/>
      <point x="322" y="291"/>
      <point x="405" y="189"/>
      <point x="524" y="131"/>
      <point x="600" y="131" type="qcurve" smooth="yes"/>
      <point x="698" y="131"/>
      <point x="834" y="211"/>
      <point x="885" y="278" type="qcurve"/>
      <point x="997" y="189" type="line"/>
      <point x="962" y="136"/>
      <point x="854" y="40"/>
      <point x="697" y="-20"/>
    </contour>
  </outline>
</glyph>
<glyph name="uni024E" format="2">
  <advance width="1382"/>
  <unicode hex="024E"/>
  <anchor x="691" y="1600" name="Anchor-5"/>
  <anchor x="691" y="1" name="Anchor-2"/>
  <anchor x="1382" y="1600" name="Anchor-1"/>
  <anchor x="691" y="1600" name="Anchor-0"/>
  <outline>
    <contour>
      <point x="1351" y="1179" type="line"/>
      <point x="1351" y="1064" type="line"/>
      <point x="31" y="1064" type="line"/>
      <point x="31" y="1179" type="line"/>
    </contour>
    <contour>
      <point x="312" y="1456" type="line"/>
      <point x="690" y="725" type="line"/>
      <point x="1069" y="1456" type="line"/>
      <point x="1288" y="1456" type="line"/>
      <point x="786" y="544" type="line"/>
      <point x="786" y="0" type="line"/>
      <point x="594" y="0" type="line"/>
      <point x="594" y="544" type="line"/>
      <point x="91" y="1456" type="line"/>
    </contour>
  </outline>
</glyph>
<glyph name="uni0250" format="2">
  <advance width="1114"/>
  <unicode hex="0250"/>
  <anchor x="557" y="1290" name="Anchor-5"/>
  <anchor x="557" y="0" name="Anchor-2"/>
  <anchor x="1114" y="1290" name="Anchor-1"/>
  <anchor x="557" y="1290" name="Anchor-0"/>
  <outline>
    <contour>
      <point x="335" y="897" type="qcurve" smooth="yes"/>
      <point x="335" y="340" type="line" smooth="yes"/>
      <point x="335" y="276"/>
      <point x="387" y="181"/>
      <point x="489" y="129"/>
      <point x="564" y="129" type="qcurve" smooth="yes"/>
      <point x="634" y="129"/>
      <point x="738" y="177"/>
      <point x="797" y="255"/>
      <point x="797" y="300" type="qcurve"/>
      <point x="983" y="300" type="line"/>
      <point x="983" y="242"/>
      <point x="923" y="128"/>
      <point x="810" y="35"/>
      <point x="651" y="-20"/>
      <point x="553" y="-20" type="qcurve" smooth="yes"/>
      <point x="435" y="-20"/>
      <point x="253" y="60"/>
      <point x="150" y="221"/>
      <point x="150" y="342" type="qcurve" smooth="yes"/>
      <point x="150" y="846" type="line" smooth="yes"/>
      <point x="150" y="900"/>
      <point x="131" y="1023"/>
      <point x="112" y="1066" type="qcurve"/>
      <point x="112" y="1082" type="line"/>
      <point x="305" y="1082" type="line"/>
      <point x="320" y="1051"/>
      <point x="335" y="943"/>
    </contour>
    <contour>
      <point x="303" y="426" type="line"/>
      <point x="301" y="556" type="line"/>
      <point x="489" y="556" type="line" smooth="yes"/>
      <point x="568" y="556"/>
      <point x="691" y="581"/>
      <point x="776" y="631"/>
      <point x="820" y="706"/>
      <point x="820" y="756" type="qcurve" smooth="yes"/>
      <point x="820" y="808"/>
      <point x="773" y="891"/>
      <point x="681" y="940"/>
      <point x="613" y="940" type="qcurve" smooth="yes"/>
      <point x="528" y="940"/>
      <point x="397" y="868"/>
      <point x="321" y="764"/>
      <point x="317" y="715" type="qcurve"/>
      <point x="238" y="804" type="line"/>
      <point x="246" y="846"/>
      <point x="307" y="948"/>
      <point x="410" y="1041"/>
      <point x="552" y="1102"/>
      <point x="640" y="1102" type="qcurve" smooth="yes"/>
      <point x="751" y="1102"/>
      <point x="915" y="1016"/>
      <point x="1005" y="871"/>
      <point x="1005" y="781" type="qcurve" smooth="yes"/>
      <point x="1005" y="694"/>
      <point x="937" y="561"/>
      <point x="810" y="472"/>
      <point x="630" y="426"/>
      <point x="519" y="426" type="qcurve" smooth="yes"/>
    </contour>
  </outline>
</glyph>
<glyph name="uni025A" format="2">
  <advance width="1424"/>
  <unicode hex="025A"/>
  <anchor x="559" y="1290" name="Anchor-5"/>
  <anchor x="573" y="0" name="Anchor-2"/>
  <anchor x="1424" y="1290" name="Anchor-1"/>
  <anchor x="559" y="1290" name="Anchor-0"/>
  <outline>
    <contour>
      <point x="496" y="1102" type="qcurve" smooth="yes"/>
      <point x="609" y="1102"/>
      <point x="792" y="1025"/>
      <point x="923" y="884"/>
      <point x="993" y="693"/>
      <point x="993" y="579" type="qcurve" smooth="yes"/>
      <point x="993" y="536" type="line" smooth="yes"/>
      <point x="993" y="404"/>
      <point x="915" y="198"/>
      <point x="781" y="54"/>
      <point x="612" y="-20"/>
      <point x="520" y="-20" type="qcurve" smooth="yes"/>
      <point x="404" y="-20"/>
      <point x="235" y="60"/>
      <point x="127" y="203"/>
      <point x="75" y="396"/>
      <point x="75" y="510" type="qcurve" smooth="yes"/>
      <point x="75" y="575" type="line"/>
      <point x="835" y="724" type="line"/>
      <point x="835" y="569" type="line"/>
      <point x="260" y="457" type="line"/>
      <point x="260" y="428" type="line" smooth="yes"/>
      <point x="260" y="374"/>
      <point x="288" y="269"/>
      <point x="350" y="182"/>
      <point x="449" y="131"/>
      <point x="520" y="131" type="qcurve" smooth="yes"/>
      <point x="584" y="131"/>
      <point x="689" y="185"/>
      <point x="765" y="288"/>
      <point x="807" y="439"/>
      <point x="807" y="536" type="qcurve" smooth="yes"/>
      <point x="807" y="579" type="line" smooth="yes"/>
      <point x="807" y="656"/>
      <point x="764" y="791"/>
      <point x="681" y="893"/>
      <point x="562" y="951"/>
      <point x="486" y="951" type="qcurve" smooth="yes"/>
      <point x="389" y="951"/>
      <point x="252" y="871"/>
      <point x="201" y="804" type="qcurve"/>
      <point x="89" y="893" type="line"/>
      <point x="124" y="947"/>
      <point x="233" y="1042"/>
      <point x="389" y="1102"/>
    </contour>
    <contour>
      <point x="905" y="583" type="line"/>
      <point x="905" y="738" type="line"/>
      <point x="1159" y="788" type="line"/>
      <point x="1168" y="720"/>
      <point x="1190" y="612"/>
      <point x="1224" y="537"/>
      <point x="1277" y="497"/>
      <point x="1316" y="497" type="qcurve" smooth="yes"/>
      <point x="1340" y="497"/>
      <point x="1369" y="501"/>
      <point x="1380" y="502" type="qcurve"/>
      <point x="1404" y="387" type="line"/>
      <point x="1376" y="372"/>
      <point x="1311" y="355"/>
      <point x="1277" y="355" type="qcurve" smooth="yes"/>
      <point x="1217" y="355"/>
      <point x="1135" y="394"/>
      <point x="1081" y="463"/>
      <point x="1049" y="556"/>
      <point x="1038" y="610" type="qcurve"/>
    </contour>
  </outline>
</glyph>
<glyph name="uni0262" format="2">
  <advance width="1231"/>
  <unicode hex="0262"/>
  <anchor x="627" y="1290" name="Anchor-5"/>
  <anchor x="627" y="0" name="Anchor-2"/>
  <anchor x="1231" y="1290" name="Anchor-1"/>
  <anchor x="627" y="1290" name="Anchor-0"/>
  <outline>
    <contour>
      <point x="1114" y="548" type="line"/>
      <point x="1114" y="158" type="line"/>
      <point x="1090" y="124"/>
      <point x="964" y="40"/>
      <point x="765" y="-20"/>
      <point x="631" y="-20" type="qcurve" smooth="yes"/>
      <point x="478" y="-20"/>
      <point x="246" y="103"/>
      <point x="115" y="320"/>
      <point x="115" y="461" type="qcurve" smooth="yes"/>
      <point x="115" y="624" type="line" smooth="yes"/>
      <point x="115" y="766"/>
      <point x="247" y="981"/>
      <point x="478" y="1102"/>
      <point x="626" y="1102" type="qcurve" smooth="yes"/>
      <point x="854" y="1102"/>
      <point x="1075" y="895"/>
      <point x="1091" y="738" type="qcurve"/>
      <point x="906" y="738" type="line"/>
      <point x="893" y="843"/>
      <point x="757" y="952"/>
      <point x="626" y="952" type="qcurve" smooth="yes"/>
      <point x="530" y="952"/>
      <point x="383" y="866"/>
      <point x="300" y="718"/>
      <point x="300" y="625" type="qcurve" smooth="yes"/>
      <point x="300" y="461" type="line" smooth="yes"/>
      <point x="300" y="368"/>
      <point x="381" y="218"/>
      <point x="530" y="130"/>
      <point x="631" y="130" type="qcurve" smooth="yes"/>
      <point x="753" y="130"/>
      <point x="888" y="183"/>
      <point x="912" y="204" type="qcurve"/>
      <point x="912" y="397" type="line"/>
      <point x="648" y="397" type="line"/>
      <point x="648" y="548" type="line"/>
    </contour>
  </outline>
</glyph>
<glyph name="uni0264" format="2">
  <advance width="1300"/>
  <unicode hex="0264"/>
  <anchor x="653" y="1290" name="Anchor-5"/>
  <anchor x="653" y="0" name="Anchor-2"/>
  <anchor x="1300" y="1290" name="Anchor-1"/>
  <anchor x="653" y="1290" name="Anchor-0"/>
  <outline>
    <contour>
      <point x="147" y="834" type="qcurve"/>
      <point x="30" y="950" type="line"/>
      <point x="80" y="1009"/>
      <point x="206" y="1102"/>
      <point x="300" y="1102" type="qcurve" smooth="yes"/>
      <point x="355" y="1102"/>
      <point x="450" y="1053"/>
      <point x="533" y="967"/>
      <point x="611" y="852"/>
      <point x="687" y="719"/>
      <point x="727" y="648" type="qcurve" smooth="yes"/>
      <point x="778" y="557"/>
      <point x="863" y="405"/>
      <point x="913" y="276"/>
      <point x="913" y="218" type="qcurve" smooth="yes"/>
      <point x="913" y="144"/>
      <point x="852" y="37"/>
      <point x="735" y="-20"/>
      <point x="650" y="-20" type="qcurve"/>
      <point x="650" y="137" type="line"/>
      <point x="694" y="137"/>
      <point x="727" y="186"/>
      <point x="727" y="217" type="qcurve" smooth="yes"/>
      <point x="727" y="250"/>
      <point x="692" y="336"/>
      <point x="629" y="451"/>
      <point x="585" y="526" type="qcurve" smooth="yes"/>
      <point x="531" y="621"/>
      <point x="453" y="756"/>
      <point x="394" y="845"/>
      <point x="347" y="896"/>
      <point x="300" y="917"/>
      <point x="271" y="917" type="qcurve" smooth="yes"/>
      <point x="234" y="917"/>
      <point x="174" y="869"/>
    </contour>
    <contour>
      <point x="1270" y="950" type="qcurve"/>
      <point x="1153" y="834" type="line"/>
      <point x="1126" y="869"/>
      <point x="1066" y="917"/>
      <point x="1029" y="917" type="qcurve" smooth="yes"/>
      <point x="1000" y="917"/>
      <point x="953" y="896"/>
      <point x="905" y="845"/>
      <point x="847" y="756"/>
      <point x="769" y="621"/>
      <point x="715" y="526" type="qcurve" smooth="yes"/>
      <point x="672" y="450"/>
      <point x="608" y="336"/>
      <point x="573" y="250"/>
      <point x="573" y="217" type="qcurve" smooth="yes"/>
      <point x="573" y="186"/>
      <point x="607" y="137"/>
      <point x="650" y="137" type="qcurve"/>
      <point x="650" y="-20" type="line"/>
      <point x="565" y="-20"/>
      <point x="448" y="37"/>
      <point x="387" y="144"/>
      <point x="387" y="218" type="qcurve" smooth="yes"/>
      <point x="387" y="276"/>
      <point x="438" y="405"/>
      <point x="522" y="557"/>
      <point x="573" y="648" type="qcurve" smooth="yes"/>
      <point x="613" y="718"/>
      <point x="689" y="852"/>
      <point x="767" y="967"/>
      <point x="850" y="1053"/>
      <point x="945" y="1102"/>
      <point x="1000" y="1102" type="qcurve" smooth="yes"/>
      <point x="1095" y="1102"/>
      <point x="1220" y="1009"/>
    </contour>
  </outline>
</glyph>
<glyph name="uni0265" format="2">
  <advance width="1128"/>
  <unicode hex="0265"/>
  <anchor x="563" y="1290" name="Anchor-5"/>
  <anchor x="563" y="-447" name="Anchor-2"/>
  <anchor x="1128" y="1290" name="Anchor-1"/>
  <anchor x="563" y="1290" name="Anchor-0"/>
  <outline>
    <contour>
      <point x="802" y="-416" type="line"/>
      <point x="803" y="1082" type="line"/>
      <point x="988" y="1082" type="line"/>
      <point x="988" y="-416" type="line"/>
    </contour>
    <contour>
      <point x="847" y="500" type="qcurve"/>
      <point x="923" y="497" type="line"/>
      <point x="922" y="386"/>
      <point x="859" y="197"/>
      <point x="742" y="57"/>
      <point x="581" y="-20"/>
      <point x="483" y="-20" type="qcurve" smooth="yes"/>
      <point x="403" y="-20"/>
      <point x="275" y="24"/>
      <point x="184" y="117"/>
      <point x="137" y="267"/>
      <point x="137" y="373" type="qcurve" smooth="yes"/>
      <point x="137" y="1082" type="line"/>
      <point x="322" y="1082" type="line"/>
      <point x="322" y="371" type="line" smooth="yes"/>
      <point x="322" y="287"/>
      <point x="372" y="183"/>
      <point x="468" y="136"/>
      <point x="538" y="136" type="qcurve" smooth="yes"/>
      <point x="607" y="136"/>
      <point x="720" y="194"/>
      <point x="802" y="296"/>
      <point x="847" y="427"/>
    </contour>
  </outline>
</glyph>
<glyph name="uni026A" format="2">
  <advance width="687"/>
  <unicode hex="026A"/>
  <anchor x="341" y="1290" name="Anchor-5"/>
  <anchor x="341" y="0" name="Anchor-2"/>
  <anchor x="687" y="1290" name="Anchor-1"/>
  <anchor x="341" y="1290" name="Anchor-0"/>
  <outline>
    <contour>
      <point x="586" y="1082" type="line"/>
      <point x="586" y="930" type="line"/>
      <point x="101" y="930" type="line"/>
      <point x="101" y="1082" type="line"/>
    </contour>
    <contour>
      <point x="435" y="1082" type="line"/>
      <point x="435" y="0" type="line"/>
      <point x="250" y="0" type="line"/>
      <point x="250" y="1082" type="line"/>
    </contour>
    <contour>
      <point x="586" y="152" type="line"/>
      <point x="586" y="0" type="line"/>
      <point x="101" y="0" type="line"/>
      <point x="101" y="152" type="line"/>
    </contour>
  </outline>
</glyph>
<glyph name="uni026C" format="2">
  <advance width="888"/>
  <unicode hex="026C"/>
  <anchor x="548" y="1599" name="Anchor-5"/>
  <anchor x="548" y="0" name="Anchor-2"/>
  <anchor x="888" y="1599" name="Anchor-1"/>
  <anchor x="548" y="1599" name="Anchor-0"/>
  <outline>
    <contour>
      <point x="638" y="787" type="qcurve" smooth="yes"/>
      <point x="638" y="446" type="line"/>
      <point x="453" y="446" type="line"/>
      <point x="453" y="828" type="line" smooth="yes"/>
      <point x="453" y="863"/>
      <point x="426" y="917"/>
      <point x="370" y="949"/>
      <point x="325" y="949" type="qcurve" smooth="yes"/>
      <point x="275" y="949"/>
      <point x="216" y="885"/>
      <point x="216" y="838" type="qcurve" smooth="yes"/>
      <point x="216" y="791"/>
      <point x="279" y="727"/>
      <point x="333" y="727" type="qcurve" smooth="yes"/>
      <point x="866" y="727" type="line"/>
      <point x="866" y="575" type="line"/>
      <point x="311" y="575" type="line" smooth="yes"/>
      <point x="232" y="575"/>
      <point x="105" y="636"/>
      <point x="31" y="753"/>
      <point x="31" y="838" type="qcurve" smooth="yes"/>
      <point x="31" y="914"/>
      <point x="105" y="1033"/>
      <point x="238" y="1101"/>
      <point x="327" y="1101" type="qcurve" smooth="yes"/>
      <point x="442" y="1101"/>
      <point x="578" y="1012"/>
      <point x="638" y="869"/>
    </contour>
    <contour>
      <point x="638" y="1536" type="line"/>
      <point x="638" y="0" type="line"/>
      <point x="453" y="0" type="line"/>
      <point x="453" y="1536" type="line"/>
    </contour>
  </outline>
</glyph>
<glyph name="uni0271" format="2">
  <advance width="1796"/>
  <unicode hex="0271"/>
  <anchor x="909" y="1290" name="Anchor-5"/>
  <anchor x="909" y="-447" name="Anchor-2"/>
  <anchor x="1796" y="1290" name="Anchor-1"/>
  <anchor x="909" y="1290" name="Anchor-0"/>
  <outline>
    <contour>
      <point x="1471" y="322" type="line"/>
      <point x="1657" y="322" type="line"/>
      <point x="1657" y="-135" type="line" smooth="yes"/>
      <point x="1657" y="-208"/>
      <point x="1610" y="-321"/>
      <point x="1528" y="-398"/>
      <point x="1419" y="-437"/>
      <point x="1357" y="-437" type="qcurve" smooth="yes"/>
      <point x="1335" y="-437"/>
      <point x="1278" y="-429"/>
      <point x="1256" y="-422" type="qcurve"/>
      <point x="1258" y="-294" type="line"/>
      <point x="1271" y="-298"/>
      <point x="1304" y="-302"/>
      <point x="1317" y="-302" type="qcurve" smooth="yes"/>
      <point x="1366" y="-302"/>
      <point x="1435" y="-269"/>
      <point x="1471" y="-196"/>
      <point x="1471" y="-135" type="qcurve" smooth="yes"/>
    </contour>
    <contour>
      <point x="325" y="867" type="line"/>
      <point x="325" y="0" type="line"/>
      <point x="139" y="0" type="line"/>
      <point x="139" y="1082" type="line"/>
      <point x="315" y="1082" type="line"/>
    </contour>
    <contour>
      <point x="287" y="582" type="qcurve"/>
      <point x="201" y="585" type="line"/>
      <point x="202" y="696"/>
      <point x="258" y="885"/>
      <point x="368" y="1025"/>
      <point x="532" y="1102"/>
      <point x="640" y="1102" type="qcurve" smooth="yes"/>
      <point x="716" y="1102"/>
      <point x="844" y="1059"/>
      <point x="938" y="967"/>
      <point x="990" y="823"/>
      <point x="990" y="721" type="qcurve" smooth="yes"/>
      <point x="990" y="0" type="line"/>
      <point x="805" y="0" type="line"/>
      <point x="805" y="712" type="line" smooth="yes"/>
      <point x="805" y="797"/>
      <point x="748" y="899"/>
      <point x="644" y="946"/>
      <point x="574" y="946" type="qcurve" smooth="yes"/>
      <point x="492" y="946"/>
      <point x="382" y="888"/>
      <point x="316" y="786"/>
      <point x="287" y="655"/>
    </contour>
    <contour>
      <point x="988" y="684" type="qcurve"/>
      <point x="864" y="646" type="line"/>
      <point x="865" y="735"/>
      <point x="922" y="899"/>
      <point x="1031" y="1027"/>
      <point x="1191" y="1102"/>
      <point x="1294" y="1102" type="qcurve" smooth="yes"/>
      <point x="1381" y="1102"/>
      <point x="1516" y="1056"/>
      <point x="1609" y="961"/>
      <point x="1657" y="813"/>
      <point x="1657" y="711" type="qcurve" smooth="yes"/>
      <point x="1657" y="0" type="line"/>
      <point x="1471" y="0" type="line"/>
      <point x="1471" y="713" type="line" smooth="yes"/>
      <point x="1471" y="804"/>
      <point x="1414" y="905"/>
      <point x="1311" y="946"/>
      <point x="1240" y="946" type="qcurve" smooth="yes"/>
      <point x="1179" y="946"/>
      <point x="1085" y="904"/>
      <point x="1021" y="831"/>
      <point x="988" y="737"/>
    </contour>
  </outline>
</glyph>
<glyph name="uni0278" format="2">
  <advance width="1168"/>
  <unicode hex="0278"/>
  <anchor x="584" y="1600" name="Anchor-5"/>
  <anchor x="584" y="-447" name="Anchor-2"/>
  <anchor x="1168" y="1600" name="Anchor-1"/>
  <anchor x="584" y="1600" name="Anchor-0"/>
  <outline>
    <contour>
      <point x="92" y="529" type="qcurve" smooth="yes"/>
      <point x="92" y="552" type="line" smooth="yes"/>
      <point x="92" y="669"/>
      <point x="160" y="870"/>
      <point x="288" y="1019"/>
      <point x="470" y="1102"/>
      <point x="583" y="1102" type="qcurve" smooth="yes"/>
      <point x="697" y="1102"/>
      <point x="880" y="1019"/>
      <point x="1009" y="870"/>
      <point x="1077" y="669"/>
      <point x="1077" y="552" type="qcurve" smooth="yes"/>
      <point x="1077" y="529" type="line" smooth="yes"/>
      <point x="1077" y="412"/>
      <point x="1009" y="212"/>
      <point x="880" y="63"/>
      <point x="699" y="-20"/>
      <point x="585" y="-20" type="qcurve" smooth="yes"/>
      <point x="471" y="-20"/>
      <point x="289" y="63"/>
      <point x="160" y="212"/>
      <point x="92" y="412"/>
    </contour>
    <contour>
      <point x="277" y="552" type="qcurve" smooth="yes"/>
      <point x="277" y="529" type="line" smooth="yes"/>
      <point x="277" y="448"/>
      <point x="315" y="305"/>
      <point x="392" y="194"/>
      <point x="508" y="131"/>
      <point x="585" y="131" type="qcurve" smooth="yes"/>
      <point x="661" y="131"/>
      <point x="776" y="194"/>
      <point x="852" y="305"/>
      <point x="891" y="448"/>
      <point x="891" y="529" type="qcurve" smooth="yes"/>
      <point x="891" y="552" type="line" smooth="yes"/>
      <point x="891" y="632"/>
      <point x="852" y="775"/>
      <point x="775" y="886"/>
      <point x="660" y="950"/>
      <point x="583" y="950" type="qcurve" smooth="yes"/>
      <point x="507" y="950"/>
      <point x="392" y="886"/>
      <point x="315" y="775"/>
      <point x="277" y="632"/>
    </contour>
    <contour>
      <point x="491" y="-416" type="line"/>
      <point x="491" y="1536" type="line"/>
      <point x="676" y="1536" type="line"/>
      <point x="676" y="-416" type="line"/>
    </contour>
  </outline>
</glyph>
<glyph name="uni0281" format="2">
  <advance width="1121"/>
  <unicode hex="0281"/>
  <anchor x="576" y="1290" name="Anchor-5"/>
  <anchor x="576" y="0" name="Anchor-2"/>
  <anchor x="1121" y="1290" name="Anchor-1"/>
  <anchor x="576" y="1290" name="Anchor-0"/>
  <outline>
    <contour>
      <point x="720" y="566" type="line"/>
      <point x="520" y="566" type="line"/>
      <point x="833" y="1082" type="line"/>
      <point x="1033" y="1082" type="line"/>
    </contour>
    <contour>
      <point x="566" y="0" type="qcurve" smooth="yes"/>
      <point x="113" y="0" type="line"/>
      <point x="113" y="1082" type="line"/>
      <point x="299" y="1082" type="line"/>
      <point x="299" y="150" type="line"/>
      <point x="566" y="150" type="line" smooth="yes"/>
      <point x="645" y="150"/>
      <point x="744" y="204"/>
      <point x="790" y="287"/>
      <point x="790" y="332" type="qcurve" smooth="yes"/>
      <point x="790" y="376"/>
      <point x="749" y="457"/>
      <point x="660" y="509"/>
      <point x="588" y="509" type="qcurve" smooth="yes"/>
      <point x="248" y="509" type="line"/>
      <point x="248" y="661" type="line"/>
      <point x="588" y="661" type="line" smooth="yes"/>
      <point x="681" y="661"/>
      <point x="825" y="611"/>
      <point x="924" y="522"/>
      <point x="976" y="401"/>
      <point x="976" y="330" type="qcurve" smooth="yes"/>
      <point x="976" y="259"/>
      <point x="921" y="139"/>
      <point x="816" y="49"/>
      <point x="664" y="0"/>
    </contour>
  </outline>
</glyph>
<glyph name="uni0288" format="2">
  <advance width="677"/>
  <unicode hex="0288"/>
  <anchor x="303" y="1600" name="Anchor-5"/>
  <anchor x="400" y="-447" name="Anchor-2"/>
  <anchor x="677" y="1600" name="Anchor-1"/>
  <anchor x="303" y="1600" name="Anchor-0"/>
  <outline>
    <contour>
      <point x="594" y="1082" type="line"/>
      <point x="594" y="940" type="line"/>
      <point x="9" y="940" type="line"/>
      <point x="9" y="1082" type="line"/>
    </contour>
    <contour>
      <point x="207" y="1345" type="line"/>
      <point x="392" y="1345" type="line"/>
      <point x="392" y="-135" type="line" smooth="yes"/>
      <point x="392" y="-181"/>
      <point x="413" y="-245"/>
      <point x="452" y="-285"/>
      <point x="510" y="-304"/>
      <point x="546" y="-304" type="qcurve" smooth="yes"/>
      <point x="559" y="-304"/>
      <point x="594" y="-300"/>
      <point x="606" y="-297" type="qcurve"/>
      <point x="607" y="-424" type="line"/>
      <point x="587" y="-430"/>
      <point x="531" y="-437"/>
      <point x="507" y="-437" type="qcurve" smooth="yes"/>
      <point x="445" y="-437"/>
      <point x="336" y="-398"/>
      <point x="254" y="-321"/>
      <point x="207" y="-208"/>
      <point x="207" y="-135" type="qcurve" smooth="yes"/>
    </contour>
  </outline>
</glyph>
<glyph name="uni0289" format="2">
  <advance width="1295"/>
  <unicode hex="0289"/>
  <anchor x="639" y="1290" name="Anchor-5"/>
  <anchor x="639" y="0" name="Anchor-2"/>
  <anchor x="1295" y="1290" name="Anchor-1"/>
  <anchor x="639" y="1290" name="Anchor-0"/>
  <outline>
    <contour>
      <point x="1273" y="645" type="line"/>
      <point x="1273" y="493" type="line"/>
      <point x="22" y="493" type="line"/>
      <point x="22" y="645" type="line"/>
    </contour>
    <contour>
      <point x="888" y="250" type="line"/>
      <point x="888" y="1082" type="line"/>
      <point x="1073" y="1082" type="line"/>
      <point x="1073" y="0" type="line"/>
      <point x="897" y="0" type="line"/>
    </contour>
    <contour>
      <point x="922" y="478" type="qcurve"/>
      <point x="1000" y="480" type="line"/>
      <point x="1000" y="372"/>
      <point x="955" y="189"/>
      <point x="855" y="55"/>
      <point x="693" y="-20"/>
      <point x="576" y="-20" type="qcurve" smooth="yes"/>
      <point x="497" y="-20"/>
      <point x="366" y="26"/>
      <point x="272" y="122"/>
      <point x="221" y="276"/>
      <point x="221" y="384" type="qcurve" smooth="yes"/>
      <point x="221" y="1082" type="line"/>
      <point x="406" y="1082" type="line"/>
      <point x="406" y="382" type="line" smooth="yes"/>
      <point x="406" y="309"/>
      <point x="440" y="214"/>
      <point x="497" y="159"/>
      <point x="568" y="137"/>
      <point x="606" y="137" type="qcurve" smooth="yes"/>
      <point x="724" y="137"/>
      <point x="862" y="228"/>
      <point x="922" y="383"/>
    </contour>
  </outline>
</glyph>
<glyph name="uni028E" format="2">
  <advance width="969"/>
  <unicode hex="028E"/>
  <anchor x="475" y="1600" name="Anchor-5"/>
  <anchor x="475" y="0" name="Anchor-2"/>
  <anchor x="969" y="1600" name="Anchor-1"/>
  <anchor x="475" y="1600" name="Anchor-0"/>
  <outline>
    <contour>
      <point x="521" y="970" type="line"/>
      <point x="220" y="0" type="line"/>
      <point x="22" y="0" type="line"/>
      <point x="457" y="1249" type="line" smooth="yes"/>
      <point x="472" y="1289"/>
      <point x="521" y="1382"/>
      <point x="596" y="1466"/>
      <point x="704" y="1519"/>
      <point x="778" y="1519" type="qcurve" smooth="yes"/>
      <point x="801" y="1519"/>
      <point x="867" y="1508"/>
      <point x="882" y="1503" type="qcurve"/>
      <point x="882" y="1353" type="line"/>
      <point x="874" y="1355"/>
      <point x="840" y="1357"/>
      <point x="832" y="1357" type="qcurve" smooth="yes"/>
      <point x="769" y="1357"/>
      <point x="681" y="1324"/>
      <point x="621" y="1247"/>
      <point x="599" y="1180" type="qcurve" smooth="yes"/>
    </contour>
    <contour>
      <point x="742" y="0" type="line"/>
      <point x="462" y="840" type="line"/>
      <point x="413" y="1035" type="line"/>
      <point x="546" y="1103" type="line"/>
      <point x="944" y="0" type="line"/>
    </contour>
  </outline>
</glyph>
<glyph name="uni0296" format="2">
  <advance width="1072"/>
  <unicode hex="0296"/>
  <anchor x="508" y="1633" name="Anchor-5"/>
  <anchor x="508" y="0" name="Anchor-2"/>
  <anchor x="1072" y="1633" name="Anchor-1"/>
  <anchor x="508" y="1633" name="Anchor-0"/>
  <outline>
    <contour>
      <point x="498" y="995" type="qcurve" smooth="yes"/>
      <point x="455" y="995" type="line"/>
      <point x="455" y="1147" type="line"/>
      <point x="498" y="1147" type="line" smooth="yes"/>
      <point x="620" y="1147"/>
      <point x="801" y="1061"/>
      <point x="920" y="911"/>
      <point x="979" y="716"/>
      <point x="979" y="607" type="qcurve" smooth="yes"/>
      <point x="979" y="520" type="line" smooth="yes"/>
      <point x="979" y="411"/>
      <point x="920" y="216"/>
      <point x="801" y="66"/>
      <point x="620" y="-20"/>
      <point x="498" y="-20" type="qcurve" smooth="yes"/>
      <point x="372" y="-20"/>
      <point x="181" y="83"/>
      <point x="72" y="261"/>
      <point x="67" y="372" type="qcurve"/>
      <point x="242" y="372" type="line"/>
      <point x="247" y="306"/>
      <point x="312" y="197"/>
      <point x="424" y="132"/>
      <point x="498" y="132" type="qcurve" smooth="yes"/>
      <point x="584" y="132"/>
      <point x="698" y="199"/>
      <point x="765" y="312"/>
      <point x="794" y="450"/>
      <point x="794" y="520" type="qcurve" smooth="yes"/>
      <point x="794" y="607" type="line" smooth="yes"/>
      <point x="794" y="678"/>
      <point x="766" y="816"/>
      <point x="699" y="928"/>
      <point x="584" y="995"/>
    </contour>
    <contour>
      <point x="597" y="1535" type="line"/>
      <point x="597" y="992" type="line"/>
      <point x="412" y="992" type="line"/>
      <point x="412" y="1535" type="line"/>
    </contour>
  </outline>
</glyph>
<glyph name="uni029A" format="2">
  <advance width="1069"/>
  <unicode hex="029A"/>
  <anchor x="518" y="1290" name="Anchor-5"/>
  <anchor x="518" y="0" name="Anchor-2"/>
  <anchor x="1069" y="1290" name="Anchor-1"/>
  <anchor x="518" y="1290" name="Anchor-0"/>
  <outline>
    <contour>
      <point x="623" y="517" type="line"/>
      <point x="496" y="517" type="line" smooth="yes"/>
      <point x="408" y="517"/>
      <point x="269" y="559"/>
      <point x="171" y="634"/>
      <point x="120" y="732"/>
      <point x="120" y="787" type="qcurve" smooth="yes"/>
      <point x="120" y="864"/>
      <point x="175" y="981"/>
      <point x="279" y="1060"/>
      <point x="426" y="1101"/>
      <point x="518" y="1101" type="qcurve" smooth="yes"/>
      <point x="604" y="1101"/>
      <point x="766" y="1049"/>
      <point x="895" y="926"/>
      <point x="972" y="715"/>
      <point x="972" y="556" type="qcurve"/>
      <point x="787" y="556" type="line"/>
      <point x="787" y="666"/>
      <point x="745" y="818"/>
      <point x="671" y="910"/>
      <point x="574" y="951"/>
      <point x="518" y="951" type="qcurve" smooth="yes"/>
      <point x="403" y="951"/>
      <point x="305" y="850"/>
      <point x="305" y="787" type="qcurve" smooth="yes"/>
      <point x="305" y="740"/>
      <point x="344" y="670"/>
      <point x="434" y="631"/>
      <point x="510" y="631" type="qcurve" smooth="yes"/>
      <point x="623" y="631" type="line"/>
    </contour>
    <contour>
      <point x="496" y="587" type="qcurve" smooth="yes"/>
      <point x="623" y="587" type="line"/>
      <point x="623" y="474" type="line"/>
      <point x="510" y="474" type="line" smooth="yes"/>
      <point x="434" y="474"/>
      <point x="334" y="439"/>
      <point x="286" y="365"/>
      <point x="286" y="304" type="qcurve" smooth="yes"/>
      <point x="286" y="257"/>
      <point x="339" y="177"/>
      <point x="442" y="129"/>
      <point x="518" y="129" type="qcurve" smooth="yes"/>
      <point x="581" y="129"/>
      <point x="681" y="179"/>
      <point x="751" y="283"/>
      <point x="787" y="445"/>
      <point x="787" y="557" type="qcurve"/>
      <point x="972" y="557" type="line"/>
      <point x="972" y="383"/>
      <point x="892" y="158"/>
      <point x="759" y="31"/>
      <point x="599" y="-20"/>
      <point x="518" y="-20" type="qcurve" smooth="yes"/>
      <point x="426" y="-20"/>
      <point x="273" y="24"/>
      <point x="161" y="108"/>
      <point x="100" y="229"/>
      <point x="100" y="305" type="qcurve" smooth="yes"/>
      <point x="100" y="396"/>
      <point x="190" y="521"/>
      <point x="367" y="587"/>
    </contour>
  </outline>
</glyph>
<glyph name="uni02A4" format="2">
  <advance width="1891"/>
  <unicode hex="02A4"/>
  <anchor x="1290" y="1600" name="Anchor-5"/>
  <anchor x="1290" y="-447" name="Anchor-2"/>
  <anchor x="1891" y="1600" name="Anchor-1"/>
  <anchor x="1290" y="1600" name="Anchor-0"/>
  <outline>
    <contour>
      <point x="866" y="1082" type="line"/>
      <point x="1735" y="1082" type="line"/>
      <point x="1736" y="964" type="line"/>
      <point x="1232" y="319" type="line"/>
      <point x="1128" y="319" type="line"/>
      <point x="1128" y="435" type="line"/>
      <point x="1517" y="930" type="line"/>
      <point x="866" y="930" type="line"/>
    </contour>
    <contour>
      <point x="1128" y="431" type="line"/>
      <point x="1274" y="431" type="line" smooth="yes"/>
      <point x="1436" y="431"/>
      <point x="1663" y="329"/>
      <point x="1782" y="132"/>
      <point x="1782" y="-10" type="qcurve" smooth="yes"/>
      <point x="1782" y="-112"/>
      <point x="1709" y="-271"/>
      <point x="1578" y="-380"/>
      <point x="1399" y="-437"/>
      <point x="1292" y="-437" type="qcurve" smooth="yes"/>
      <point x="1178" y="-437"/>
      <point x="978" y="-370"/>
      <point x="842" y="-219"/>
      <point x="823" y="-94" type="qcurve"/>
      <point x="1009" y="-94" type="line"/>
      <point x="1020" y="-152"/>
      <point x="1088" y="-238"/>
      <point x="1207" y="-285"/>
      <point x="1292" y="-285" type="qcurve" smooth="yes"/>
      <point x="1389" y="-285"/>
      <point x="1524" y="-215"/>
      <point x="1596" y="-92"/>
      <point x="1596" y="-14" type="qcurve" smooth="yes"/>
      <point x="1596" y="92"/>
      <point x="1521" y="223"/>
      <point x="1376" y="285"/>
      <point x="1270" y="285" type="qcurve" smooth="yes"/>
      <point x="1128" y="285" type="line"/>
    </contour>
    <contour>
      <point x="823" y="210" type="line"/>
      <point x="823" y="1536" type="line"/>
      <point x="1009" y="1536" type="line"/>
      <point x="1009" y="0" type="line"/>
      <point x="839" y="0" type="line"/>
    </contour>
    <contour>
      <point x="95" y="529" type="qcurve" smooth="yes"/>
      <point x="95" y="550" type="line" smooth="yes"/>
      <point x="95" y="674"/>
      <point x="156" y="877"/>
      <point x="269" y="1023"/>
      <point x="426" y="1102"/>
      <point x="523" y="1102" type="qcurve" smooth="yes"/>
      <point x="625" y="1102"/>
      <point x="778" y="1031"/>
      <point x="885" y="896"/>
      <point x="947" y="706"/>
      <point x="959" y="586" type="qcurve"/>
      <point x="959" y="494" type="line"/>
      <point x="948" y="375"/>
      <point x="885" y="185"/>
      <point x="778" y="51"/>
      <point x="624" y="-20"/>
      <point x="521" y="-20" type="qcurve" smooth="yes"/>
      <point x="426" y="-20"/>
      <point x="269" y="62"/>
      <point x="156" y="210"/>
      <point x="95" y="411"/>
    </contour>
    <contour>
      <point x="281" y="550" type="qcurve" smooth="yes"/>
      <point x="281" y="529" type="line" smooth="yes"/>
      <point x="281" y="448"/>
      <point x="314" y="306"/>
      <point x="384" y="198"/>
      <point x="492" y="137"/>
      <point x="567" y="137" type="qcurve" smooth="yes"/>
      <point x="659" y="137"/>
      <point x="778" y="215"/>
      <point x="850" y="343"/>
      <point x="870" y="418" type="qcurve"/>
      <point x="870" y="659" type="line"/>
      <point x="858" y="714"/>
      <point x="813" y="817"/>
      <point x="742" y="898"/>
      <point x="639" y="946"/>
      <point x="569" y="946" type="qcurve" smooth="yes"/>
      <point x="493" y="946"/>
      <point x="384" y="883"/>
      <point x="314" y="774"/>
      <point x="281" y="631"/>
    </contour>
  </outline>
</glyph>
<glyph name="uni02A5" format="2">
  <advance width="2144"/>
  <unicode hex="02A5"/>
  <anchor x="1379" y="1600" name="Anchor-5"/>
  <anchor x="1379" y="-447" name="Anchor-2"/>
  <anchor x="2144" y="1600" name="Anchor-1"/>
  <anchor x="1379" y="1600" name="Anchor-0"/>
  <outline>
    <contour>
      <point x="1206" y="-104" type="line"/>
      <point x="1367" y="125" type="line" smooth="yes"/>
      <point x="1439" y="230"/>
      <point x="1558" y="393"/>
      <point x="1668" y="506"/>
      <point x="1787" y="564"/>
      <point x="1860" y="564" type="qcurve" smooth="yes"/>
      <point x="1943" y="564"/>
      <point x="2056" y="503"/>
      <point x="2114" y="397"/>
      <point x="2114" y="329" type="qcurve" smooth="yes"/>
      <point x="2114" y="232"/>
      <point x="2000" y="84"/>
      <point x="1813" y="0"/>
      <point x="1701" y="0" type="qcurve" smooth="yes"/>
      <point x="1584" y="0" type="line"/>
      <point x="1584" y="152" type="line"/>
      <point x="1701" y="152" type="line" smooth="yes"/>
      <point x="1765" y="152"/>
      <point x="1874" y="192"/>
      <point x="1941" y="269"/>
      <point x="1941" y="323" type="qcurve" smooth="yes"/>
      <point x="1941" y="364"/>
      <point x="1889" y="410"/>
      <point x="1848" y="410" type="qcurve" smooth="yes"/>
      <point x="1814" y="410"/>
      <point x="1746" y="371"/>
      <point x="1676" y="296"/>
      <point x="1599" y="190"/>
      <point x="1555" y="124" type="qcurve" smooth="yes"/>
      <point x="1339" y="-203" type="line"/>
    </contour>
    <contour>
      <point x="1656" y="152" type="line"/>
      <point x="1656" y="0" type="line"/>
      <point x="1079" y="0" type="line"/>
      <point x="1079" y="152" type="line"/>
    </contour>
    <contour>
      <point x="1837" y="951" type="line"/>
      <point x="1121" y="0" type="line"/>
      <point x="1008" y="0" type="line"/>
      <point x="1008" y="136" type="line"/>
      <point x="1719" y="1082" type="line"/>
      <point x="1837" y="1082" type="line"/>
    </contour>
    <contour>
      <point x="1755" y="1082" type="line"/>
      <point x="1755" y="929" type="line"/>
      <point x="993" y="929" type="line"/>
      <point x="993" y="1082" type="line"/>
    </contour>
    <contour>
      <point x="823" y="210" type="line"/>
      <point x="823" y="1536" type="line"/>
      <point x="1009" y="1536" type="line"/>
      <point x="1009" y="0" type="line"/>
      <point x="839" y="0" type="line"/>
    </contour>
    <contour>
      <point x="95" y="529" type="qcurve" smooth="yes"/>
      <point x="95" y="550" type="line" smooth="yes"/>
      <point x="95" y="674"/>
      <point x="156" y="877"/>
      <point x="269" y="1023"/>
      <point x="426" y="1102"/>
      <point x="523" y="1102" type="qcurve" smooth="yes"/>
      <point x="625" y="1102"/>
      <point x="778" y="1031"/>
      <point x="885" y="896"/>
      <point x="947" y="706"/>
      <point x="959" y="586" type="qcurve"/>
      <point x="959" y="494" type="line"/>
      <point x="948" y="375"/>
      <point x="885" y="185"/>
      <point x="778" y="51"/>
      <point x="624" y="-20"/>
      <point x="521" y="-20" type="qcurve" smooth="yes"/>
      <point x="426" y="-20"/>
      <point x="269" y="62"/>
      <point x="156" y="210"/>
      <point x="95" y="411"/>
    </contour>
    <contour>
      <point x="281" y="550" type="qcurve" smooth="yes"/>
      <point x="281" y="529" type="line" smooth="yes"/>
      <point x="281" y="448"/>
      <point x="314" y="306"/>
      <point x="384" y="198"/>
      <point x="492" y="137"/>
      <point x="567" y="137" type="qcurve" smooth="yes"/>
      <point x="659" y="137"/>
      <point x="778" y="215"/>
      <point x="850" y="343"/>
      <point x="870" y="418" type="qcurve"/>
      <point x="870" y="659" type="line"/>
      <point x="858" y="714"/>
      <point x="813" y="817"/>
      <point x="742" y="898"/>
      <point x="639" y="946"/>
      <point x="569" y="946" type="qcurve" smooth="yes"/>
      <point x="493" y="946"/>
      <point x="384" y="883"/>
      <point x="314" y="774"/>
      <point x="281" y="631"/>
    </contour>
  </outline>
</glyph>
<glyph name="uni02A7" format="2">
  <advance width="1092"/>
  <unicode hex="02A7"/>
  <anchor x="469" y="1700" name="Anchor-5"/>
  <anchor x="469" y="-447" name="Anchor-2"/>
  <anchor x="1092" y="1700" name="Anchor-1"/>
  <anchor x="469" y="1700" name="Anchor-0"/>
  <outline>
    <contour>
      <point x="707" y="1082" type="line"/>
      <point x="707" y="940" type="line"/>
      <point x="9" y="940" type="line"/>
      <point x="9" y="1082" type="line"/>
    </contour>
    <contour>
      <point x="207" y="1345" type="line"/>
      <point x="392" y="1345" type="line"/>
      <point x="392" y="297" type="line" smooth="yes"/>
      <point x="392" y="237"/>
      <point x="415" y="168"/>
      <point x="468" y="139"/>
      <point x="513" y="139" type="qcurve" smooth="yes"/>
      <point x="559" y="139"/>
      <point x="659" y="156"/>
      <point x="673" y="160" type="qcurve"/>
      <point x="674" y="10" type="line"/>
      <point x="648" y="2"/>
      <point x="537" y="-20"/>
      <point x="469" y="-20" type="qcurve" smooth="yes"/>
      <point x="371" y="-20"/>
      <point x="256" y="55"/>
      <point x="207" y="198"/>
      <point x="207" y="298" type="qcurve" smooth="yes"/>
    </contour>
    <contour>
      <point x="764" y="0" type="line"/>
      <point x="579" y="0" type="line"/>
      <point x="579" y="1196" type="line" smooth="yes"/>
      <point x="579" y="1313"/>
      <point x="665" y="1474"/>
      <point x="825" y="1557"/>
      <point x="935" y="1557" type="qcurve" smooth="yes"/>
      <point x="966" y="1557"/>
      <point x="1031" y="1549"/>
      <point x="1062" y="1541" type="qcurve"/>
      <point x="1052" y="1390" type="line"/>
      <point x="1031" y="1395"/>
      <point x="978" y="1399"/>
      <point x="952" y="1399" type="qcurve" smooth="yes"/>
      <point x="893" y="1399"/>
      <point x="808" y="1352"/>
      <point x="764" y="1262"/>
      <point x="764" y="1196" type="qcurve" smooth="yes"/>
    </contour>
    <contour>
      <point x="579" y="1120" type="line"/>
      <point x="764" y="1120" type="line"/>
      <point x="764" y="-76" type="line" smooth="yes"/>
      <point x="764" y="-192"/>
      <point x="678" y="-354"/>
      <point x="519" y="-437"/>
      <point x="408" y="-437" type="qcurve" smooth="yes"/>
      <point x="377" y="-437"/>
      <point x="312" y="-428"/>
      <point x="281" y="-421" type="qcurve"/>
      <point x="291" y="-270" type="line"/>
      <point x="312" y="-274"/>
      <point x="365" y="-279"/>
      <point x="391" y="-279" type="qcurve" smooth="yes"/>
      <point x="451" y="-279"/>
      <point x="535" y="-232"/>
      <point x="579" y="-141"/>
      <point x="579" y="-76" type="qcurve" smooth="yes"/>
    </contour>
  </outline>
</glyph>
<glyph name="uni02A8" format="2">
  <advance width="1582"/>
  <unicode hex="02A8"/>
  <anchor x="1086" y="1600" name="Anchor-5"/>
  <anchor x="1086" y="0" name="Anchor-2"/>
  <anchor x="1582" y="1600" name="Anchor-1"/>
  <anchor x="1086" y="1600" name="Anchor-0"/>
  <outline>
    <contour>
      <point x="1088" y="131" type="qcurve" smooth="yes"/>
      <point x="1152" y="131"/>
      <point x="1268" y="170"/>
      <point x="1341" y="242"/>
      <point x="1341" y="293" type="qcurve" smooth="yes"/>
      <point x="1341" y="349"/>
      <point x="1273" y="393"/>
      <point x="1233" y="393" type="qcurve" smooth="yes"/>
      <point x="1166" y="393"/>
      <point x="1035" y="310"/>
      <point x="897" y="187"/>
      <point x="742" y="63"/>
      <point x="563" y="-20"/>
      <point x="456" y="-20" type="qcurve"/>
      <point x="511" y="139" type="line"/>
      <point x="572" y="139"/>
      <point x="702" y="222"/>
      <point x="844" y="343"/>
      <point x="1000" y="465"/>
      <point x="1170" y="548"/>
      <point x="1264" y="548" type="qcurve" smooth="yes"/>
      <point x="1345" y="548"/>
      <point x="1457" y="488"/>
      <point x="1515" y="382"/>
      <point x="1515" y="313" type="qcurve" smooth="yes"/>
      <point x="1515" y="238"/>
      <point x="1446" y="116"/>
      <point x="1326" y="27"/>
      <point x="1172" y="-20"/>
      <point x="1088" y="-20" type="qcurve" smooth="yes"/>
      <point x="964" y="-20"/>
      <point x="781" y="66"/>
      <point x="661" y="216"/>
      <point x="602" y="411"/>
      <point x="602" y="520" type="qcurve" smooth="yes"/>
      <point x="602" y="562" type="line" smooth="yes"/>
      <point x="602" y="671"/>
      <point x="661" y="866"/>
      <point x="781" y="1016"/>
      <point x="962" y="1102"/>
      <point x="1084" y="1102" type="qcurve" smooth="yes"/>
      <point x="1211" y="1102"/>
      <point x="1401" y="999"/>
      <point x="1510" y="822"/>
      <point x="1515" y="710" type="qcurve"/>
      <point x="1339" y="710" type="line"/>
      <point x="1334" y="777"/>
      <point x="1269" y="885"/>
      <point x="1158" y="950"/>
      <point x="1084" y="950" type="qcurve" smooth="yes"/>
      <point x="999" y="950"/>
      <point x="884" y="883"/>
      <point x="817" y="770"/>
      <point x="788" y="633"/>
      <point x="788" y="562" type="qcurve" smooth="yes"/>
      <point x="788" y="520" type="line" smooth="yes"/>
      <point x="788" y="449"/>
      <point x="816" y="310"/>
      <point x="884" y="198"/>
      <point x="1000" y="131"/>
    </contour>
    <contour>
      <point x="594" y="1082" type="line"/>
      <point x="594" y="940" type="line"/>
      <point x="9" y="940" type="line"/>
      <point x="9" y="1082" type="line"/>
    </contour>
    <contour>
      <point x="207" y="1345" type="line"/>
      <point x="392" y="1345" type="line"/>
      <point x="392" y="297" type="line" smooth="yes"/>
      <point x="392" y="235"/>
      <point x="426" y="166"/>
      <point x="480" y="139"/>
      <point x="511" y="139" type="qcurve"/>
      <point x="456" y="-20" type="line"/>
      <point x="405" y="-20"/>
      <point x="314" y="15"/>
      <point x="246" y="91"/>
      <point x="207" y="212"/>
      <point x="207" y="298" type="qcurve" smooth="yes"/>
    </contour>
  </outline>
</glyph>
<glyph name="uni02A9" format="2">
  <advance width="1702"/>
  <unicode hex="02A9"/>
  <anchor x="1155" y="1700" name="Anchor-5"/>
  <anchor x="1155" y="-447" name="Anchor-2"/>
  <anchor x="1702" y="1700" name="Anchor-1"/>
  <anchor x="1155" y="1700" name="Anchor-0"/>
  <outline>
    <contour>
      <point x="897" y="1082" type="line"/>
      <point x="897" y="0" type="line"/>
      <point x="712" y="0" type="line"/>
      <point x="712" y="1082" type="line"/>
    </contour>
    <contour>
      <point x="853" y="582" type="qcurve"/>
      <point x="776" y="585" type="line"/>
      <point x="777" y="696"/>
      <point x="841" y="885"/>
      <point x="957" y="1025"/>
      <point x="1118" y="1102"/>
      <point x="1216" y="1102" type="qcurve" smooth="yes"/>
      <point x="1296" y="1102"/>
      <point x="1424" y="1053"/>
      <point x="1515" y="951"/>
      <point x="1563" y="790"/>
      <point x="1563" y="678" type="qcurve" smooth="yes"/>
      <point x="1563" y="0" type="line"/>
      <point x="1377" y="0" type="line"/>
      <point x="1377" y="680" type="line" smooth="yes"/>
      <point x="1377" y="749"/>
      <point x="1349" y="850"/>
      <point x="1294" y="915"/>
      <point x="1214" y="946"/>
      <point x="1161" y="946" type="qcurve" smooth="yes"/>
      <point x="1092" y="946"/>
      <point x="979" y="888"/>
      <point x="898" y="786"/>
      <point x="853" y="655"/>
    </contour>
    <contour>
      <point x="1377" y="84" type="line"/>
      <point x="1563" y="84" type="line"/>
      <point x="1563" y="-64" type="line" smooth="yes"/>
      <point x="1563" y="-137"/>
      <point x="1516" y="-250"/>
      <point x="1434" y="-327"/>
      <point x="1325" y="-366"/>
      <point x="1263" y="-366" type="qcurve" smooth="yes"/>
      <point x="1241" y="-366"/>
      <point x="1184" y="-358"/>
      <point x="1163" y="-351" type="qcurve"/>
      <point x="1164" y="-223" type="line"/>
      <point x="1177" y="-227"/>
      <point x="1210" y="-231"/>
      <point x="1223" y="-231" type="qcurve" smooth="yes"/>
      <point x="1272" y="-231"/>
      <point x="1341" y="-198"/>
      <point x="1377" y="-125"/>
      <point x="1377" y="-64" type="qcurve" smooth="yes"/>
    </contour>
    <contour>
      <point x="417" y="0" type="line"/>
      <point x="232" y="0" type="line"/>
      <point x="232" y="1196" type="line" smooth="yes"/>
      <point x="232" y="1313"/>
      <point x="317" y="1474"/>
      <point x="477" y="1557"/>
      <point x="587" y="1557" type="qcurve" smooth="yes"/>
      <point x="619" y="1557"/>
      <point x="684" y="1549"/>
      <point x="715" y="1541" type="qcurve"/>
      <point x="705" y="1390" type="line"/>
      <point x="684" y="1395"/>
      <point x="631" y="1399"/>
      <point x="605" y="1399" type="qcurve" smooth="yes"/>
      <point x="546" y="1399"/>
      <point x="461" y="1352"/>
      <point x="417" y="1262"/>
      <point x="417" y="1196" type="qcurve" smooth="yes"/>
    </contour>
    <contour>
      <point x="728" y="1082" type="line"/>
      <point x="728" y="940" type="line"/>
      <point x="61" y="940" type="line"/>
      <point x="61" y="1082" type="line"/>
    </contour>
  </outline>
</glyph>
<glyph name="uni02AE" format="2">
  <advance width="1284"/>
  <unicode hex="02AE"/>
  <anchor x="665" y="1290" name="Anchor-5"/>
  <anchor x="665" y="-447" name="Anchor-2"/>
  <anchor x="1284" y="1290" name="Anchor-1"/>
  <anchor x="665" y="1290" name="Anchor-0"/>
  <outline>
    <contour>
      <point x="942" y="-416" type="line"/>
      <point x="942" y="1082" type="line"/>
      <point x="1128" y="1082" type="line"/>
      <point x="1128" y="-416" type="line"/>
    </contour>
    <contour>
      <point x="958" y="499" type="qcurve"/>
      <point x="1043" y="496" type="line"/>
      <point x="1042" y="385"/>
      <point x="995" y="197"/>
      <point x="895" y="57"/>
      <point x="739" y="-20"/>
      <point x="629" y="-20" type="qcurve" smooth="yes"/>
      <point x="550" y="-20"/>
      <point x="419" y="32"/>
      <point x="326" y="143"/>
      <point x="275" y="318"/>
      <point x="275" y="441" type="qcurve" smooth="yes"/>
      <point x="275" y="686" type="line"/>
      <point x="461" y="686" type="line"/>
      <point x="461" y="439" type="line" smooth="yes"/>
      <point x="461" y="348"/>
      <point x="494" y="231"/>
      <point x="550" y="164"/>
      <point x="621" y="137"/>
      <point x="659" y="137" type="qcurve" smooth="yes"/>
      <point x="742" y="137"/>
      <point x="856" y="194"/>
      <point x="926" y="295"/>
      <point x="958" y="426"/>
    </contour>
    <contour>
      <point x="461" y="591" type="line"/>
      <point x="275" y="591" type="line"/>
      <point x="275" y="753" type="line" smooth="yes"/>
      <point x="275" y="806"/>
      <point x="251" y="879"/>
      <point x="206" y="923"/>
      <point x="141" y="944"/>
      <point x="99" y="944" type="qcurve" smooth="yes"/>
      <point x="85" y="944"/>
      <point x="46" y="940"/>
      <point x="31" y="935" type="qcurve"/>
      <point x="30" y="1084" type="line"/>
      <point x="54" y="1092"/>
      <point x="120" y="1101"/>
      <point x="146" y="1101" type="qcurve" smooth="yes"/>
      <point x="217" y="1101"/>
      <point x="333" y="1056"/>
      <point x="416" y="967"/>
      <point x="461" y="837"/>
      <point x="461" y="753" type="qcurve" smooth="yes"/>
    </contour>
  </outline>
</glyph>
<glyph name="uni02AF" format="2">
  <advance width="1301"/>
  <unicode hex="02AF"/>
  <anchor x="665" y="1290" name="Anchor-5"/>
  <anchor x="665" y="-447" name="Anchor-2"/>
  <anchor x="1301" y="1290" name="Anchor-1"/>
  <anchor x="665" y="1290" name="Anchor-0"/>
  <outline>
    <contour>
      <point x="913" y="-18" type="line"/>
      <point x="913" y="1082" type="line"/>
      <point x="1098" y="1082" type="line"/>
      <point x="1098" y="-18" type="line"/>
    </contour>
    <contour>
      <point x="929" y="499" type="qcurve"/>
      <point x="1014" y="496" type="line"/>
      <point x="1013" y="385"/>
      <point x="965" y="197"/>
      <point x="865" y="57"/>
      <point x="709" y="-20"/>
      <point x="600" y="-20" type="qcurve" smooth="yes"/>
      <point x="520" y="-20"/>
      <point x="390" y="32"/>
      <point x="296" y="143"/>
      <point x="246" y="318"/>
      <point x="246" y="441" type="qcurve" smooth="yes"/>
      <point x="246" y="686" type="line"/>
      <point x="431" y="686" type="line"/>
      <point x="431" y="439" type="line" smooth="yes"/>
      <point x="431" y="348"/>
      <point x="464" y="231"/>
      <point x="521" y="164"/>
      <point x="592" y="137"/>
      <point x="630" y="137" type="qcurve" smooth="yes"/>
      <point x="712" y="137"/>
      <point x="826" y="194"/>
      <point x="896" y="295"/>
      <point x="929" y="426"/>
    </contour>
    <contour>
      <point x="431" y="592" type="line"/>
      <point x="245" y="592" type="line"/>
      <point x="245" y="800" type="line" smooth="yes"/>
      <point x="245" y="846"/>
      <point x="224" y="910"/>
      <point x="185" y="950"/>
      <point x="127" y="969"/>
      <point x="91" y="969" type="qcurve" smooth="yes"/>
      <point x="78" y="969"/>
      <point x="43" y="965"/>
      <point x="31" y="962" type="qcurve"/>
      <point x="30" y="1089" type="line"/>
      <point x="50" y="1095"/>
      <point x="105" y="1102"/>
      <point x="130" y="1102" type="qcurve" smooth="yes"/>
      <point x="192" y="1102"/>
      <point x="301" y="1063"/>
      <point x="384" y="986"/>
      <point x="431" y="873"/>
      <point x="431" y="800" type="qcurve" smooth="yes"/>
    </contour>
    <contour>
      <point x="913" y="73" type="line"/>
      <point x="1098" y="73" type="line"/>
      <point x="1098" y="-135" type="line" smooth="yes"/>
      <point x="1098" y="-181"/>
      <point x="1118" y="-245"/>
      <point x="1158" y="-285"/>
      <point x="1215" y="-304"/>
      <point x="1252" y="-304" type="qcurve" smooth="yes"/>
      <point x="1265" y="-304"/>
      <point x="1300" y="-300"/>
      <point x="1311" y="-297" type="qcurve"/>
      <point x="1313" y="-424" type="line"/>
      <point x="1292" y="-430"/>
      <point x="1237" y="-437"/>
      <point x="1212" y="-437" type="qcurve" smooth="yes"/>
      <point x="1150" y="-437"/>
      <point x="1042" y="-398"/>
      <point x="959" y="-321"/>
      <point x="913" y="-208"/>
      <point x="913" y="-135" type="qcurve" smooth="yes"/>
    </contour>
  </outline>
</glyph>
<glyph name="uni02B6" format="2">
  <advance width="874"/>
  <unicode hex="02B6"/>
  <outline>
    <contour>
      <point x="598" y="1106" type="line"/>
      <point x="403" y="1106" type="line"/>
      <point x="617" y="1451" type="line"/>
      <point x="812" y="1451" type="line"/>
    </contour>
    <contour>
      <point x="455" y="651" type="qcurve" smooth="yes"/>
      <point x="102" y="651" type="line"/>
      <point x="102" y="1451" type="line"/>
      <point x="272" y="1451" type="line"/>
      <point x="272" y="796" type="line"/>
      <point x="424" y="796" type="line" smooth="yes"/>
      <point x="513" y="796"/>
      <point x="589" y="866"/>
      <point x="589" y="915" type="qcurve" smooth="yes"/>
      <point x="589" y="964"/>
      <point x="521" y="1032"/>
      <point x="441" y="1032" type="qcurve" smooth="yes"/>
      <point x="234" y="1032" type="line"/>
      <point x="234" y="1177" type="line"/>
      <point x="471" y="1177" type="line" smooth="yes"/>
      <point x="564" y="1177"/>
      <point x="692" y="1104"/>
      <point x="759" y="985"/>
      <point x="759" y="914" type="qcurve" smooth="yes"/>
      <point x="759" y="844"/>
      <point x="688" y="724"/>
      <point x="552" y="651"/>
    </contour>
  </outline>
</glyph>
<glyph name="uni02DE" format="2">
  <advance width="430"/>
  <unicode hex="02DE"/>
  <outline>
    <contour>
      <point x="-202" y="553" type="line"/>
      <point x="-202" y="723" type="line"/>
      <point x="168" y="794" type="line"/>
      <point x="176" y="730"/>
      <point x="189" y="634"/>
      <point x="212" y="570"/>
      <point x="256" y="538"/>
      <point x="295" y="538" type="qcurve" smooth="yes"/>
      <point x="309" y="538"/>
      <point x="333" y="540"/>
      <point x="345" y="542" type="qcurve"/>
      <point x="377" y="387" type="line"/>
      <point x="349" y="372"/>
      <point x="284" y="355"/>
      <point x="249" y="355" type="qcurve" smooth="yes"/>
      <point x="189" y="355"/>
      <point x="111" y="388"/>
      <point x="61" y="451"/>
      <point x="29" y="540"/>
      <point x="16" y="595" type="qcurve"/>
    </contour>
  </outline>
</glyph>
<glyph name="uni02E4" format="2">
  <advance width="840"/>
  <unicode hex="02E4"/>
  <outline>
    <contour>
      <point x="593" y="1168" type="line"/>
      <point x="590" y="1212"/>
      <point x="547" y="1281"/>
      <point x="471" y="1321"/>
      <point x="420" y="1321" type="qcurve" smooth="yes"/>
      <point x="356" y="1321"/>
      <point x="278" y="1267"/>
      <point x="242" y="1171"/>
      <point x="242" y="1107" type="qcurve" smooth="yes"/>
      <point x="242" y="1043"/>
      <point x="275" y="949"/>
      <point x="354" y="897"/>
      <point x="422" y="897" type="qcurve" smooth="yes"/>
      <point x="451" y="897" type="line"/>
      <point x="451" y="754" type="line"/>
      <point x="419" y="754" type="line" smooth="yes"/>
      <point x="318" y="754"/>
      <point x="161" y="832"/>
      <point x="72" y="988"/>
      <point x="72" y="1104" type="qcurve" smooth="yes"/>
      <point x="72" y="1220"/>
      <point x="164" y="1381"/>
      <point x="322" y="1466"/>
      <point x="421" y="1466" type="qcurve" smooth="yes"/>
      <point x="516" y="1466"/>
      <point x="673" y="1394"/>
      <point x="768" y="1260"/>
      <point x="768" y="1168" type="qcurve"/>
    </contour>
    <contour>
      <point x="499" y="651" type="line"/>
      <point x="329" y="651" type="line"/>
      <point x="329" y="897" type="line"/>
      <point x="499" y="897" type="line"/>
    </contour>
  </outline>
</glyph>
<glyph name="uni0306" format="2">
  <advance width="0"/>
  <unicode hex="0306"/>
  <anchor x="-587" y="1597" name="Anchor-11"/>
  <anchor x="-587" y="1194" name="_Anchor-11"/>
  <anchor x="-585" y="1361" name="Anchor-10"/>
  <anchor x="-587" y="1194" name="_Anchor-0"/>
  <outline>
    <contour>
      <point x="-437" y="1495" type="qcurve"/>
      <point x="-287" y="1495" type="line"/>
      <point x="-287" y="1417"/>
      <point x="-359" y="1296"/>
      <point x="-493" y="1228"/>
      <point x="-585" y="1228" type="qcurve" smooth="yes"/>
      <point x="-724" y="1228"/>
      <point x="-885" y="1377"/>
      <point x="-885" y="1495" type="qcurve"/>
      <point x="-735" y="1495" type="line"/>
      <point x="-735" y="1456"/>
      <point x="-706" y="1388"/>
      <point x="-640" y="1346"/>
      <point x="-585" y="1346" type="qcurve" smooth="yes"/>
      <point x="-505" y="1346"/>
      <point x="-437" y="1436"/>
    </contour>
  </outline>
</glyph>
<glyph name="uni0308" format="2">
  <advance width="0"/>
  <unicode hex="0308"/>
  <anchor x="-671" y="1577" name="Anchor-11"/>
  <anchor x="-671" y="1290" name="_Anchor-11"/>
  <anchor x="-671" y="1371" name="Anchor-10"/>
  <anchor x="-671" y="1290" name="_Anchor-0"/>
  <outline>
    <contour>
      <point x="-996" y="1371" type="qcurve" smooth="yes"/>
      <point x="-996" y="1416"/>
      <point x="-940" y="1478"/>
      <point x="-887" y="1478" type="qcurve" smooth="yes"/>
      <point x="-833" y="1478"/>
      <point x="-777" y="1416"/>
      <point x="-777" y="1371" type="qcurve" smooth="yes"/>
      <point x="-777" y="1328"/>
      <point x="-833" y="1267"/>
      <point x="-887" y="1267" type="qcurve" smooth="yes"/>
      <point x="-940" y="1267"/>
      <point x="-996" y="1328"/>
    </contour>
    <contour>
      <point x="-565" y="1369" type="qcurve" smooth="yes"/>
      <point x="-565" y="1414"/>
      <point x="-510" y="1476"/>
      <point x="-456" y="1476" type="qcurve" smooth="yes"/>
      <point x="-403" y="1476"/>
      <point x="-346" y="1414"/>
      <point x="-346" y="1369" type="qcurve" smooth="yes"/>
      <point x="-346" y="1326"/>
      <point x="-403" y="1265"/>
      <point x="-456" y="1265" type="qcurve" smooth="yes"/>
      <point x="-510" y="1265"/>
      <point x="-565" y="1326"/>
    </contour>
  </outline>
</glyph>
<glyph name="uni0312" format="2">
  <advance width="0"/>
  <unicode hex="0312"/>
  <anchor x="-587" y="1684" name="Anchor-11"/>
  <anchor x="-587" y="1072" name="_Anchor-11"/>
  <anchor x="-540" y="1278" name="Anchor-10"/>
  <anchor x="-587" y="1072" name="_Anchor-0"/>
  <outline>
    <contour>
      <point x="-680" y="997" type="line"/>
      <point x="-680" y="1180" type="line" smooth="yes"/>
      <point x="-680" y="1244"/>
      <point x="-639" y="1384"/>
      <point x="-561" y="1513"/>
      <point x="-506" y="1561" type="qcurve"/>
      <point x="-400" y="1488" type="line"/>
      <point x="-447" y="1418"/>
      <point x="-497" y="1269"/>
      <point x="-497" y="1183" type="qcurve" smooth="yes"/>
      <point x="-497" y="997" type="line"/>
    </contour>
  </outline>
</glyph>
<glyph name="uni031A" format="2">
  <advance width="0"/>
  <unicode hex="031A"/>
  <anchor x="-417" y="1696" name="Anchor-11"/>
  <anchor x="-417" y="1263" name="_Anchor-11"/>
  <anchor x="-417" y="1696" name="Anchor-10"/>
  <anchor x="-417" y="1263" name="_Anchor-0"/>
  <outline>
    <contour>
      <point x="-752" y="1538" type="line"/>
      <point x="-752" y="1655" type="line"/>
      <point x="-203" y="1655" type="line"/>
      <point x="-203" y="1538" type="line"/>
    </contour>
    <contour>
      <point x="-222" y="1283" type="line"/>
      <point x="-222" y="1655" type="line"/>
      <point x="-81" y="1655" type="line"/>
      <point x="-81" y="1283" type="line"/>
    </contour>
  </outline>
</glyph>
<glyph name="uni031F" format="2">
  <advance width="0"/>
  <unicode hex="031F"/>
  <anchor x="-586" y="-461" name="Anchor-9"/>
  <anchor x="-587" y="0" name="_Anchor-9"/>
  <anchor x="-587" y="0" name="_Anchor-2"/>
  <outline>
    <contour>
      <point x="-516" y="-60" type="line"/>
      <point x="-516" y="-461" type="line"/>
      <point x="-656" y="-461" type="line"/>
      <point x="-656" y="-60" type="line"/>
    </contour>
    <contour>
      <point x="-790" y="-194" type="line"/>
      <point x="-382" y="-194" type="line"/>
      <point x="-382" y="-327" type="line"/>
      <point x="-790" y="-327" type="line"/>
    </contour>
  </outline>
</glyph>
<glyph name="uni0320" format="2">
  <advance width="0"/>
  <unicode hex="0320"/>
  <anchor x="-584" y="-328" name="Anchor-9"/>
  <anchor x="-584" y="0" name="_Anchor-9"/>
  <anchor x="-584" y="0" name="_Anchor-2"/>
  <outline>
    <contour>
      <point x="-811" y="-194" type="line"/>
      <point x="-357" y="-194" type="line"/>
      <point x="-357" y="-328" type="line"/>
      <point x="-811" y="-328" type="line"/>
    </contour>
  </outline>
</glyph>
<glyph name="uni0321" format="2">
  <advance width="0"/>
  <unicode hex="0321"/>
  <outline>
    <contour>
      <point x="-379" y="144" type="line"/>
      <point x="-194" y="144" type="line"/>
      <point x="-194" y="-89" type="line" smooth="yes"/>
      <point x="-194" y="-173"/>
      <point x="-228" y="-303"/>
      <point x="-297" y="-392"/>
      <point x="-402" y="-437"/>
      <point x="-473" y="-437" type="qcurve" smooth="yes"/>
      <point x="-499" y="-437"/>
      <point x="-565" y="-427"/>
      <point x="-589" y="-420" type="qcurve"/>
      <point x="-587" y="-271" type="line"/>
      <point x="-572" y="-275"/>
      <point x="-534" y="-280"/>
      <point x="-520" y="-280" type="qcurve" smooth="yes"/>
      <point x="-473" y="-280"/>
      <point x="-411" y="-243"/>
      <point x="-379" y="-159"/>
      <point x="-379" y="-89" type="qcurve" smooth="yes"/>
    </contour>
  </outline>
</glyph>
<glyph name="uni0322" format="2">
  <advance width="0"/>
  <unicode hex="0322"/>
  <outline>
    <contour>
      <point x="-112" y="144" type="line"/>
      <point x="-112" y="-89" type="line" smooth="yes"/>
      <point x="-112" y="-141"/>
      <point x="-94" y="-215"/>
      <point x="-59" y="-259"/>
      <point x="-6" y="-280"/>
      <point x="29" y="-280" type="qcurve" smooth="yes"/>
      <point x="43" y="-280"/>
      <point x="81" y="-275"/>
      <point x="96" y="-271" type="qcurve"/>
      <point x="98" y="-420" type="line"/>
      <point x="74" y="-427"/>
      <point x="8" y="-437"/>
      <point x="-18" y="-437" type="qcurve" smooth="yes"/>
      <point x="-89" y="-437"/>
      <point x="-194" y="-392"/>
      <point x="-263" y="-303"/>
      <point x="-297" y="-173"/>
      <point x="-297" y="-89" type="qcurve" smooth="yes"/>
      <point x="-297" y="144" type="line"/>
    </contour>
  </outline>
</glyph>
<glyph name="dotbelow" format="2">
  <advance width="0"/>
  <unicode hex="0323"/>
  <anchor x="-597" y="-354" name="Anchor-2"/>
  <anchor x="-597" y="0" name="_Anchor-2"/>
  <anchor x="-597" y="0" name="_Anchor-1"/>
  <outline>
    <contour>
      <point x="-712" y="-246" type="qcurve" smooth="yes"/>
      <point x="-712" y="-201"/>
      <point x="-657" y="-139"/>
      <point x="-603" y="-139" type="qcurve" smooth="yes"/>
      <point x="-550" y="-139"/>
      <point x="-493" y="-201"/>
      <point x="-493" y="-246" type="qcurve" smooth="yes"/>
      <point x="-493" y="-289"/>
      <point x="-550" y="-350"/>
      <point x="-603" y="-350" type="qcurve" smooth="yes"/>
      <point x="-657" y="-350"/>
      <point x="-712" y="-289"/>
    </contour>
  </outline>
</glyph>
<glyph name="uni0325" format="2">
  <advance width="0"/>
  <unicode hex="0325"/>
  <anchor x="-588" y="-457" name="Anchor-9"/>
  <anchor x="-588" y="0" name="_Anchor-9"/>
  <anchor x="-588" y="0" name="_Anchor-2"/>
  <outline>
    <contour>
      <point x="-804" y="-258" type="qcurve" smooth="yes"/>
      <point x="-804" y="-200"/>
      <point x="-747" y="-106"/>
      <point x="-650" y="-50"/>
      <point x="-589" y="-50" type="qcurve" smooth="yes"/>
      <point x="-498" y="-50"/>
      <point x="-374" y="-172"/>
      <point x="-374" y="-258" type="qcurve" smooth="yes"/>
      <point x="-374" y="-316"/>
      <point x="-431" y="-409"/>
      <point x="-528" y="-462"/>
      <point x="-589" y="-462" type="qcurve" smooth="yes"/>
      <point x="-680" y="-462"/>
      <point x="-804" y="-346"/>
    </contour>
    <contour>
      <point x="-705" y="-258" type="qcurve" smooth="yes"/>
      <point x="-705" y="-302"/>
      <point x="-640" y="-373"/>
      <point x="-589" y="-373" type="qcurve" smooth="yes"/>
      <point x="-538" y="-373"/>
      <point x="-473" y="-304"/>
      <point x="-473" y="-258" type="qcurve" smooth="yes"/>
      <point x="-473" y="-211"/>
      <point x="-538" y="-140"/>
      <point x="-589" y="-140" type="qcurve" smooth="yes"/>
      <point x="-640" y="-140"/>
      <point x="-705" y="-211"/>
    </contour>
  </outline>
</glyph>
<glyph name="uni0329" format="2">
  <advance width="0"/>
  <unicode hex="0329"/>
  <anchor x="-582" y="-489" name="Anchor-9"/>
  <anchor x="-588" y="0" name="_Anchor-9"/>
  <anchor x="-588" y="0" name="_Anchor-2"/>
  <outline>
    <contour>
      <point x="-515" y="-81" type="line"/>
      <point x="-515" y="-489" type="line"/>
      <point x="-655" y="-489" type="line"/>
      <point x="-655" y="-81" type="line"/>
    </contour>
  </outline>
</glyph>
<glyph name="uni032A" format="2">
  <advance width="0"/>
  <unicode hex="032A"/>
  <anchor x="-585" y="-464" name="Anchor-9"/>
  <anchor x="-585" y="0" name="_Anchor-9"/>
  <anchor x="-585" y="0" name="_Anchor-2"/>
  <outline>
    <contour>
      <point x="-375" y="-227" type="line"/>
      <point x="-801" y="-227" type="line"/>
      <point x="-801" y="-110" type="line"/>
      <point x="-375" y="-110" type="line"/>
    </contour>
    <contour>
      <point x="-782" y="-464" type="line"/>
      <point x="-924" y="-464" type="line"/>
      <point x="-924" y="-110" type="line"/>
      <point x="-782" y="-110" type="line"/>
    </contour>
    <contour>
      <point x="-249" y="-464" type="line"/>
      <point x="-390" y="-464" type="line"/>
      <point x="-390" y="-110" type="line"/>
      <point x="-249" y="-110" type="line"/>
    </contour>
  </outline>
</glyph>
<glyph name="uni0330" format="2">
  <advance width="0"/>
  <unicode hex="0330"/>
  <anchor x="-585" y="-426" name="Anchor-9"/>
  <anchor x="-585" y="0" name="_Anchor-9"/>
  <anchor x="-585" y="0" name="_Anchor-2"/>
  <outline>
    <contour>
      <point x="-366" y="-107" type="qcurve"/>
      <point x="-241" y="-118" type="line"/>
      <point x="-241" y="-191"/>
      <point x="-299" y="-301"/>
      <point x="-396" y="-361"/>
      <point x="-457" y="-361" type="qcurve" smooth="yes"/>
      <point x="-508" y="-361"/>
      <point x="-574" y="-332"/>
      <point x="-626" y="-295"/>
      <point x="-683" y="-266"/>
      <point x="-725" y="-266" type="qcurve" smooth="yes"/>
      <point x="-767" y="-266"/>
      <point x="-824" y="-330"/>
      <point x="-824" y="-377" type="qcurve"/>
      <point x="-949" y="-371" type="line"/>
      <point x="-949" y="-298"/>
      <point x="-892" y="-187"/>
      <point x="-794" y="-124"/>
      <point x="-734" y="-124" type="qcurve" smooth="yes"/>
      <point x="-691" y="-124"/>
      <point x="-626" y="-153"/>
      <point x="-568" y="-190"/>
      <point x="-506" y="-219"/>
      <point x="-466" y="-219" type="qcurve" smooth="yes"/>
      <point x="-424" y="-219"/>
      <point x="-366" y="-154"/>
    </contour>
  </outline>
</glyph>
<glyph name="uni0331" format="2">
  <advance width="0"/>
  <unicode hex="0331"/>
  <anchor x="-585" y="-286" name="Anchor-9"/>
  <anchor x="-585" y="0" name="_Anchor-9"/>
  <anchor x="-585" y="0" name="_Anchor-2"/>
  <outline>
    <contour>
      <point x="-249" y="-155" type="line"/>
      <point x="-249" y="-297" type="line"/>
      <point x="-920" y="-297" type="line"/>
      <point x="-920" y="-155" type="line"/>
    </contour>
  </outline>
</glyph>
<glyph name="uni033A" format="2">
  <advance width="0"/>
  <unicode hex="033A"/>
  <anchor x="-585" y="-496" name="Anchor-9"/>
  <anchor x="-585" y="0" name="_Anchor-9"/>
  <anchor x="-585" y="0" name="_Anchor-2"/>
  <outline>
    <contour>
      <point x="-374" y="-357" type="line"/>
      <point x="-374" y="-474" type="line"/>
      <point x="-801" y="-474" type="line"/>
      <point x="-801" y="-357" type="line"/>
    </contour>
    <contour>
      <point x="-782" y="-119" type="line"/>
      <point x="-782" y="-474" type="line"/>
      <point x="-923" y="-474" type="line"/>
      <point x="-923" y="-119" type="line"/>
    </contour>
    <contour>
      <point x="-248" y="-119" type="line"/>
      <point x="-248" y="-474" type="line"/>
      <point x="-389" y="-474" type="line"/>
      <point x="-389" y="-119" type="line"/>
    </contour>
  </outline>
</glyph>
<glyph name="uni033F" format="2">
  <advance width="0"/>
  <unicode hex="033F"/>
  <anchor x="-586" y="2026" name="Anchor-11"/>
  <anchor x="-586" y="1469" name="_Anchor-11"/>
  <anchor x="-586" y="2026" name="Anchor-10"/>
  <anchor x="-586" y="1469" name="_Anchor-0"/>
  <outline>
    <contour>
      <point x="-127" y="1640" type="line"/>
      <point x="-127" y="1489" type="line"/>
      <point x="-1044" y="1489" type="line"/>
      <point x="-1044" y="1640" type="line"/>
    </contour>
    <contour>
      <point x="-128" y="1894" type="line"/>
      <point x="-128" y="1743" type="line"/>
      <point x="-1045" y="1743" type="line"/>
      <point x="-1045" y="1894" type="line"/>
    </contour>
  </outline>
</glyph>
<glyph name="uni0347" format="2">
  <advance width="0"/>
  <unicode hex="0347"/>
  <anchor x="-584" y="-462" name="Anchor-9"/>
  <anchor x="-584" y="0" name="_Anchor-9"/>
  <anchor x="-584" y="0" name="_Anchor-2"/>
  <outline>
    <contour>
      <point x="-811" y="-113" type="line"/>
      <point x="-357" y="-113" type="line"/>
      <point x="-357" y="-246" type="line"/>
      <point x="-811" y="-246" type="line"/>
    </contour>
    <contour>
      <point x="-811" y="-329" type="line"/>
      <point x="-357" y="-329" type="line"/>
      <point x="-357" y="-462" type="line"/>
      <point x="-811" y="-462" type="line"/>
    </contour>
  </outline>
</glyph>
<glyph name="uni034A" format="2">
  <advance width="0"/>
  <unicode hex="034A"/>
  <anchor x="-583" y="1644" name="Anchor-11"/>
  <anchor x="-583" y="1257" name="_Anchor-11"/>
  <anchor x="-583" y="1644" name="Anchor-10"/>
  <anchor x="-583" y="1257" name="_Anchor-0"/>
  <outline>
    <contour>
      <point x="-534" y="1572" type="qcurve"/>
      <point x="-534" y="1572"/>
      <point x="-507" y="1554"/>
      <point x="-471" y="1532"/>
      <point x="-444" y="1514"/>
      <point x="-444" y="1514" type="qcurve"/>
      <point x="-444" y="1514"/>
      <point x="-482" y="1448"/>
      <point x="-538" y="1351"/>
      <point x="-594" y="1253"/>
      <point x="-632" y="1187"/>
      <point x="-632" y="1187" type="qcurve"/>
      <point x="-724" y="1245" type="line"/>
      <point x="-724" y="1245"/>
      <point x="-686" y="1311"/>
      <point x="-629" y="1409"/>
      <point x="-572" y="1506"/>
      <point x="-534" y="1572"/>
    </contour>
    <contour>
      <point x="-354" y="1512" type="qcurve"/>
      <point x="-230" y="1501" type="line"/>
      <point x="-230" y="1428"/>
      <point x="-287" y="1318"/>
      <point x="-385" y="1258"/>
      <point x="-445" y="1258" type="qcurve" smooth="yes"/>
      <point x="-496" y="1258"/>
      <point x="-563" y="1287"/>
      <point x="-615" y="1324"/>
      <point x="-672" y="1353"/>
      <point x="-714" y="1353" type="qcurve" smooth="yes"/>
      <point x="-756" y="1353"/>
      <point x="-813" y="1289"/>
      <point x="-813" y="1242" type="qcurve"/>
      <point x="-937" y="1248" type="line"/>
      <point x="-937" y="1321"/>
      <point x="-880" y="1432"/>
      <point x="-783" y="1495"/>
      <point x="-723" y="1495" type="qcurve" smooth="yes"/>
      <point x="-680" y="1495"/>
      <point x="-615" y="1466"/>
      <point x="-556" y="1429"/>
      <point x="-494" y="1400"/>
      <point x="-454" y="1400" type="qcurve" smooth="yes"/>
      <point x="-412" y="1400"/>
      <point x="-354" y="1465"/>
    </contour>
  </outline>
</glyph>
<glyph name="uni0353" format="2">
  <advance width="0"/>
  <unicode hex="0353"/>
  <anchor x="-514" y="-541" name="Anchor-9"/>
  <anchor x="-514" y="0" name="_Anchor-9"/>
  <anchor x="-514" y="0" name="_Anchor-2"/>
  <outline>
    <contour>
      <point x="-658" y="-526" type="line"/>
      <point x="-746" y="-435" type="line"/>
      <point x="-371" y="-58" type="line"/>
      <point x="-283" y="-149" type="line"/>
    </contour>
    <contour>
      <point x="-373" y="-528" type="line"/>
      <point x="-744" y="-148" type="line"/>
      <point x="-656" y="-57" type="line"/>
      <point x="-284" y="-437" type="line"/>
    </contour>
  </outline>
</glyph>
<glyph name="uni0364" format="2">
  <advance width="0"/>
  <unicode hex="0364"/>
  <anchor x="-565" y="1170" name="_Anchor-11"/>
  <anchor x="-565" y="1170" name="_Anchor-0"/>
  <outline>
    <contour>
      <point x="-546" y="1187" type="qcurve" smooth="yes"/>
      <point x="-628" y="1187"/>
      <point x="-746" y="1255"/>
      <point x="-808" y="1376"/>
      <point x="-808" y="1454" type="qcurve" smooth="yes"/>
      <point x="-808" y="1476" type="line" smooth="yes"/>
      <point x="-808" y="1569"/>
      <point x="-740" y="1695"/>
      <point x="-627" y="1759"/>
      <point x="-558" y="1759" type="qcurve" smooth="yes"/>
      <point x="-479" y="1759"/>
      <point x="-374" y="1688"/>
      <point x="-322" y="1566"/>
      <point x="-322" y="1489" type="qcurve" smooth="yes"/>
      <point x="-322" y="1442" type="line"/>
      <point x="-743" y="1442" type="line"/>
      <point x="-743" y="1524" type="line"/>
      <point x="-436" y="1524" type="line"/>
      <point x="-436" y="1531" type="line" smooth="yes"/>
      <point x="-438" y="1568"/>
      <point x="-463" y="1624"/>
      <point x="-515" y="1657"/>
      <point x="-558" y="1657" type="qcurve" smooth="yes"/>
      <point x="-601" y="1657"/>
      <point x="-657" y="1615"/>
      <point x="-685" y="1534"/>
      <point x="-685" y="1476" type="qcurve" smooth="yes"/>
      <point x="-685" y="1454" type="line" smooth="yes"/>
      <point x="-685" y="1402"/>
      <point x="-651" y="1328"/>
      <point x="-587" y="1290"/>
      <point x="-541" y="1290" type="qcurve" smooth="yes"/>
      <point x="-491" y="1290"/>
      <point x="-423" y="1322"/>
      <point x="-398" y="1355" type="qcurve"/>
      <point x="-334" y="1294" type="line"/>
      <point x="-361" y="1254"/>
      <point x="-464" y="1187"/>
    </contour>
  </outline>
</glyph>
<glyph name="uni0365" format="2">
  <advance width="0"/>
  <unicode hex="0365"/>
  <anchor x="-561" y="1170" name="_Anchor-11"/>
  <anchor x="-561" y="1170" name="_Anchor-0"/>
  <outline>
    <contour>
      <point x="-499" y="1753" type="line"/>
      <point x="-499" y="1201" type="line"/>
      <point x="-622" y="1201" type="line"/>
      <point x="-622" y="1753" type="line"/>
    </contour>
    <contour>
      <point x="-633" y="1888" type="qcurve" smooth="yes"/>
      <point x="-633" y="1918"/>
      <point x="-596" y="1958"/>
      <point x="-561" y="1958" type="qcurve" smooth="yes"/>
      <point x="-526" y="1958"/>
      <point x="-489" y="1918"/>
      <point x="-489" y="1888" type="qcurve" smooth="yes"/>
      <point x="-489" y="1860"/>
      <point x="-526" y="1820"/>
      <point x="-561" y="1820" type="qcurve" smooth="yes"/>
      <point x="-596" y="1820"/>
      <point x="-633" y="1860"/>
    </contour>
  </outline>
</glyph>
<glyph name="uni0367" format="2">
  <advance width="0"/>
  <unicode hex="0367"/>
  <anchor x="-568" y="1170" name="_Anchor-11"/>
  <anchor x="-568" y="1170" name="_Anchor-0"/>
  <outline>
    <contour>
      <point x="-460" y="1329" type="line"/>
      <point x="-460" y="1753" type="line"/>
      <point x="-337" y="1753" type="line"/>
      <point x="-337" y="1201" type="line"/>
      <point x="-429" y="1201" type="line"/>
    </contour>
    <contour>
      <point x="-443" y="1456" type="qcurve"/>
      <point x="-397" y="1457" type="line"/>
      <point x="-397" y="1380"/>
      <point x="-440" y="1260"/>
      <point x="-533" y="1191"/>
      <point x="-609" y="1191" type="qcurve" smooth="yes"/>
      <point x="-668" y="1191"/>
      <point x="-753" y="1239"/>
      <point x="-799" y="1344"/>
      <point x="-799" y="1428" type="qcurve" smooth="yes"/>
      <point x="-799" y="1753" type="line"/>
      <point x="-676" y="1753" type="line"/>
      <point x="-676" y="1427" type="line" smooth="yes"/>
      <point x="-676" y="1380"/>
      <point x="-655" y="1321"/>
      <point x="-611" y="1293"/>
      <point x="-577" y="1293" type="qcurve" smooth="yes"/>
      <point x="-529" y="1293"/>
      <point x="-470" y="1332"/>
      <point x="-443" y="1405"/>
    </contour>
  </outline>
</glyph>
<glyph name="uni0371" format="2">
  <advance width="983"/>
  <unicode hex="0371"/>
  <outline>
    <contour>
      <point x="430" y="0" type="line"/>
      <point x="245" y="0" type="line"/>
      <point x="245" y="800" type="line" smooth="yes"/>
      <point x="245" y="846"/>
      <point x="224" y="910"/>
      <point x="185" y="950"/>
      <point x="127" y="969"/>
      <point x="91" y="969" type="qcurve" smooth="yes"/>
      <point x="78" y="969"/>
      <point x="43" y="965"/>
      <point x="31" y="962" type="qcurve"/>
      <point x="30" y="1089" type="line"/>
      <point x="50" y="1095"/>
      <point x="105" y="1102"/>
      <point x="130" y="1102" type="qcurve" smooth="yes"/>
      <point x="192" y="1102"/>
      <point x="301" y="1063"/>
      <point x="383" y="986"/>
      <point x="430" y="873"/>
      <point x="430" y="800" type="qcurve" smooth="yes"/>
    </contour>
    <contour>
      <point x="953" y="613" type="line"/>
      <point x="953" y="463" type="line"/>
      <point x="391" y="463" type="line"/>
      <point x="391" y="613" type="line"/>
    </contour>
  </outline>
</glyph>
<glyph name="Gamma" format="2">
  <advance width="1139"/>
  <unicode hex="0393"/>
  <anchor x="625" y="1612" name="Anchor-5"/>
  <anchor x="1139" y="1612" name="Anchor-1"/>
  <anchor x="625" y="1612" name="Anchor-0"/>
  <outline>
    <contour>
      <point x="1072" y="1456" type="line"/>
      <point x="1072" y="1298" type="line"/>
      <point x="370" y="1298" type="line"/>
      <point x="370" y="0" type="line"/>
      <point x="178" y="0" type="line"/>
      <point x="178" y="1456" type="line"/>
    </contour>
  </outline>
</glyph>
<glyph name="Phi" format="2">
  <advance width="1467"/>
  <unicode hex="03A6"/>
  <outline>
    <contour>
      <point x="818" y="176" type="qcurve" smooth="yes"/>
      <point x="655" y="176" type="line" smooth="yes"/>
      <point x="525" y="176"/>
      <point x="313" y="255"/>
      <point x="160" y="400"/>
      <point x="78" y="601"/>
      <point x="78" y="722" type="qcurve" smooth="yes"/>
      <point x="78" y="884"/>
      <point x="224" y="1132"/>
      <point x="481" y="1272"/>
      <point x="650" y="1272" type="qcurve" smooth="yes"/>
      <point x="822" y="1272" type="line" smooth="yes"/>
      <point x="949" y="1272"/>
      <point x="1159" y="1193"/>
      <point x="1312" y="1046"/>
      <point x="1396" y="846"/>
      <point x="1396" y="724" type="qcurve" smooth="yes"/>
      <point x="1396" y="562"/>
      <point x="1252" y="315"/>
      <point x="992" y="176"/>
    </contour>
    <contour>
      <point x="655" y="335" type="qcurve" smooth="yes"/>
      <point x="820" y="335" type="line" smooth="yes"/>
      <point x="951" y="335"/>
      <point x="1121" y="431"/>
      <point x="1205" y="606"/>
      <point x="1205" y="724" type="qcurve" smooth="yes"/>
      <point x="1205" y="813"/>
      <point x="1157" y="956"/>
      <point x="1062" y="1058"/>
      <point x="919" y="1113"/>
      <point x="824" y="1113" type="qcurve" smooth="yes"/>
      <point x="650" y="1113" type="line" smooth="yes"/>
      <point x="523" y="1113"/>
      <point x="353" y="1016"/>
      <point x="268" y="841"/>
      <point x="268" y="722" type="qcurve" smooth="yes"/>
      <point x="268" y="634"/>
      <point x="315" y="491"/>
      <point x="411" y="389"/>
      <point x="557" y="335"/>
    </contour>
    <contour>
      <point x="834" y="1456" type="line"/>
      <point x="834" y="0" type="line"/>
      <point x="641" y="0" type="line"/>
      <point x="641" y="1456" type="line"/>
    </contour>
  </outline>
</glyph>
<glyph name="beta" format="2">
  <advance width="1213"/>
  <unicode hex="03B2"/>
  <outline>
    <contour>
      <point x="517" y="824" type="line"/>
      <point x="664" y="824" type="line" smooth="yes"/>
      <point x="803" y="824"/>
      <point x="998" y="719"/>
      <point x="1102" y="539"/>
      <point x="1102" y="425" type="qcurve" smooth="yes"/>
      <point x="1102" y="283"/>
      <point x="985" y="84"/>
      <point x="780" y="-20"/>
      <point x="648" y="-20" type="qcurve" smooth="yes"/>
      <point x="570" y="-20"/>
      <point x="417" y="24"/>
      <point x="291" y="115"/>
      <point x="216" y="259"/>
      <point x="216" y="358" type="qcurve"/>
      <point x="289" y="399" type="line"/>
      <point x="289" y="326"/>
      <point x="375" y="204"/>
      <point x="528" y="131"/>
      <point x="629" y="131" type="qcurve" smooth="yes"/>
      <point x="721" y="131"/>
      <point x="849" y="206"/>
      <point x="916" y="337"/>
      <point x="916" y="421" type="qcurve" smooth="yes"/>
      <point x="916" y="491"/>
      <point x="857" y="622"/>
      <point x="743" y="706"/>
      <point x="660" y="706" type="qcurve" smooth="yes"/>
      <point x="517" y="706" type="line"/>
    </contour>
    <contour>
      <point x="606" y="1476" type="qcurve" smooth="yes"/>
      <point x="736" y="1476"/>
      <point x="928" y="1376"/>
      <point x="1033" y="1199"/>
      <point x="1033" y="1084" type="qcurve" smooth="yes"/>
      <point x="1033" y="989"/>
      <point x="927" y="832"/>
      <point x="735" y="738"/>
      <point x="606" y="738" type="qcurve" smooth="yes"/>
      <point x="517" y="738" type="line"/>
      <point x="517" y="858" type="line"/>
      <point x="602" y="858" type="line" smooth="yes"/>
      <point x="690" y="858"/>
      <point x="798" y="917"/>
      <point x="848" y="1021"/>
      <point x="848" y="1088" type="qcurve" smooth="yes"/>
      <point x="848" y="1148"/>
      <point x="794" y="1256"/>
      <point x="687" y="1324"/>
      <point x="606" y="1324" type="qcurve" smooth="yes"/>
      <point x="533" y="1324"/>
      <point x="415" y="1259"/>
      <point x="346" y="1145"/>
      <point x="346" y="1073" type="qcurve" smooth="yes"/>
      <point x="346" y="-384" type="line"/>
      <point x="161" y="-384" type="line"/>
      <point x="161" y="1073" type="line" smooth="yes"/>
      <point x="161" y="1184"/>
      <point x="283" y="1367"/>
      <point x="485" y="1476"/>
    </contour>
  </outline>
</glyph>
<glyph name="zeta" format="2">
  <advance width="1061"/>
  <unicode hex="03B6"/>
  <outline>
    <contour>
      <point x="880" y="1456" type="line"/>
      <point x="964" y="1456" type="line"/>
      <point x="964" y="1336" type="line"/>
      <point x="613" y="910" type="line" smooth="yes"/>
      <point x="536" y="818"/>
      <point x="429" y="656"/>
      <point x="374" y="488"/>
      <point x="374" y="386" type="qcurve" smooth="yes"/>
      <point x="374" y="338"/>
      <point x="392" y="268"/>
      <point x="430" y="217"/>
      <point x="491" y="183"/>
      <point x="533" y="171" type="qcurve" smooth="yes"/>
      <point x="663" y="133" type="line" smooth="yes"/>
      <point x="737" y="112"/>
      <point x="854" y="73"/>
      <point x="921" y="-6"/>
      <point x="921" y="-88" type="qcurve" smooth="yes"/>
      <point x="921" y="-141"/>
      <point x="862" y="-256"/>
      <point x="781" y="-355"/>
      <point x="745" y="-384" type="qcurve"/>
      <point x="647" y="-299" type="line"/>
      <point x="678" y="-264"/>
      <point x="721" y="-204"/>
      <point x="744" y="-147"/>
      <point x="744" y="-117" type="qcurve" smooth="yes"/>
      <point x="744" y="-94"/>
      <point x="712" y="-56"/>
      <point x="645" y="-24"/>
      <point x="591" y="-10" type="qcurve" smooth="yes"/>
      <point x="501" y="14" type="line" smooth="yes"/>
      <point x="414" y="37"/>
      <point x="295" y="99"/>
      <point x="221" y="185"/>
      <point x="188" y="302"/>
      <point x="188" y="381" type="qcurve" smooth="yes"/>
      <point x="188" y="455"/>
      <point x="244" y="647"/>
      <point x="367" y="869"/>
      <point x="467" y="988" type="qcurve" smooth="yes"/>
    </contour>
    <contour>
      <point x="109" y="1456" type="line"/>
      <point x="906" y="1456" type="line"/>
      <point x="906" y="1305" type="line"/>
      <point x="109" y="1305" type="line"/>
    </contour>
  </outline>
</glyph>
<glyph name="eta" format="2">
  <advance width="1161"/>
  <unicode hex="03B7"/>
  <anchor x="578" y="1290" name="Anchor-5"/>
  <anchor x="239" y="10" name="Anchor-2"/>
  <anchor x="1161" y="1290" name="Anchor-1"/>
  <anchor x="578" y="1290" name="Anchor-0"/>
  <outline>
    <contour>
      <point x="331" y="851" type="line"/>
      <point x="331" y="0" type="line"/>
      <point x="146" y="0" type="line"/>
      <point x="146" y="1082" type="line"/>
      <point x="312" y="1082" type="line"/>
    </contour>
    <contour>
      <point x="293" y="576" type="qcurve"/>
      <point x="215" y="574" type="line"/>
      <point x="215" y="689"/>
      <point x="273" y="882"/>
      <point x="384" y="1024"/>
      <point x="543" y="1102"/>
      <point x="643" y="1102" type="qcurve" smooth="yes"/>
      <point x="727" y="1102"/>
      <point x="863" y="1062"/>
      <point x="958" y="968"/>
      <point x="1009" y="811"/>
      <point x="1009" y="694" type="qcurve" smooth="yes"/>
      <point x="1009" y="-415" type="line"/>
      <point x="824" y="-415" type="line"/>
      <point x="824" y="691" type="line" smooth="yes"/>
      <point x="824" y="765"/>
      <point x="793" y="865"/>
      <point x="732" y="924"/>
      <point x="645" y="950"/>
      <point x="588" y="950" type="qcurve" smooth="yes"/>
      <point x="509" y="950"/>
      <point x="397" y="891"/>
      <point x="326" y="787"/>
      <point x="293" y="652"/>
    </contour>
  </outline>
</glyph>
<glyph name="theta" format="2">
  <advance width="1167"/>
  <unicode hex="03B8"/>
  <outline>
    <contour>
      <point x="582" y="1476" type="qcurve" smooth="yes"/>
      <point x="667" y="1476"/>
      <point x="809" y="1427"/>
      <point x="922" y="1326"/>
      <point x="1001" y="1171"/>
      <point x="1042" y="960"/>
      <point x="1042" y="825" type="qcurve" smooth="yes"/>
      <point x="1042" y="640" type="line" smooth="yes"/>
      <point x="1042" y="505"/>
      <point x="1001" y="293"/>
      <point x="923" y="135"/>
      <point x="811" y="31"/>
      <point x="669" y="-20"/>
      <point x="584" y="-20" type="qcurve" smooth="yes"/>
      <point x="500" y="-20"/>
      <point x="358" y="31"/>
      <point x="245" y="135"/>
      <point x="165" y="293"/>
      <point x="123" y="505"/>
      <point x="123" y="640" type="qcurve" smooth="yes"/>
      <point x="123" y="825" type="line" smooth="yes"/>
      <point x="123" y="960"/>
      <point x="165" y="1171"/>
      <point x="244" y="1326"/>
      <point x="356" y="1427"/>
      <point x="498" y="1476"/>
    </contour>
    <contour>
      <point x="582" y="1325" type="qcurve" smooth="yes"/>
      <point x="516" y="1325"/>
      <point x="413" y="1263"/>
      <point x="344" y="1143"/>
      <point x="308" y="969"/>
      <point x="308" y="856" type="qcurve" smooth="yes"/>
      <point x="308" y="801" type="line"/>
      <point x="857" y="801" type="line"/>
      <point x="857" y="856" type="line" smooth="yes"/>
      <point x="857" y="946"/>
      <point x="834" y="1094"/>
      <point x="790" y="1208"/>
      <point x="723" y="1285"/>
      <point x="636" y="1325"/>
    </contour>
    <contour>
      <point x="584" y="132" type="qcurve" smooth="yes"/>
      <point x="638" y="132"/>
      <point x="725" y="174"/>
      <point x="791" y="254"/>
      <point x="835" y="371"/>
      <point x="857" y="521"/>
      <point x="857" y="611" type="qcurve" smooth="yes"/>
      <point x="857" y="650" type="line"/>
      <point x="308" y="650" type="line"/>
      <point x="308" y="611" type="line" smooth="yes"/>
      <point x="308" y="521"/>
      <point x="331" y="371"/>
      <point x="377" y="254"/>
      <point x="444" y="174"/>
      <point x="531" y="132"/>
    </contour>
  </outline>
</glyph>
<glyph name="upsilon" format="2">
  <advance width="1118"/>
  <unicode hex="03C5"/>
  <anchor x="543" y="1269" name="Anchor-5"/>
  <anchor x="1118" y="1269" name="Anchor-1"/>
  <anchor x="543" y="1269" name="Anchor-0"/>
  <outline>
    <contour>
      <point x="144" y="1082" type="line"/>
      <point x="329" y="1082" type="line"/>
      <point x="329" y="426" type="line" smooth="yes"/>
      <point x="329" y="346"/>
      <point x="359" y="233"/>
      <point x="414" y="163"/>
      <point x="488" y="131"/>
      <point x="531" y="131" type="qcurve" smooth="yes"/>
      <point x="605" y="131"/>
      <point x="716" y="206"/>
      <point x="791" y="332"/>
      <point x="829" y="485"/>
      <point x="829" y="562" type="qcurve" smooth="yes"/>
      <point x="827" y="698"/>
      <point x="757" y="959"/>
      <point x="706" y="1082" type="qcurve"/>
      <point x="901" y="1082" type="line"/>
      <point x="931" y="1020"/>
      <point x="983" y="864"/>
      <point x="1015" y="675"/>
      <point x="1015" y="563" type="qcurve" smooth="yes"/>
      <point x="1015" y="448"/>
      <point x="958" y="237"/>
      <point x="840" y="74"/>
      <point x="662" y="-21"/>
      <point x="540" y="-21" type="qcurve" smooth="yes"/>
      <point x="449" y="-21"/>
      <point x="302" y="32"/>
      <point x="199" y="141"/>
      <point x="144" y="311"/>
      <point x="144" y="428" type="qcurve" smooth="yes"/>
    </contour>
  </outline>
</glyph>
<glyph name="uni03D7" format="2">
  <advance width="1334"/>
  <unicode hex="03D7"/>
  <outline>
    <contour>
      <point x="365" y="0" type="line"/>
      <point x="166" y="0" type="line"/>
      <point x="974" y="1082" type="line"/>
      <point x="1173" y="1082" type="line"/>
    </contour>
    <contour>
      <point x="888" y="797" type="qcurve"/>
      <point x="1044" y="961" type="line"/>
      <point x="1056" y="823"/>
      <point x="1100" y="614"/>
      <point x="1126" y="533" type="qcurve" smooth="yes"/>
      <point x="1155" y="442"/>
      <point x="1217" y="300"/>
      <point x="1271" y="172"/>
      <point x="1304" y="34"/>
      <point x="1304" y="-53" type="qcurve" smooth="yes"/>
      <point x="1304" y="-136"/>
      <point x="1257" y="-264"/>
      <point x="1171" y="-352"/>
      <point x="1053" y="-397"/>
      <point x="982" y="-397" type="qcurve" smooth="yes"/>
      <point x="956" y="-397"/>
      <point x="887" y="-387"/>
      <point x="864" y="-380" type="qcurve"/>
      <point x="864" y="-231" type="line"/>
      <point x="880" y="-236"/>
      <point x="918" y="-240"/>
      <point x="934" y="-240" type="qcurve" smooth="yes"/>
      <point x="1017" y="-240"/>
      <point x="1118" y="-156"/>
      <point x="1118" y="-53" type="qcurve" smooth="yes"/>
      <point x="1118" y="13"/>
      <point x="1088" y="125"/>
      <point x="1041" y="237"/>
      <point x="984" y="370"/>
      <point x="957" y="458" type="qcurve" smooth="yes"/>
      <point x="937" y="526"/>
      <point x="901" y="691"/>
    </contour>
    <contour>
      <point x="461" y="216" type="line"/>
      <point x="275" y="46" type="line"/>
      <point x="275" y="753" type="line" smooth="yes"/>
      <point x="275" y="806"/>
      <point x="251" y="879"/>
      <point x="206" y="923"/>
      <point x="141" y="944"/>
      <point x="99" y="944" type="qcurve" smooth="yes"/>
      <point x="85" y="944"/>
      <point x="46" y="940"/>
      <point x="31" y="935" type="qcurve"/>
      <point x="30" y="1084" type="line"/>
      <point x="54" y="1092"/>
      <point x="120" y="1101"/>
      <point x="146" y="1101" type="qcurve" smooth="yes"/>
      <point x="217" y="1101"/>
      <point x="333" y="1056"/>
      <point x="416" y="967"/>
      <point x="461" y="837"/>
      <point x="461" y="753" type="qcurve" smooth="yes"/>
    </contour>
  </outline>
</glyph>
<glyph name="uni03F0" format="2">
  <advance width="1317"/>
  <unicode hex="03F0"/>
  <outline>
    <contour>
      <point x="166" y="0" type="line"/>
      <point x="365" y="0" type="line"/>
      <point x="1173" y="1082" type="line"/>
      <point x="974" y="1082" type="line"/>
    </contour>
    <contour>
      <point x="275" y="46" type="line"/>
      <point x="461" y="216" type="line"/>
      <point x="461" y="753" type="line" smooth="yes"/>
      <point x="461" y="837"/>
      <point x="416" y="967"/>
      <point x="333" y="1056"/>
      <point x="217" y="1101"/>
      <point x="146" y="1101" type="qcurve" smooth="yes"/>
      <point x="120" y="1101"/>
      <point x="54" y="1092"/>
      <point x="30" y="1084" type="qcurve"/>
      <point x="31" y="935" type="line"/>
      <point x="46" y="940"/>
      <point x="85" y="944"/>
      <point x="99" y="944" type="qcurve" smooth="yes"/>
      <point x="141" y="944"/>
      <point x="206" y="923"/>
      <point x="251" y="879"/>
      <point x="275" y="806"/>
      <point x="275" y="753" type="qcurve" smooth="yes"/>
    </contour>
    <contour>
      <point x="1042" y="1035" type="line"/>
      <point x="856" y="865" type="line"/>
      <point x="856" y="328" type="line" smooth="yes"/>
      <point x="856" y="244"/>
      <point x="901" y="114"/>
      <point x="985" y="25"/>
      <point x="1101" y="-20"/>
      <point x="1172" y="-20" type="qcurve" smooth="yes"/>
      <point x="1198" y="-20"/>
      <point x="1263" y="-10"/>
      <point x="1287" y="-3" type="qcurve"/>
      <point x="1286" y="146" type="line"/>
      <point x="1271" y="142"/>
      <point x="1232" y="137"/>
      <point x="1218" y="137" type="qcurve" smooth="yes"/>
      <point x="1176" y="137"/>
      <point x="1111" y="158"/>
      <point x="1066" y="202"/>
      <point x="1042" y="276"/>
      <point x="1042" y="328" type="qcurve" smooth="yes"/>
    </contour>
  </outline>
</glyph>
<glyph name="uni03F6" format="2">
  <advance width="921"/>
  <unicode hex="03F6"/>
  <outline>
    <contour>
      <point x="41" y="152" type="line"/>
      <point x="347" y="152" type="line" smooth="yes"/>
      <point x="433" y="152"/>
      <point x="548" y="213"/>
      <point x="615" y="317"/>
      <point x="643" y="449"/>
      <point x="643" y="520" type="qcurve" smooth="yes"/>
      <point x="643" y="562" type="line" smooth="yes"/>
      <point x="643" y="633"/>
      <point x="614" y="764"/>
      <point x="547" y="869"/>
      <point x="433" y="930"/>
      <point x="347" y="930" type="qcurve" smooth="yes"/>
      <point x="41" y="930" type="line"/>
      <point x="41" y="1082" type="line"/>
      <point x="347" y="1082" type="line" smooth="yes"/>
      <point x="469" y="1082"/>
      <point x="650" y="1002"/>
      <point x="769" y="860"/>
      <point x="829" y="671"/>
      <point x="829" y="562" type="qcurve" smooth="yes"/>
      <point x="829" y="520" type="line" smooth="yes"/>
      <point x="829" y="411"/>
      <point x="770" y="222"/>
      <point x="651" y="80"/>
      <point x="469" y="0"/>
      <point x="347" y="0" type="qcurve" smooth="yes"/>
      <point x="41" y="0" type="line"/>
    </contour>
    <contour>
      <point x="229" y="464" type="line"/>
      <point x="229" y="616" type="line"/>
      <point x="783" y="616" type="line"/>
      <point x="783" y="464" type="line"/>
    </contour>
  </outline>
</glyph>
<glyph name="uni03FF" format="2">
  <advance width="1333"/>
  <unicode hex="03FF"/>
  <outline>
    <contour>
      <point x="93" y="467" type="qcurve"/>
      <point x="286" y="467" type="line"/>
      <point x="301" y="366"/>
      <point x="375" y="218"/>
      <point x="516" y="138"/>
      <point x="628" y="138" type="qcurve" smooth="yes"/>
      <point x="725" y="138"/>
      <point x="872" y="212"/>
      <point x="971" y="348"/>
      <point x="1021" y="538"/>
      <point x="1021" y="654" type="qcurve" smooth="yes"/>
      <point x="1021" y="801" type="line" smooth="yes"/>
      <point x="1021" y="908"/>
      <point x="976" y="1096"/>
      <point x="884" y="1238"/>
      <point x="742" y="1319"/>
      <point x="645" y="1319" type="qcurve" smooth="yes"/>
      <point x="523" y="1319"/>
      <point x="377" y="1241"/>
      <point x="302" y="1096"/>
      <point x="286" y="993" type="qcurve"/>
      <point x="93" y="993" type="line"/>
      <point x="109" y="1131"/>
      <point x="237" y="1350"/>
      <point x="470" y="1476"/>
      <point x="645" y="1476" type="qcurve" smooth="yes"/>
      <point x="774" y="1476"/>
      <point x="983" y="1380"/>
      <point x="1133" y="1203"/>
      <point x="1214" y="954"/>
      <point x="1214" y="801" type="qcurve" smooth="yes"/>
      <point x="1214" y="656" type="line" smooth="yes"/>
      <point x="1214" y="503"/>
      <point x="1133" y="254"/>
      <point x="980" y="76"/>
      <point x="763" y="-20"/>
      <point x="628" y="-20" type="qcurve" smooth="yes"/>
      <point x="463" y="-20"/>
      <point x="236" y="104"/>
      <point x="108" y="324"/>
    </contour>
    <contour>
      <point x="620" y="622" type="qcurve" smooth="yes"/>
      <point x="567" y="622"/>
      <point x="511" y="683"/>
      <point x="511" y="727" type="qcurve" smooth="yes"/>
      <point x="511" y="772"/>
      <point x="567" y="834"/>
      <point x="620" y="834" type="qcurve" smooth="yes"/>
      <point x="674" y="834"/>
      <point x="730" y="772"/>
      <point x="730" y="727" type="qcurve" smooth="yes"/>
      <point x="730" y="683"/>
      <point x="674" y="622"/>
    </contour>
  </outline>
</glyph>
<glyph name="uni0414" format="2">
  <advance width="1540"/>
  <unicode hex="0414"/>
  <outline>
    <contour>
      <point x="1314" y="157" type="line"/>
      <point x="1314" y="0" type="line"/>
      <point x="212" y="0" type="line"/>
      <point x="212" y="157" type="line"/>
    </contour>
    <contour>
      <point x="243" y="157" type="line"/>
      <point x="243" y="-358" type="line"/>
      <point x="52" y="-358" type="line"/>
      <point x="51" y="157" type="line"/>
    </contour>
    <contour>
      <point x="1482" y="157" type="line"/>
      <point x="1480" y="-357" type="line"/>
      <point x="1289" y="-357" type="line"/>
      <point x="1289" y="157" type="line"/>
    </contour>
    <contour>
      <point x="1125" y="1456" type="line"/>
      <point x="1125" y="1298" type="line"/>
      <point x="487" y="1298" type="line"/>
      <point x="487" y="1456" type="line"/>
    </contour>
    <contour>
      <point x="1291" y="1456" type="line"/>
      <point x="1291" y="0" type="line"/>
      <point x="1099" y="0" type="line"/>
      <point x="1099" y="1456" type="line"/>
    </contour>
    <contour>
      <point x="421" y="1456" type="line"/>
      <point x="614" y="1456" type="line"/>
      <point x="584" y="870" type="line" smooth="yes"/>
      <point x="578" y="738"/>
      <point x="540" y="515"/>
      <point x="484" y="331"/>
      <point x="412" y="186"/>
      <point x="330" y="81"/>
      <point x="241" y="14"/>
      <point x="196" y="0" type="qcurve"/>
      <point x="108" y="0" type="line"/>
      <point x="108" y="157" type="line"/>
      <point x="170" y="157" type="line"/>
      <point x="196" y="185"/>
      <point x="263" y="291"/>
      <point x="330" y="460"/>
      <point x="381" y="704"/>
      <point x="390" y="870" type="qcurve" smooth="yes"/>
    </contour>
  </outline>
</glyph>
<glyph name="uni0427" format="2">
  <advance width="1402"/>
  <unicode hex="0427"/>
  <anchor x="688" y="1612" name="Anchor-5"/>
  <anchor x="1402" y="1612" name="Anchor-1"/>
  <anchor x="688" y="1612" name="Anchor-0"/>
  <outline>
    <contour>
      <point x="151" y="1456" type="line"/>
      <point x="344" y="1456" type="line"/>
      <point x="344" y="1001" type="line" smooth="yes"/>
      <point x="344" y="888"/>
      <point x="410" y="760"/>
      <point x="544" y="708"/>
      <point x="644" y="708" type="qcurve" smooth="yes"/>
      <point x="704" y="708"/>
      <point x="817" y="718"/>
      <point x="925" y="736"/>
      <point x="1030" y="762"/>
      <point x="1081" y="777" type="qcurve"/>
      <point x="1081" y="619" type="line"/>
      <point x="1032" y="604"/>
      <point x="935" y="578"/>
      <point x="832" y="560"/>
      <point x="715" y="550"/>
      <point x="644" y="550" type="qcurve" smooth="yes"/>
      <point x="490" y="550"/>
      <point x="269" y="639"/>
      <point x="151" y="837"/>
      <point x="151" y="1001" type="qcurve" smooth="yes"/>
    </contour>
    <contour>
      <point x="1032" y="1456" type="line"/>
      <point x="1225" y="1456" type="line"/>
      <point x="1225" y="0" type="line"/>
      <point x="1032" y="0" type="line"/>
    </contour>
  </outline>
</glyph>
<glyph name="uni042A" format="2">
  <advance width="1554"/>
  <unicode hex="042A"/>
  <outline>
    <contour>
      <point x="17" y="1304" type="line"/>
      <point x="17" y="1456" type="line"/>
      <point x="474" y="1456" type="line"/>
      <point x="474" y="1304" type="line"/>
    </contour>
    <contour>
      <point x="574" y="863" type="line"/>
      <point x="970" y="863" type="line" smooth="yes"/>
      <point x="1130" y="863"/>
      <point x="1350" y="756"/>
      <point x="1465" y="564"/>
      <point x="1465" y="435" type="qcurve" smooth="yes"/>
      <point x="1465" y="339"/>
      <point x="1400" y="180"/>
      <point x="1274" y="63"/>
      <point x="1090" y="0"/>
      <point x="970" y="0" type="qcurve" smooth="yes"/>
      <point x="427" y="0" type="line"/>
      <point x="427" y="1456" type="line"/>
      <point x="619" y="1456" type="line"/>
      <point x="619" y="157" type="line"/>
      <point x="970" y="157" type="line" smooth="yes"/>
      <point x="1077" y="157"/>
      <point x="1210" y="236"/>
      <point x="1272" y="364"/>
      <point x="1272" y="437" type="qcurve" smooth="yes"/>
      <point x="1272" y="510"/>
      <point x="1210" y="632"/>
      <point x="1077" y="705"/>
      <point x="970" y="705" type="qcurve" smooth="yes"/>
      <point x="574" y="705" type="line"/>
    </contour>
  </outline>
</glyph>
<glyph name="uni042E" format="2">
  <advance width="1831"/>
  <unicode hex="042E"/>
  <anchor x="916" y="1600" name="Anchor-5"/>
  <anchor x="1831" y="1600" name="Anchor-1"/>
  <anchor x="916" y="1600" name="Anchor-0"/>
  <outline>
    <contour>
      <point x="376" y="1456" type="line"/>
      <point x="376" y="0" type="line"/>
      <point x="183" y="0" type="line"/>
      <point x="183" y="1456" type="line"/>
    </contour>
    <contour>
      <point x="710" y="789" type="line"/>
      <point x="710" y="637" type="line"/>
      <point x="364" y="637" type="line"/>
      <point x="364" y="789" type="line"/>
    </contour>
    <contour>
      <point x="1755" y="774" type="qcurve" smooth="yes"/>
      <point x="1755" y="682" type="line" smooth="yes"/>
      <point x="1755" y="518"/>
      <point x="1673" y="258"/>
      <point x="1519" y="76"/>
      <point x="1304" y="-20"/>
      <point x="1171" y="-20" type="qcurve" smooth="yes"/>
      <point x="1042" y="-20"/>
      <point x="827" y="76"/>
      <point x="670" y="258"/>
      <point x="584" y="518"/>
      <point x="584" y="682" type="qcurve" smooth="yes"/>
      <point x="584" y="774" type="line" smooth="yes"/>
      <point x="584" y="938"/>
      <point x="669" y="1197"/>
      <point x="825" y="1380"/>
      <point x="1040" y="1476"/>
      <point x="1169" y="1476" type="qcurve" smooth="yes"/>
      <point x="1302" y="1476"/>
      <point x="1517" y="1380"/>
      <point x="1672" y="1197"/>
      <point x="1755" y="938"/>
    </contour>
    <contour>
      <point x="1564" y="682" type="qcurve" smooth="yes"/>
      <point x="1564" y="776" type="line" smooth="yes"/>
      <point x="1564" y="906"/>
      <point x="1511" y="1106"/>
      <point x="1409" y="1242"/>
      <point x="1262" y="1312"/>
      <point x="1169" y="1312" type="qcurve" smooth="yes"/>
      <point x="1079" y="1312"/>
      <point x="934" y="1242"/>
      <point x="831" y="1106"/>
      <point x="775" y="906"/>
      <point x="775" y="776" type="qcurve" smooth="yes"/>
      <point x="775" y="682" type="line" smooth="yes"/>
      <point x="775" y="551"/>
      <point x="831" y="350"/>
      <point x="936" y="213"/>
      <point x="1081" y="143"/>
      <point x="1171" y="143" type="qcurve" smooth="yes"/>
      <point x="1265" y="143"/>
      <point x="1411" y="213"/>
      <point x="1512" y="350"/>
      <point x="1564" y="551"/>
    </contour>
  </outline>
</glyph>
<glyph name="uni0431" format="2">
  <advance width="1133"/>
  <unicode hex="0431"/>
  <outline>
    <contour>
      <point x="835" y="1553" type="qcurve"/>
      <point x="987" y="1553" type="line"/>
      <point x="987" y="1455"/>
      <point x="927" y="1340"/>
      <point x="824" y="1278"/>
      <point x="695" y="1246"/>
      <point x="626" y="1231" type="qcurve" smooth="yes"/>
      <point x="540" y="1213"/>
      <point x="393" y="1136"/>
      <point x="288" y="996"/>
      <point x="239" y="772"/>
      <point x="250" y="607" type="qcurve"/>
      <point x="250" y="515" type="line"/>
      <point x="98" y="515" type="line"/>
      <point x="98" y="607" type="line" smooth="yes"/>
      <point x="98" y="792"/>
      <point x="169" y="1068"/>
      <point x="299" y="1258"/>
      <point x="478" y="1370"/>
      <point x="586" y="1391" type="qcurve" smooth="yes"/>
      <point x="664" y="1406"/>
      <point x="776" y="1441"/>
      <point x="835" y="1501"/>
    </contour>
    <contour>
      <point x="616" y="1020" type="qcurve" smooth="yes"/>
      <point x="722" y="1020"/>
      <point x="888" y="946"/>
      <point x="1004" y="814"/>
      <point x="1065" y="635"/>
      <point x="1065" y="530" type="qcurve" smooth="yes"/>
      <point x="1065" y="508" type="line" smooth="yes"/>
      <point x="1065" y="395"/>
      <point x="1000" y="202"/>
      <point x="875" y="59"/>
      <point x="696" y="-21"/>
      <point x="582" y="-21" type="qcurve" smooth="yes"/>
      <point x="468" y="-21"/>
      <point x="289" y="59"/>
      <point x="163" y="202"/>
      <point x="98" y="395"/>
      <point x="98" y="508" type="qcurve" smooth="yes"/>
      <point x="98" y="530" type="line" smooth="yes"/>
      <point x="98" y="555"/>
      <point x="116" y="603"/>
      <point x="143" y="653"/>
      <point x="154" y="681" type="qcurve" smooth="yes"/>
      <point x="191" y="771"/>
      <point x="320" y="925"/>
      <point x="501" y="1020"/>
    </contour>
    <contour>
      <point x="580" y="869" type="qcurve" smooth="yes"/>
      <point x="478" y="869"/>
      <point x="347" y="775"/>
      <point x="283" y="620"/>
      <point x="283" y="530" type="qcurve" smooth="yes"/>
      <point x="283" y="508" type="line" smooth="yes"/>
      <point x="283" y="432"/>
      <point x="319" y="296"/>
      <point x="392" y="191"/>
      <point x="505" y="131"/>
      <point x="582" y="131" type="qcurve" smooth="yes"/>
      <point x="659" y="131"/>
      <point x="771" y="191"/>
      <point x="843" y="296"/>
      <point x="879" y="432"/>
      <point x="879" y="508" type="qcurve" smooth="yes"/>
      <point x="879" y="530" type="line" smooth="yes"/>
      <point x="879" y="598"/>
      <point x="843" y="720"/>
      <point x="770" y="814"/>
      <point x="657" y="869"/>
    </contour>
  </outline>
</glyph>
<glyph name="uni0444" format="2">
  <advance width="1486"/>
  <unicode hex="0444"/>
  <anchor x="740" y="1740" name="Anchor-5"/>
  <anchor x="1486" y="1740" name="Anchor-1"/>
  <anchor x="740" y="1740" name="Anchor-0"/>
  <outline>
    <contour>
      <point x="1385" y="522" type="qcurve" smooth="yes"/>
      <point x="1385" y="501" type="line" smooth="yes"/>
      <point x="1385" y="387"/>
      <point x="1335" y="196"/>
      <point x="1236" y="56"/>
      <point x="1090" y="-21"/>
      <point x="994" y="-21" type="qcurve" smooth="yes"/>
      <point x="915" y="-21"/>
      <point x="795" y="22"/>
      <point x="712" y="104"/>
      <point x="663" y="219"/>
      <point x="654" y="291" type="qcurve"/>
      <point x="654" y="771" type="line"/>
      <point x="663" y="848"/>
      <point x="712" y="970"/>
      <point x="795" y="1056"/>
      <point x="913" y="1102"/>
      <point x="992" y="1102" type="qcurve" smooth="yes"/>
      <point x="1070" y="1102"/>
      <point x="1195" y="1047"/>
      <point x="1290" y="945"/>
      <point x="1353" y="802"/>
      <point x="1385" y="624"/>
    </contour>
    <contour>
      <point x="1200" y="501" type="qcurve" smooth="yes"/>
      <point x="1200" y="522" type="line" smooth="yes"/>
      <point x="1200" y="592"/>
      <point x="1181" y="719"/>
      <point x="1142" y="826"/>
      <point x="1080" y="906"/>
      <point x="993" y="950"/>
      <point x="937" y="950" type="qcurve" smooth="yes"/>
      <point x="877" y="950"/>
      <point x="798" y="920"/>
      <point x="754" y="871"/>
      <point x="744" y="844" type="qcurve"/>
      <point x="744" y="217" type="line"/>
      <point x="756" y="195"/>
      <point x="802" y="156"/>
      <point x="880" y="131"/>
      <point x="939" y="131" type="qcurve" smooth="yes"/>
      <point x="1009" y="131"/>
      <point x="1108" y="188"/>
      <point x="1171" y="290"/>
      <point x="1200" y="424"/>
    </contour>
    <contour>
      <point x="100" y="501" type="qcurve" smooth="yes"/>
      <point x="100" y="522" type="line" smooth="yes"/>
      <point x="100" y="624"/>
      <point x="132" y="802"/>
      <point x="196" y="945"/>
      <point x="291" y="1047"/>
      <point x="416" y="1102"/>
      <point x="494" y="1102" type="qcurve" smooth="yes"/>
      <point x="571" y="1102"/>
      <point x="686" y="1056"/>
      <point x="766" y="970"/>
      <point x="814" y="848"/>
      <point x="824" y="771" type="qcurve"/>
      <point x="824" y="310" type="line"/>
      <point x="815" y="234"/>
      <point x="767" y="112"/>
      <point x="687" y="25"/>
      <point x="570" y="-21"/>
      <point x="492" y="-21" type="qcurve" smooth="yes"/>
      <point x="396" y="-21"/>
      <point x="250" y="56"/>
      <point x="151" y="196"/>
      <point x="100" y="387"/>
    </contour>
    <contour>
      <point x="286" y="522" type="qcurve" smooth="yes"/>
      <point x="286" y="501" type="line" smooth="yes"/>
      <point x="286" y="424"/>
      <point x="313" y="290"/>
      <point x="372" y="188"/>
      <point x="468" y="131"/>
      <point x="538" y="131" type="qcurve" smooth="yes"/>
      <point x="598" y="131"/>
      <point x="676" y="161"/>
      <point x="722" y="209"/>
      <point x="734" y="235" type="qcurve"/>
      <point x="734" y="844" type="line"/>
      <point x="724" y="871"/>
      <point x="679" y="920"/>
      <point x="601" y="950"/>
      <point x="540" y="950" type="qcurve" smooth="yes"/>
      <point x="470" y="950"/>
      <point x="372" y="882"/>
      <point x="313" y="764"/>
      <point x="286" y="609"/>
    </contour>
    <contour>
      <point x="642" y="-416" type="line"/>
      <point x="642" y="1536" type="line"/>
      <point x="828" y="1536" type="line"/>
      <point x="828" y="-416" type="line"/>
    </contour>
  </outline>
</glyph>
<glyph name="uni044A" format="2">
  <advance width="1271"/>
  <unicode hex="044A"/>
  <outline>
    <contour>
      <point x="505" y="1082" type="line"/>
      <point x="505" y="930" type="line"/>
      <point x="30" y="930" type="line"/>
      <point x="30" y="1082" type="line"/>
    </contour>
    <contour>
      <point x="487" y="710" type="line"/>
      <point x="812" y="710" type="line" smooth="yes"/>
      <point x="943" y="710"/>
      <point x="1123" y="619"/>
      <point x="1216" y="460"/>
      <point x="1216" y="359" type="qcurve" smooth="yes"/>
      <point x="1216" y="284"/>
      <point x="1164" y="153"/>
      <point x="1061" y="55"/>
      <point x="910" y="0"/>
      <point x="812" y="0" type="qcurve" smooth="yes"/>
      <point x="351" y="0" type="line"/>
      <point x="351" y="1082" type="line"/>
      <point x="537" y="1082" type="line"/>
      <point x="537" y="152" type="line"/>
      <point x="812" y="152" type="line" smooth="yes"/>
      <point x="892" y="152"/>
      <point x="987" y="210"/>
      <point x="1029" y="302"/>
      <point x="1029" y="352" type="qcurve" smooth="yes"/>
      <point x="1029" y="401"/>
      <point x="987" y="495"/>
      <point x="892" y="558"/>
      <point x="812" y="558" type="qcurve" smooth="yes"/>
      <point x="487" y="558" type="line"/>
    </contour>
  </outline>
</glyph>
